<svg width="26" height="27" viewBox="0 0 26 27" fill="none" xmlns="http://www.w3.org/2000/svg">
<path fill-rule="evenodd" clip-rule="evenodd" d="M20.957 13.4993C20.957 14.0779 20.488 14.547 19.9094 14.547L7.77192 14.547L12.2692 19.0443C12.6784 19.4534 12.6784 20.1167 12.2692 20.5258C11.8601 20.935 11.1968 20.935 10.7877 20.5258L4.50197 14.2401C4.3055 14.0437 4.19513 13.7772 4.19513 13.4993C4.19513 13.2215 4.3055 12.955 4.50197 12.7586L10.7877 6.47286C11.1968 6.06373 11.8601 6.06374 12.2692 6.47286C12.6784 6.88198 12.6784 7.54529 12.2692 7.95441L7.77192 12.4517L19.9094 12.4517C20.488 12.4517 20.957 12.9208 20.957 13.4993Z" fill="white"/>
</svg>
