<svg width="48" height="48" viewBox="0 0 48 48" fill="none" xmlns="http://www.w3.org/2000/svg">
<rect width="48" height="48" rx="24" fill="#00CBFF" fill-opacity="0.14"/>
<path d="M23.8159 23.2324C22.9724 23.2235 22.1503 22.9653 21.4533 22.4901C20.7562 22.015 20.2153 21.3443 19.8986 20.5624C19.5819 19.7805 19.5036 18.9224 19.6736 18.0961C19.8436 17.2698 20.2543 16.5123 20.8539 15.919C21.4535 15.3256 22.2153 14.9229 23.0433 14.7615C23.8714 14.6002 24.7286 14.6874 25.5071 15.0123C26.2857 15.3371 26.9507 15.8851 27.4185 16.5871C27.8863 17.2891 28.1359 18.1138 28.1359 18.9574C28.128 20.0965 27.6689 21.1861 26.8592 21.9874C26.0494 22.7887 24.9551 23.2364 23.8159 23.2324ZM23.8159 16.1824C23.2691 16.1913 22.7371 16.3615 22.2867 16.6718C21.8363 16.982 21.4876 17.4185 21.2845 17.9262C21.0813 18.434 21.0328 18.9905 21.1449 19.5258C21.257 20.0611 21.5247 20.5514 21.9146 20.935C22.3044 21.3186 22.7989 21.5784 23.3359 21.6819C23.8729 21.7854 24.4286 21.7279 24.933 21.5166C25.4375 21.3053 25.8682 20.9496 26.1712 20.4943C26.4742 20.039 26.6359 19.5043 26.6359 18.9574C26.628 18.2161 26.3269 17.508 25.7985 16.988C25.2701 16.468 24.5573 16.1784 23.8159 16.1824Z" fill="#3FAEFF"/>
<path d="M23.8156 23.2324C22.972 23.2235 22.15 22.9653 21.4529 22.4901C20.7558 22.015 20.2149 21.3443 19.8982 20.5624C19.5816 19.7805 19.5033 18.9224 19.6733 18.0961C19.8433 17.2698 20.2539 16.5123 20.8536 15.919C21.4532 15.3256 22.215 14.9229 23.043 14.7615C23.871 14.6002 24.7282 14.6874 25.5068 15.0123C26.2853 15.3371 26.9503 15.8851 27.4181 16.5871C27.8859 17.2891 28.1355 18.1138 28.1356 18.9574C28.1277 20.0965 27.6685 21.1861 26.8588 21.9874C26.0491 22.7887 24.9548 23.2364 23.8156 23.2324ZM23.8156 16.1824C23.2687 16.1913 22.7367 16.3615 22.2863 16.6718C21.8359 16.982 21.4873 17.4185 21.2841 17.9262C21.081 18.434 21.0324 18.9905 21.1445 19.5258C21.2566 20.0611 21.5244 20.5514 21.9142 20.935C22.304 21.3186 22.7985 21.5784 23.3355 21.6819C23.8726 21.7854 24.4282 21.7279 24.9327 21.5166C25.4371 21.3053 25.8679 20.9496 26.1709 20.4943C26.4738 20.039 26.6355 19.5043 26.6356 18.9574C26.6277 18.2161 26.3266 17.508 25.7982 16.988C25.2697 16.468 24.5569 16.1784 23.8156 16.1824ZM26.4331 24.2374C23.1065 23.6585 19.6819 24.1854 16.6831 25.7374C16.4702 25.8556 16.294 26.03 16.1736 26.2417C16.0532 26.4533 15.9934 26.694 16.0006 26.9374V29.6074C16.0006 29.8063 16.0796 29.9971 16.2203 30.1377C16.3609 30.2784 16.5517 30.3574 16.7506 30.3574C16.9495 30.3574 17.1403 30.2784 17.2809 30.1377C17.4216 29.9971 17.5006 29.8063 17.5006 29.6074V27.0349C20.2813 25.6396 23.4436 25.1969 26.5006 25.7749L26.4331 24.2374Z" fill="#3FAEFF"/>
<path d="M34.75 27.4996H29.725V26.3896C29.725 26.1907 29.646 26 29.5053 25.8593C29.3647 25.7187 29.1739 25.6396 28.975 25.6396C28.7761 25.6396 28.5853 25.7187 28.4447 25.8593C28.304 26 28.225 26.1907 28.225 26.3896V27.4996H22.75C22.5511 27.4996 22.3603 27.5787 22.2197 27.7193C22.079 27.86 22 28.0507 22 28.2496V35.7496C22 35.9486 22.079 36.1393 22.2197 36.28C22.3603 36.4206 22.5511 36.4996 22.75 36.4996H34.75C34.9489 36.4996 35.1397 36.4206 35.2803 36.28C35.421 36.1393 35.5 35.9486 35.5 35.7496V28.2496C35.5 28.0507 35.421 27.86 35.2803 27.7193C35.1397 27.5787 34.9489 27.4996 34.75 27.4996ZM34 34.9996H23.5V28.9996H28.225V29.3071C28.225 29.5061 28.304 29.6968 28.4447 29.8375C28.5853 29.9781 28.7761 30.0571 28.975 30.0571C29.1739 30.0571 29.3647 29.9781 29.5053 29.8375C29.646 29.6968 29.725 29.5061 29.725 29.3071V28.9996H34V34.9996Z" fill="#3FAEFF"/>
<path d="M26.3575 31.5646H30.8275V32.6146H26.3575V31.5646ZM18.13 20.1796C16.0536 20.2143 14.0132 20.7276 12.1675 21.6796C11.9668 21.7856 11.7986 21.9442 11.6811 22.1384C11.5635 22.3326 11.5009 22.5551 11.5 22.7821V25.1071C11.5 25.306 11.579 25.4968 11.7197 25.6374C11.8603 25.7781 12.0511 25.8571 12.25 25.8571C12.4489 25.8571 12.6397 25.7781 12.7803 25.6374C12.921 25.4968 13 25.306 13 25.1071V22.9321C14.7635 22.0543 16.7159 21.6242 18.685 21.6796C18.4274 21.2096 18.2404 20.7041 18.13 20.1796ZM34.8325 21.6721C33.1771 20.8038 31.3579 20.2927 29.4925 20.1721C29.3827 20.6957 29.1983 21.2008 28.945 21.6721C30.7023 21.7142 32.4285 22.1444 34 22.9321V25.1071C34 25.306 34.079 25.4968 34.2197 25.6374C34.3603 25.7781 34.5511 25.8571 34.75 25.8571C34.9489 25.8571 35.1397 25.7781 35.2803 25.6374C35.421 25.4968 35.5 25.306 35.5 25.1071V22.7821C35.5005 22.5538 35.4385 22.3298 35.3209 22.1341C35.2032 21.9385 35.0344 21.7787 34.8325 21.6721ZM17.995 18.9571V18.4546C17.4075 18.376 16.8729 18.0738 16.5026 17.6109C16.1322 17.1481 15.9547 16.5602 16.0069 15.9697C16.059 15.3793 16.3369 14.8317 16.7827 14.4409C17.2285 14.0502 17.8078 13.8465 18.4 13.8721C19.016 13.871 19.6081 14.1105 20.05 14.5396C20.4399 14.218 20.8682 13.9459 21.325 13.7296C20.8147 13.1428 20.1386 12.7245 19.3858 12.5297C18.633 12.3348 17.8388 12.3727 17.1079 12.6382C16.3771 12.9038 15.7438 13.3846 15.2916 14.0172C14.8395 14.6498 14.5896 15.4046 14.575 16.1821C14.5907 17.1337 14.9606 18.0452 15.6125 18.7386C16.2643 19.4321 17.1512 19.8576 18.1 19.9321C18.0364 19.6108 18.0012 19.2846 17.995 18.9571ZM28.5775 12.3721C28.0621 12.3722 27.5519 12.4751 27.0767 12.6747C26.6015 12.8743 26.1709 13.1666 25.81 13.5346C26.317 13.7183 26.7965 13.9707 27.235 14.2846C27.5851 14.0415 27.9947 13.8981 28.4199 13.8695C28.8452 13.8409 29.2703 13.9282 29.6498 14.1222C30.0293 14.3162 30.3491 14.6096 30.575 14.971C30.8009 15.3325 30.9244 15.7484 30.9325 16.1746C30.9278 16.6123 30.7992 17.0398 30.5616 17.4074C30.324 17.7751 29.9871 18.068 29.59 18.2521C29.6202 18.4834 29.6352 18.7164 29.635 18.9496C29.633 19.2511 29.6079 19.552 29.56 19.8496C30.377 19.6396 31.1017 19.1653 31.6212 18.5006C32.1408 17.836 32.426 17.0182 32.4325 16.1746C32.4226 15.1601 32.0116 14.1907 31.2893 13.4782C30.567 12.7658 29.5921 12.3681 28.5775 12.3721Z" fill="#3FAEFF"/>
</svg>
