<svg width="203" height="17" viewBox="0 0 203 17" fill="none" xmlns="http://www.w3.org/2000/svg">
<path d="M0 8.23715C0 3.68375 3.50043 0 8.0754 0C11.2097 0 13.8633 1.7393 15.2121 4.32434L13.2682 5.30852C12.2616 3.45469 10.3629 2.1735 8.0754 2.1735C4.73602 2.1735 2.17298 4.89698 2.17298 8.23715C2.17298 11.5773 4.73477 14.3008 8.0754 14.3008C10.3855 14.3008 12.3069 12.9969 13.2908 11.0978L15.2587 12.082C13.9086 14.6909 11.2323 16.4756 8.0754 16.4756C3.50043 16.4743 0 12.7905 0 8.23715Z" fill="black"/>
<path d="M26.9921 0.229492H29.2796L35.9596 16.2469H33.6029L32.2993 13.0666H24.0868L22.8059 16.2469H20.4492L26.9921 0.229492ZM31.567 11.0743L28.1585 2.72266H28.1132L24.7964 11.0743H31.567Z" fill="black"/>
<path d="M51.9295 16.2457L48.7033 9.97563H44.5624V16.2457H42.4121V0.229492H48.8405C51.6539 0.229492 54.0559 2.0141 54.0559 5.10382C54.0559 7.48372 52.6605 9.06193 50.7392 9.67987L54.3075 16.2469H51.9295V16.2457ZM44.5624 8.12306H48.6341C50.5781 8.12306 51.9055 6.95639 51.9055 5.14787C51.9055 3.33935 50.5794 2.15003 48.6341 2.15003H44.5624V8.12306Z" fill="black"/>
<path d="M66.4745 0.229492H68.762L75.442 16.2469H73.0853L71.7818 13.0666H63.5692L62.2883 16.2469H59.9316L66.4745 0.229492ZM71.0495 11.0743L67.6409 2.72266H67.5956L64.2789 11.0743H71.0495Z" fill="black"/>
<path d="M79.2656 0.229492H81.5984L86.6993 13.638L91.7776 0.229492H94.1104L87.9563 16.2469H85.4172L79.2656 0.229492Z" fill="black"/>
<path d="M100.543 0.229492H111.272V2.15129H102.693V7.27732H111.088V9.1538H102.693V14.3251H111.272V16.2469H100.543V0.229492Z" fill="black"/>
<path d="M118.385 0.229492H120.535V14.2559H128.999V16.2469H118.385V0.229492Z" fill="black"/>
<path d="M139.836 5.09553H137V4.10254H143.782V5.09553H140.946V12.3749H139.835V5.09553H139.836Z" fill="#003B4A"/>
<path d="M152.098 12.3749L150.432 9.1367H148.293V12.3749H147.182V4.10254H150.502C151.955 4.10254 153.196 5.02379 153.196 6.61962C153.196 7.84921 152.475 8.66349 151.482 8.98316L153.326 12.3749H152.098ZM148.293 8.17895H150.395C151.399 8.17895 152.085 7.57611 152.085 6.64227C152.085 5.70844 151.399 5.09427 150.395 5.09427H148.293V8.17895Z" fill="#003B4A"/>
<path d="M159.615 4.10254H160.796L164.246 12.3749H163.03L162.356 10.7325H158.115L157.453 12.3749H156.236L159.615 4.10254ZM161.978 9.70304L160.217 5.39002H160.194L158.48 9.70304H161.978Z" fill="#003B4A"/>
<path d="M167.574 4.10254H170.575C172.785 4.10254 174.652 5.58007 174.652 8.22678C174.652 10.8735 172.785 12.3749 170.575 12.3749H167.574V4.10254ZM170.529 11.2875C172.218 11.2875 173.541 10.2241 173.541 8.22678C173.541 6.22947 172.217 5.18992 170.529 5.18992H168.685V11.2875H170.529Z" fill="#003B4A"/>
<path d="M178.301 4.10254H179.412V12.3749H178.301V4.10254Z" fill="#003B4A"/>
<path d="M183.467 4.10254H184.731L189.162 10.6029V4.10254H190.273V12.3749H189.008L184.578 5.87457V12.3749H183.467V4.10254Z" fill="#003B4A"/>
<path d="M202.001 8.10735V9.95111C201.469 11.6061 199.969 12.4921 198.114 12.4921C195.751 12.4921 193.932 10.5892 193.932 8.23824C193.932 5.88729 195.751 3.98438 198.114 3.98438C199.804 3.98438 201.104 4.87038 201.788 6.20569L200.795 6.73806C200.287 5.76899 199.353 5.10699 198.113 5.10699C196.376 5.10699 195.053 6.51278 195.053 8.23824C195.053 9.9637 196.376 11.3695 198.113 11.3695C199.459 11.3695 200.405 10.8019 200.842 9.69185V9.19599H198.621V8.10861H202.001V8.10735Z" fill="#003B4A"/>
</svg>
