<svg width="78" height="68" viewBox="0 0 78 68" fill="none" xmlns="http://www.w3.org/2000/svg">
<g clip-path="url(#clip0_159_63)">
<path d="M14.5321 20.9941C17.9237 25.5604 23.81 33.4621 26.5139 36.9815C22.3607 33.6234 13.4434 37.0226 13.4434 37.0226C19.1638 31.3456 16.8647 24.8605 14.5321 20.9941Z" fill="#003B4A"/>
<path d="M43.6706 38.76C38.0848 32.2552 21.4173 36.823 21.4173 36.823C29.9595 26.2905 24.1044 15.1205 20.3301 9.86719C27.4382 18.5958 47.0409 42.6857 43.6706 38.76Z" fill="#003B4A"/>
<path d="M30.9414 -0.00195312C30.9414 -0.00195312 47.1898 19.9659 34.0995 39.189C34.0995 39.189 56.9029 32.6264 64.0612 40.964C69.3214 47.0907 30.9414 -0.00195312 30.9414 -0.00195312Z" fill="#003B4A"/>
<path d="M0.00195312 52.6611C0.00195312 49.9085 2.11849 47.6816 4.88475 47.6816C6.7799 47.6816 8.38442 48.7331 9.2 50.2957L8.02456 50.8907C7.41593 49.77 6.26788 48.9955 4.88475 48.9955C2.8656 48.9955 1.31585 50.6419 1.31585 52.6611C1.31585 54.6802 2.86483 56.3266 4.88475 56.3266C6.28158 56.3266 7.44331 55.5384 8.03826 54.3904L9.22814 54.9853C8.41181 56.5624 6.79359 57.6412 4.88475 57.6412C2.11849 57.6405 0.00195312 55.4136 0.00195312 52.6611Z" fill="black"/>
<path d="M16.3233 47.8203H17.7065L21.7455 57.503H20.3206L19.5324 55.5804H14.5667L13.7922 57.503H12.3672L16.3233 47.8203ZM19.0896 54.3761L17.0286 49.3275H17.0012L14.9957 54.3761H19.0896Z" fill="black"/>
<path d="M31.4012 57.5022L29.4505 53.7119H26.9467V57.5022H25.6465V47.8203H29.5334C31.2345 47.8203 32.6869 48.8991 32.6869 50.7669C32.6869 52.2055 31.8432 53.1596 30.6814 53.5331L32.8391 57.503H31.4012V57.5022ZM26.9467 52.592H29.4086C30.5841 52.592 31.3867 51.8868 31.3867 50.7935C31.3867 49.7002 30.5848 48.9813 29.4086 48.9813H26.9467V52.592Z" fill="black"/>
<path d="M40.1964 47.8203H41.5795L45.6186 57.503H44.1936L43.4054 55.5804H38.4397L37.6652 57.503H36.2402L40.1964 47.8203ZM42.9626 54.3761L40.9016 49.3275H40.8743L38.8688 54.3761H42.9626Z" fill="black"/>
<path d="M47.9297 47.8203H49.3402L52.4245 55.9258L55.4951 47.8203H56.9056L53.1845 57.503H51.6492L47.9297 47.8203Z" fill="black"/>
<path d="M60.7949 47.8203H67.2822V48.9821H62.0951V52.0808H67.1712V53.2151H62.0951V56.3412H67.2822V57.503H60.7949V47.8203Z" fill="black"/>
<path d="M71.584 47.8203H72.8842V56.2994H78.0021V57.503H71.584V47.8203Z" fill="black"/>
<path d="M21.0664 63.2331H19.3516V62.6328H23.4523V63.2331H21.7374V67.6335H21.0656V63.2331H21.0664Z" fill="#003B4A"/>
<path d="M28.4802 67.6335L27.473 65.676H26.1796V67.6335H25.5078V62.6328H27.5156C28.3943 62.6328 29.1444 63.1897 29.1444 64.1544C29.1444 64.8977 28.7085 65.3899 28.1082 65.5832L29.2228 67.6335H28.4802ZM26.1796 65.097H27.4509C28.058 65.097 28.4726 64.7326 28.4726 64.1681C28.4726 63.6036 28.058 63.2323 27.4509 63.2323H26.1796V65.097Z" fill="#003B4A"/>
<path d="M33.0252 62.6328H33.7396L35.8257 67.6335H35.09L34.6829 66.6407H32.1183L31.7181 67.6335H30.9824L33.0252 62.6328ZM34.4539 66.0184L33.3896 63.4111H33.3751L32.3389 66.0184H34.4539Z" fill="#003B4A"/>
<path d="M37.8379 62.6328H39.6524C40.9884 62.6328 42.1174 63.526 42.1174 65.1259C42.1174 66.7259 40.9884 67.6335 39.6524 67.6335H37.8379V62.6328ZM39.6242 66.9762C40.646 66.9762 41.4456 66.3333 41.4456 65.1259C41.4456 63.9186 40.6452 63.2901 39.6242 63.2901H38.5097V66.9762H39.6242Z" fill="#003B4A"/>
<path d="M44.3242 62.6328H44.996V67.6335H44.3242V62.6328Z" fill="#003B4A"/>
<path d="M47.4473 62.6328H48.2119L50.8906 66.5623V62.6328H51.5624V67.6335H50.7978L48.1191 63.704V67.6335H47.4473V62.6328Z" fill="#003B4A"/>
<path d="M58.6544 65.0549V66.1694C58.3326 67.1699 57.4257 67.7055 56.3043 67.7055C54.8755 67.7055 53.7754 66.5552 53.7754 65.134C53.7754 63.7128 54.8755 62.5625 56.3043 62.5625C57.326 62.5625 58.1119 63.0981 58.5258 63.9053L57.9255 64.2271C57.6182 63.6413 57.0537 63.2411 56.3035 63.2411C55.2536 63.2411 54.4533 64.0909 54.4533 65.134C54.4533 66.177 55.2536 67.0269 56.3035 67.0269C57.1176 67.0269 57.6897 66.6837 57.9537 66.0127V65.713H56.6109V65.0556H58.6544V65.0549Z" fill="#003B4A"/>
</g>
<defs>
<clipPath id="clip0_159_63">
<rect width="78" height="67.7049" fill="white"/>
</clipPath>
</defs>
</svg>
