<svg width="210" height="183" viewBox="0 0 210 183" fill="none" xmlns="http://www.w3.org/2000/svg">
<g opacity="0.1" clip-path="url(#clip0_114_4181)">
<path d="M39.1303 56.7441C48.2617 69.0864 64.1094 90.4438 71.389 99.9566C60.2074 90.8798 36.1992 100.068 36.1992 100.068C51.6004 84.723 45.4104 67.1946 39.1303 56.7441Z" fill="white"/>
<path d="M117.578 104.768C102.539 87.1865 57.6653 99.5329 57.6653 99.5329C80.6636 71.0646 64.8999 40.873 54.7383 26.6738C73.8756 50.2665 126.652 115.379 117.578 104.768Z" fill="white"/>
<path d="M83.3086 -0.00390625C83.3086 -0.00390625 127.054 53.9674 91.8111 105.926C91.8111 105.926 153.205 88.1874 172.477 110.723C186.639 127.283 83.3086 -0.00390625 83.3086 -0.00390625Z" fill="white"/>
<path d="M0 142.336C0 134.896 5.69837 128.877 13.146 128.877C18.2483 128.877 22.5682 131.719 24.764 135.943L21.5993 137.551C19.9607 134.522 16.8698 132.428 13.146 132.428C7.70981 132.428 3.53742 136.878 3.53742 142.336C3.53742 147.793 7.70776 152.243 13.146 152.243C16.9067 152.243 20.0344 150.113 21.6362 147.01L24.8397 148.618C22.6419 152.881 18.2852 155.797 13.146 155.797C5.69837 155.795 0 149.776 0 142.336Z" fill="white"/>
<path d="M43.9441 129.252H47.6679L58.5424 155.423H54.7059L52.5839 150.227H39.2146L37.1294 155.423H33.293L43.9441 129.252ZM51.3918 146.972L45.8429 133.326H45.7692L40.3698 146.972H51.3918Z" fill="white"/>
<path d="M84.5402 155.421L79.2884 145.176H72.5474V155.421H69.0469V129.252H79.5117C84.0917 129.252 88.0019 132.168 88.0019 137.216C88.0019 141.105 85.7303 143.684 82.6025 144.693L88.4115 155.423H84.5402V155.421ZM72.5474 142.149H79.1757C82.3404 142.149 84.5013 140.243 84.5013 137.288C84.5013 134.333 82.3424 132.39 79.1757 132.39H72.5474V142.149Z" fill="white"/>
<path d="M108.21 129.252H111.934L122.808 155.423H118.972L116.849 150.227H103.48L101.395 155.423H97.5586L108.21 129.252ZM115.657 146.972L110.109 133.326H110.035L104.635 146.972H115.657Z" fill="white"/>
<path d="M129.035 129.252H132.833L141.137 151.16L149.403 129.252H153.201L143.183 155.423H139.049L129.035 129.252Z" fill="white"/>
<path d="M163.676 129.252H181.142V132.392H167.176V140.768H180.843V143.834H167.176V152.283H181.142V155.423H163.676V129.252Z" fill="white"/>
<path d="M192.715 129.252H196.215V152.17H209.994V155.423H192.715V129.252Z" fill="white"/>
<path d="M56.7184 170.913H52.1016V169.291H63.1419V170.913H58.525V182.807H56.7164V170.913H56.7184Z" fill="white"/>
<path d="M76.6746 182.807L73.9626 177.516H70.4805V182.807H68.6719V169.291H74.0773C76.4431 169.291 78.4628 170.796 78.4628 173.404C78.4628 175.413 77.2891 176.743 75.673 177.266L78.6737 182.807H76.6746ZM70.4805 175.952H73.9032C75.5378 175.952 76.6541 174.967 76.6541 173.441C76.6541 171.915 75.5378 170.911 73.9032 170.911H70.4805V175.952Z" fill="white"/>
<path d="M88.9138 169.291H90.8371L96.4535 182.807H94.4728L93.377 180.124H86.4722L85.3948 182.807H83.4141L88.9138 169.291ZM92.7605 178.442L89.8949 171.395H89.856L87.0662 178.442H92.7605Z" fill="white"/>
<path d="M101.871 169.291H106.756C110.353 169.291 113.393 171.705 113.393 176.03C113.393 180.354 110.353 182.807 106.756 182.807H101.871V169.291ZM106.681 181.031C109.431 181.031 111.584 179.293 111.584 176.03C111.584 172.766 109.429 171.068 106.681 171.068H103.68V181.031H106.681Z" fill="white"/>
<path d="M119.332 169.291H121.141V182.807H119.332V169.291Z" fill="white"/>
<path d="M127.746 169.291H129.805L137.017 179.912V169.291H138.825V182.807H136.767L129.555 172.186V182.807H127.746V169.291Z" fill="white"/>
<path d="M157.921 175.84V178.853C157.054 181.557 154.613 183.005 151.594 183.005C147.747 183.005 144.785 179.895 144.785 176.054C144.785 172.213 147.747 169.104 151.594 169.104C154.345 169.104 156.46 170.551 157.575 172.733L155.959 173.603C155.131 172.019 153.611 170.938 151.592 170.938C148.765 170.938 146.61 173.235 146.61 176.054C146.61 178.873 148.765 181.17 151.592 181.17C153.783 181.17 155.324 180.243 156.034 178.429V177.619H152.419V175.842H157.921V175.84Z" fill="white"/>
</g>
<defs>
<clipPath id="clip0_114_4181">
<rect width="210" height="183" fill="white"/>
</clipPath>
</defs>
</svg>
