<svg width="249" height="270" viewBox="0 0 249 270" fill="none" xmlns="http://www.w3.org/2000/svg">
<circle cx="124" cy="70" r="70" fill="white"/>
<g filter="url(#filter0_dddddd_21_757)">
<ellipse cx="124.386" cy="69.6128" rx="61.8785" ry="61.105" fill="white"/>
</g>
<path d="M167.639 71.4134C167.345 73.1935 168.143 74.7757 169.739 75.0393C171.47 75.3252 172.106 73.7655 172.633 72.6417C173.053 71.7022 173.383 70.773 174.205 70.9089C174.794 71.0062 175.245 71.6356 175.095 72.5441C174.963 73.342 174.463 73.7764 173.7 73.89L173.886 75.4342C175.343 75.2459 176.28 74.3036 176.538 72.7445C176.822 71.0258 175.952 69.4949 174.479 69.2515C172.772 68.9697 172.052 70.3515 171.526 71.551C171.104 72.5028 170.813 73.5015 169.966 73.3616C169.303 73.2521 168.963 72.5652 169.111 71.6691C169.251 70.822 169.798 70.1809 170.61 70.0754L170.438 68.4453C168.957 68.6295 167.911 69.7684 167.639 71.4134Z" fill="black"/>
<path d="M166.302 79.6991C165.692 81.3042 166.071 83.0054 167.136 84.1955L168.36 83.0766C167.709 82.3368 167.473 81.2756 167.853 80.2753C168.41 78.8097 170.021 78.1439 171.475 78.6964C172.929 79.2488 173.691 80.8162 173.134 82.2818C172.758 83.2705 171.893 83.9002 170.935 84.0417L171.111 85.6794C172.674 85.4881 174.071 84.4748 174.677 82.8812C175.565 80.5433 174.377 78.0289 172.063 77.1494C169.748 76.2699 167.19 77.3612 166.302 79.6991Z" fill="black"/>
<path d="M161.764 90.3685L165.626 90.4891C165.481 91.5281 165.893 92.5751 166.979 93.2082C168.495 94.0921 170.065 93.4238 170.849 92.0803L172.711 88.888L165.187 84.4999L164.372 85.8972L167.102 87.4895L166.187 89.0587L162.667 88.8208L161.764 90.3685ZM170.649 89.5581L169.684 91.2134C169.251 91.955 168.484 92.1844 167.785 91.7769C167.086 91.3694 166.908 90.5884 167.341 89.8468L168.306 88.1916L170.649 89.5581Z" fill="black"/>
<path d="M159.486 94.2194C157.807 96.0558 157.984 98.831 159.811 100.502C161.638 102.173 164.418 102.102 166.097 100.265C167.785 98.4198 167.608 95.6447 165.781 93.9736C163.954 92.3025 161.174 92.3738 159.486 94.2194ZM160.662 95.2942C161.736 94.1189 163.488 94.0848 164.681 95.1764C165.875 96.2681 165.997 98.0153 164.922 99.1906C163.856 100.357 162.104 100.391 160.911 99.2992C159.717 98.2075 159.595 96.4604 160.662 95.2942Z" fill="black"/>
<path d="M156.039 98.7939L151.383 102.595L152.336 103.761L155.728 100.991L160.285 106.572L161.547 105.541L156.039 98.7939Z" fill="black"/>
<path d="M151.159 103.318L146.002 106.403L146.774 107.695L150.533 105.447L154.231 111.63L155.63 110.793L151.159 103.318Z" fill="black"/>
<path d="M143.307 108.768L140.13 109.695C137.896 110.347 136.373 112.412 137.161 115.112C137.949 117.811 140.34 118.72 142.574 118.069L145.748 117.129L143.307 108.768ZM142.189 110.754L143.737 116.057L142.184 116.51C140.703 116.943 139.264 116.455 138.738 114.651C138.211 112.848 139.155 111.639 140.636 111.207L142.189 110.754Z" fill="black"/>
<path d="M130.991 112.303C128.51 112.492 126.739 114.636 126.928 117.105C127.116 119.574 129.192 121.425 131.673 121.235C134.167 121.045 135.938 118.901 135.749 116.432C135.561 113.963 133.485 112.112 130.991 112.303ZM131.113 113.891C132.701 113.769 134.001 114.943 134.124 116.556C134.247 118.169 133.14 119.526 131.552 119.647C129.976 119.768 128.676 118.594 128.553 116.981C128.43 115.368 129.537 114.011 131.113 113.891Z" fill="black"/>
<path d="M123.144 113.663L121.286 113.478L118.815 119.222L117.547 113.107L115.677 112.921L112.353 121.344L114.099 121.517L116.453 115.187L117.776 121.883L119.324 122.036L121.938 115.731L123.014 122.403L124.759 122.576L123.144 113.663Z" fill="black"/>
<path d="M112.591 112.57L111.068 111.989L108.899 117.673L107.29 110.547L105.558 109.886L102.453 118.023L103.987 118.609L106.161 112.913L107.765 120.051L109.486 120.707L112.591 112.57Z" fill="black"/>
<path d="M80.1063 74.3824C80.1213 72.5783 79.088 71.1387 77.4705 71.1253C75.7161 71.1107 75.3292 72.75 74.9834 73.9417C74.7138 74.9349 74.5315 75.904 73.6979 75.8971C73.1007 75.8921 72.5578 75.3401 72.5654 74.4194C72.5721 73.6106 72.9994 73.104 73.7355 72.8737L73.3124 71.377C71.9029 71.7883 71.1225 72.8644 71.1093 74.4446C71.0949 76.1865 72.1909 77.5644 73.684 77.5768C75.4135 77.5912 75.911 76.1145 76.245 74.8481C76.5147 73.8424 76.6477 72.8108 77.5062 72.8179C78.1781 72.8235 78.6209 73.4493 78.6133 74.3576C78.6062 75.2161 78.1647 75.9342 77.3789 76.1641L77.8013 77.7479C79.2356 77.3367 80.0925 76.0497 80.1063 74.3824Z" fill="black"/>
<path d="M80.1452 65.9913C80.4993 64.3111 79.8621 62.689 78.6255 61.6781L77.5896 62.973C78.3469 63.6031 78.744 64.6151 78.5233 65.6622C78.2 67.1963 76.7117 68.1033 75.1898 67.7826C73.6679 67.4618 72.6724 66.0312 72.9957 64.4971C73.2139 63.4622 73.9709 62.7062 74.8963 62.418L74.4686 60.8274C72.9536 61.2583 71.7305 62.4756 71.379 64.1436C70.8632 66.5909 72.4256 68.8912 74.8485 69.4019C77.2714 69.9126 79.6294 68.4385 80.1452 65.9913Z" fill="black"/>
<path d="M82.9744 54.746L79.1401 55.2246C79.1226 54.1757 78.5535 53.2051 77.383 52.7476C75.7489 52.1089 74.3003 53.0123 73.7341 54.4609L72.3888 57.9028L80.5011 61.0736L81.09 59.567L78.1464 58.4165L78.8077 56.7245L82.3221 56.4148L82.9744 54.746ZM74.322 56.9217L75.0196 55.137C75.3321 54.3373 76.0549 53.992 76.8082 54.2864C77.5615 54.5808 77.8585 55.3248 77.546 56.1245L76.8484 57.9092L74.322 56.9217Z" fill="black"/>
<path d="M84.6306 50.5901C86.0056 48.5159 85.4015 45.8015 83.3377 44.4334C81.2738 43.0653 78.5385 43.5659 77.1635 45.6401C75.7816 47.7247 76.3857 50.4391 78.4495 51.8072C80.5134 53.1753 83.2487 52.6747 84.6306 50.5901ZM83.3031 49.7101C82.4231 51.0376 80.6984 51.3423 79.3502 50.4486C78.0019 49.5548 77.611 47.8476 78.491 46.5201C79.3641 45.203 81.0888 44.8983 82.437 45.792C83.7853 46.6858 84.1762 48.393 83.3031 49.7101Z" fill="black"/>
<path d="M87.3304 45.5376L91.3414 41.062L90.2201 40.0572L87.297 43.3189L81.9319 38.5107L80.844 39.7246L87.3304 45.5376Z" fill="black"/>
<path d="M91.4503 40.3125L96.0684 36.4663L95.1048 35.3095L91.7393 38.1124L87.1288 32.5765L85.8762 33.6197L91.4503 40.3125Z" fill="black"/>
<path d="M98.3632 33.7125L101.359 32.3046C103.465 31.3149 104.65 29.0393 103.454 26.4943C102.257 23.9493 99.7543 23.4209 97.6485 24.4106L94.6584 25.8297L98.3632 33.7125ZM99.161 31.5777L96.811 26.5778L98.275 25.8898C99.6713 25.2335 101.168 25.4925 101.967 27.1929C102.766 28.8933 102.021 30.2334 100.625 30.8897L99.161 31.5777Z" fill="black"/>
<path d="M109.986 28.3142C112.408 27.7431 113.825 25.3506 113.257 22.9406C112.689 20.5306 110.352 19.0234 107.93 19.5945C105.496 20.1685 104.078 22.561 104.647 24.971C105.215 27.3811 107.552 28.8882 109.986 28.3142ZM109.62 26.7641C108.07 27.1296 106.604 26.1713 106.233 24.5969C105.862 23.0225 106.745 21.5102 108.295 21.1447C109.833 20.782 111.299 21.7403 111.671 23.3147C112.042 24.8891 111.159 26.4014 109.62 26.7641Z" fill="black"/>
<path d="M117.526 25.7554L119.39 25.6501L120.942 19.5928L123.141 25.4381L125.017 25.3322L126.998 16.4964L125.247 16.5953L123.901 23.2143L121.557 16.8038L120.004 16.8915L118.397 23.5252L116.302 17.1007L114.55 17.1997L117.526 25.7554Z" fill="black"/>
<path d="M128.122 25.202L129.717 25.5405L130.98 19.5885L133.672 26.3801L135.486 26.7651L137.294 18.2449L135.688 17.9039L134.422 23.868L131.732 17.0642L129.931 16.6819L128.122 25.202Z" fill="black"/>
<path fill-rule="evenodd" clip-rule="evenodd" d="M123.999 59.334C124.736 59.334 125.333 59.9309 125.333 60.6673V76.115L131.057 70.3912C131.577 69.8705 132.421 69.8705 132.942 70.3912C133.463 70.9119 133.463 71.7561 132.942 72.2768L124.942 80.2768C124.692 80.5268 124.353 80.6673 123.999 80.6673C123.646 80.6673 123.307 80.5268 123.057 80.2768L115.057 72.2768C114.536 71.7561 114.536 70.9119 115.057 70.3912C115.577 69.8705 116.421 69.8705 116.942 70.3912L122.666 76.115V60.6673C122.666 59.9309 123.263 59.334 123.999 59.334Z" fill="#003B4A"/>
<defs>
<filter id="filter0_dddddd_21_757" x="0.62936" y="8.50781" width="247.515" height="261.436" filterUnits="userSpaceOnUse" color-interpolation-filters="sRGB">
<feFlood flood-opacity="0" result="BackgroundImageFix"/>
<feColorMatrix in="SourceAlpha" type="matrix" values="0 0 0 0 0 0 0 0 0 0 0 0 0 0 0 0 0 0 127 0" result="hardAlpha"/>
<feOffset dy="2.14042"/>
<feGaussianBlur stdDeviation="0.856168"/>
<feColorMatrix type="matrix" values="0 0 0 0 0 0 0 0 0 0 0 0 0 0 0 0 0 0 0.0196802 0"/>
<feBlend mode="normal" in2="BackgroundImageFix" result="effect1_dropShadow_21_757"/>
<feColorMatrix in="SourceAlpha" type="matrix" values="0 0 0 0 0 0 0 0 0 0 0 0 0 0 0 0 0 0 127 0" result="hardAlpha"/>
<feOffset dy="5.14373"/>
<feGaussianBlur stdDeviation="2.05749"/>
<feColorMatrix type="matrix" values="0 0 0 0 0 0 0 0 0 0 0 0 0 0 0 0 0 0 0.0282725 0"/>
<feBlend mode="normal" in2="effect1_dropShadow_21_757" result="effect2_dropShadow_21_757"/>
<feColorMatrix in="SourceAlpha" type="matrix" values="0 0 0 0 0 0 0 0 0 0 0 0 0 0 0 0 0 0 127 0" result="hardAlpha"/>
<feOffset dy="9.68518"/>
<feGaussianBlur stdDeviation="3.87407"/>
<feColorMatrix type="matrix" values="0 0 0 0 0 0 0 0 0 0 0 0 0 0 0 0 0 0 0.035 0"/>
<feBlend mode="normal" in2="effect2_dropShadow_21_757" result="effect3_dropShadow_21_757"/>
<feColorMatrix in="SourceAlpha" type="matrix" values="0 0 0 0 0 0 0 0 0 0 0 0 0 0 0 0 0 0 127 0" result="hardAlpha"/>
<feOffset dy="17.2767"/>
<feGaussianBlur stdDeviation="6.91068"/>
<feColorMatrix type="matrix" values="0 0 0 0 0 0 0 0 0 0 0 0 0 0 0 0 0 0 0.0417275 0"/>
<feBlend mode="normal" in2="effect3_dropShadow_21_757" result="effect4_dropShadow_21_757"/>
<feColorMatrix in="SourceAlpha" type="matrix" values="0 0 0 0 0 0 0 0 0 0 0 0 0 0 0 0 0 0 127 0" result="hardAlpha"/>
<feOffset dy="32.3142"/>
<feGaussianBlur stdDeviation="12.9257"/>
<feColorMatrix type="matrix" values="0 0 0 0 0 0 0 0 0 0 0 0 0 0 0 0 0 0 0.0503198 0"/>
<feBlend mode="normal" in2="effect4_dropShadow_21_757" result="effect5_dropShadow_21_757"/>
<feColorMatrix in="SourceAlpha" type="matrix" values="0 0 0 0 0 0 0 0 0 0 0 0 0 0 0 0 0 0 127 0" result="hardAlpha"/>
<feOffset dy="77.3481"/>
<feGaussianBlur stdDeviation="30.9392"/>
<feColorMatrix type="matrix" values="0 0 0 0 0 0 0 0 0 0 0 0 0 0 0 0 0 0 0.07 0"/>
<feBlend mode="normal" in2="effect5_dropShadow_21_757" result="effect6_dropShadow_21_757"/>
<feBlend mode="normal" in="SourceGraphic" in2="effect6_dropShadow_21_757" result="shape"/>
</filter>
</defs>
</svg>
