<?xml version="1.0" standalone="no"?>
<!DOCTYPE svg PUBLIC "-//W3C//DTD SVG 1.1//EN" "http://www.w3.org/Graphics/SVG/1.1/DTD/svg11.dtd" >
<svg xmlns="http://www.w3.org/2000/svg" xmlns:xlink="http://www.w3.org/1999/xlink" version="1.1">
<metadata>
Created by FontForge 20170731 at Fri Dec 13 16:49:40 2019
 By Aleksey,,,
Copyright (c) 2019 by Eugene Tantsurin. All rights reserved.
</metadata>
<defs>
<font id="OktaNeue-Bold" horiz-adv-x="0" >
  <font-face 
    font-family="Okta Neue Bold"
    font-weight="400"
    font-stretch="normal"
    units-per-em="1000"
    panose-1="0 0 8 0 0 0 0 0 0 0"
    ascent="751"
    descent="-249"
    x-height="495"
    cap-height="700"
    bbox="-741 -434 1153 1141"
    underline-thickness="50"
    underline-position="-200"
    unicode-range="U+0020-FB4B"
  />
<missing-glyph horiz-adv-x="1187" 
d="M594 -95q-187 0 -315.5 130t-128.5 315t128.5 315t315.5 130q186 0 314.5 -130t128.5 -315t-128.5 -315t-314.5 -130zM593 -1q144 0 243.5 101t99.5 250t-99.5 250t-243.5 101q-143 0 -242.5 -101t-99.5 -250t99.5 -250t242.5 -101zM458 144l-71 71l136 136l-136 135
l71 72l136 -136l136 136l71 -72l-136 -135l136 -136l-71 -71l-136 136z" />
    <glyph glyph-name="f_f" unicode="ff" horiz-adv-x="784" 
d="M664 622q-115 0 -115 -117v-10h167v-122h-167v-373h-140v373h-166v-373h-140v373h-88v122h88v8q0 61 15 107t38.5 73.5t57.5 44t66 22.5t69 6q89 0 152 -39q59 39 152 39q57 0 131 -24l-18 -136q-64 26 -102 26zM243 495h166v8q0 62 15 107q-38 12 -65 12
q-116 0 -116 -117v-10z" />
    <glyph glyph-name="f_f_i" unicode="ffi" horiz-adv-x="889" 
d="M850 495v-495h-137v373h-164v-373h-140v373h-166v-373h-140v373h-88v122h88v8q0 61 15 107t38.5 73.5t57.5 44t66 22.5t69 6q89 0 151 -39q58 39 153 39q73 0 145 -24l-17 -136q-66 26 -117 26q-115 0 -115 -117v-10h301zM243 495h166v8q0 60 18 104q-34 15 -68 15
q-116 0 -116 -117v-10z" />
    <glyph glyph-name="f_i" unicode="fi" horiz-adv-x="583" 
d="M243 495h301v-495h-137v373h-164v-373h-140v373h-88v122h88v8q0 61 16.5 107t42 73t61 44t69 23t70.5 6q72 0 152 -26l-18 -134q-61 26 -124 26q-53 0 -91 -26t-38 -91v-10z" />
    <glyph glyph-name="f_l" unicode="fl" horiz-adv-x="673" 
d="M648 131l14 -122q-44 -11 -79 -11q-80 0 -126.5 46t-46.5 128v450q-22 7 -53 7q-46 0 -79.5 -26.5t-33.5 -83.5v-24h98v-122h-98v-373h-140v373h-89v122h89v22q0 57 16 100.5t40.5 69t58.5 42t66 22t68 5.5q119 0 197 -74v-484q0 -36 20 -53.5t50 -17.5q16 0 28 4z" />
    <glyph glyph-name=".notdef" horiz-adv-x="1187" 
d="M594 -95q-187 0 -315.5 130t-128.5 315t128.5 315t315.5 130q186 0 314.5 -130t128.5 -315t-128.5 -315t-314.5 -130zM593 -1q144 0 243.5 101t99.5 250t-99.5 250t-243.5 101q-143 0 -242.5 -101t-99.5 -250t99.5 -250t242.5 -101zM458 144l-71 71l136 136l-136 135
l71 72l136 -136l136 136l71 -72l-136 -135l136 -136l-71 -71l-136 136z" />
    <glyph glyph-name=".null" 
 />
    <glyph glyph-name="nonmarkingreturn" horiz-adv-x="333" 
 />
    <glyph glyph-name="space" unicode=" " horiz-adv-x="266" 
 />
    <glyph glyph-name="exclam" unicode="!" horiz-adv-x="221" 
d="M37 214v486h147v-486h-147zM111 -11q-33 0 -57 23.5t-24 57.5q0 31 24 54t57 23q32 0 56 -23t24 -54q0 -34 -23.5 -57.5t-56.5 -23.5z" />
    <glyph glyph-name="quotedbl" unicode="&#x22;" horiz-adv-x="337" 
d="M40 452l-10 248h122l-13 -248h-99zM195 452l-10 248h122l-12 -248h-100z" />
    <glyph glyph-name="numbersign" unicode="#" horiz-adv-x="863" 
d="M129 -85l43 159h-142l38 137h141l37 137h-144l39 138l142 1l44 162h130l-43 -162h148l43 162h130l-43 -162h141l-40 -138h-139l-37 -137h143l-38 -137l-141 -1l-44 -159h-130l43 159h-148l-43 -159h-130zM339 211l148 1l37 137l-148 -1z" />
    <glyph glyph-name="dollar" unicode="$" horiz-adv-x="631" 
d="M590 202q0 -90 -68.5 -146.5t-173.5 -64.5v-60h-58v60q-92 7 -156.5 54t-92.5 124l141 39q30 -78 108 -90v181q-230 47 -230 200q0 88 66 145.5t164 64.5v60h58v-61q84 -8 141.5 -53t79.5 -116l-133 -39q-22 72 -88 85v-179l23 -6q49 -13 81.5 -25.5t67.5 -35t52.5 -56.5
t17.5 -81zM200 498q0 -30 23 -47.5t67 -30.5v166q-40 -8 -65 -32.5t-25 -55.5zM348 118q45 5 71.5 27.5t26.5 60.5q0 32 -24.5 50t-73.5 30v-168z" />
    <glyph glyph-name="percent" unicode="%" horiz-adv-x="842" 
d="M200 -20l339 740h101l-339 -740h-101zM213 347q-74 0 -118.5 50t-44.5 127t44.5 126.5t118.5 49.5q73 0 117.5 -50t44.5 -126q0 -77 -44.5 -127t-117.5 -50zM213 442q34 0 53.5 23t19.5 59t-19.5 59t-53.5 23t-54 -23t-20 -59t20 -59t54 -23zM629 0q-74 0 -118 50
t-44 127t44 126.5t118 49.5t118.5 -50t44.5 -126q0 -77 -44.5 -127t-118.5 -50zM629 95q34 0 54 23t20 59t-20 59t-54 23t-53.5 -23t-19.5 -59t19.5 -59t53.5 -23z" />
    <glyph glyph-name="ampersand" unicode="&#x26;" horiz-adv-x="690" 
d="M264 -38q-100 0 -172 52.5t-72 143.5q0 67 40 116t113 100q-87 103 -87 179q0 68 53 118.5t142 50.5q87 0 137.5 -49.5t50.5 -114.5q0 -57 -30.5 -104.5t-93.5 -97.5l112 -121q26 40 35 77l152 -2q-33 -103 -90 -185l112 -125h-154l-36 39q-86 -77 -212 -77zM277 440
q70 64 70 108q0 27 -17 45t-49 18q-28 0 -47.5 -19t-19.5 -46q0 -35 63 -106zM271 93q69 0 113 48l-132 143q-26 -20 -40.5 -33t-28 -34t-13.5 -43q0 -36 29 -58.5t72 -22.5z" />
    <glyph glyph-name="quotesingle" unicode="'" horiz-adv-x="182" 
d="M40 452l-10 248h122l-13 -248h-99z" />
    <glyph glyph-name="parenleft" unicode="(" horiz-adv-x="297" 
d="M123 -93q-68 186 -68 437q0 250 68 449h144q-69 -202 -69 -450q0 -247 69 -436h-144z" />
    <glyph glyph-name="parenright" unicode=")" horiz-adv-x="297" 
d="M30 -93q68 186 68 436q0 251 -68 450h144q68 -199 68 -449q0 -251 -68 -437h-144z" />
    <glyph glyph-name="asterisk" unicode="*" horiz-adv-x="362" 
d="M134 405l-59 34l57 84l-99 -6v69l101 -6l-56 84l60 34l43 -91l46 90l59 -34l-56 -84l99 8v-69l-97 5l52 -83l-60 -34l-42 89z" />
    <glyph glyph-name="plus" unicode="+" horiz-adv-x="473" 
d="M176 141v135h-136v123h136v135h122v-135h135v-123h-135v-135h-122z" />
    <glyph glyph-name="comma" unicode="," horiz-adv-x="205" 
d="M7 -166l47 228h130l-56 -228h-121z" />
    <glyph glyph-name="hyphen" unicode="-" horiz-adv-x="433" 
d="M30 208v129h373v-129h-373z" />
    <glyph glyph-name="period" unicode="." horiz-adv-x="221" 
d="M111 -11q-33 0 -57 23.5t-24 57.5q0 31 24 54t57 23q32 0 56 -23t24 -54q0 -34 -23.5 -57.5t-56.5 -23.5z" />
    <glyph glyph-name="slash" unicode="/" horiz-adv-x="432" 
d="M30 -80l260 910h112l-260 -910h-112z" />
    <glyph glyph-name="zero" unicode="0" horiz-adv-x="639" 
d="M321 0q-132 0 -208 96t-76 254t76 254t208 96q131 0 206.5 -96t75.5 -254q0 -157 -76 -253.5t-206 -96.5zM321 140q67 0 102.5 56t35.5 154t-35.5 154t-102.5 56q-68 0 -104 -56t-36 -154t35.5 -154t104.5 -56z" />
    <glyph glyph-name="one" unicode="1" horiz-adv-x="358" 
d="M136 0v507q-43 -34 -117 -32v129q47 0 80.5 23.5t36.5 72.5h148v-700h-148z" />
    <glyph glyph-name="two" unicode="2" horiz-adv-x="553" 
d="M23 0v115l211 184q54 46 78.5 70t41.5 53.5t17 61.5q0 44 -26.5 70.5t-67.5 26.5t-70 -25.5t-33 -69.5l-142 18q14 98 82 154.5t166 56.5q101 0 166.5 -58.5t65.5 -159.5q0 -75 -40.5 -135t-121.5 -129l-118 -107h287v-125z" />
    <glyph glyph-name="three" unicode="3" horiz-adv-x="570" 
d="M278 -14q-106 0 -175.5 54.5t-80.5 141.5l146 20q4 -39 34.5 -62.5t74.5 -23.5q46 0 76.5 26t30.5 70q0 42 -29.5 69t-95.5 27h-22v103h22q58 0 84 26t26 64t-25 61.5t-64 23.5q-38 0 -63 -20t-32 -54l-144 18q11 78 78 131.5t160 53.5q105 0 170.5 -57t65.5 -140
q0 -57 -29.5 -97t-80.5 -54q58 -12 94 -55.5t36 -105.5q0 -97 -71 -158.5t-186 -61.5z" />
    <glyph glyph-name="four" unicode="4" horiz-adv-x="606" 
d="M361 0v141h-339v118l164 441h145l-165 -441h195v260h140v-260h84v-118h-84v-141h-140z" />
    <glyph glyph-name="five" unicode="5" horiz-adv-x="559" 
d="M277 -15q-92 -1 -163 51.5t-90 133.5l139 39q6 -41 37.5 -67t76.5 -26q48 0 79 30.5t31 77.5t-31 76t-76 29q-70 0 -102 -54l-127 59l24 366h401v-129h-282l-9 -149q46 28 115 28q95 0 162.5 -62.5t67.5 -163.5q0 -108 -70.5 -173t-182.5 -66z" />
    <glyph glyph-name="six" unicode="6" horiz-adv-x="555" 
d="M277 -15q-113 0 -183 67.5t-70 177.5q0 111 64.5 242t148.5 228h157q-126 -148 -184 -294q39 28 95 28q97 1 162 -58t65 -153q0 -105 -72 -171.5t-183 -66.5zM277 116q48 0 80.5 30.5t32.5 76.5t-32.5 75.5t-80.5 29.5t-80 -29.5t-32 -75.5t32.5 -76.5t79.5 -30.5z" />
    <glyph glyph-name="seven" unicode="7" horiz-adv-x="527" 
d="M104 0l249 571h-332v129h480v-129l-247 -571h-150z" />
    <glyph glyph-name="eight" unicode="8" horiz-adv-x="572" 
d="M286 -14q-114 0 -185.5 60.5t-71.5 151.5q0 63 35.5 108t94.5 61q-51 18 -80.5 57.5t-29.5 93.5q0 83 65.5 140t171.5 57t171.5 -57t65.5 -140q0 -54 -29.5 -93.5t-80.5 -57.5q59 -16 94.5 -61t35.5 -108q0 -91 -71.5 -151.5t-185.5 -60.5zM286 417q42 0 68 22.5t26 60.5
t-26.5 62t-67.5 24t-67.5 -24t-26.5 -62t26 -60.5t68 -22.5zM286 116q46 0 76.5 25.5t30.5 70.5q0 43 -29.5 67.5t-77.5 24.5q-47 0 -77 -24.5t-30 -67.5q0 -44 30.5 -70t76.5 -26z" />
    <glyph glyph-name="nine" unicode="9" horiz-adv-x="569" 
d="M168 0q134 160 180 273q-36 -28 -93 -30q-97 0 -161 62t-64 157q0 105 72 171.5t183 66.5q112 0 182.5 -67.5t70.5 -177.5q0 -111 -63 -232t-150 -223h-157zM284 357q48 0 80 29.5t32 75.5t-32 76.5t-80 30.5t-80 -30.5t-32 -76.5t32 -75.5t80 -29.5z" />
    <glyph glyph-name="colon" unicode=":" horiz-adv-x="210" 
d="M105 369q-31 0 -53 22t-22 53q0 29 22 50.5t53 21.5t53 -21.5t22 -50.5q0 -31 -22 -53t-53 -22zM105 -6q-31 0 -53 22t-22 54q0 29 22 50t53 21t53 -21t22 -50q0 -32 -22 -54t-53 -22z" />
    <glyph glyph-name="semicolon" unicode=";" horiz-adv-x="223" 
d="M119 369q-31 0 -53 22t-22 53q0 29 22 50.5t53 21.5q30 0 52 -21.5t22 -50.5q0 -31 -22 -53t-52 -22zM9 -166l47 228h130l-56 -228h-121z" />
    <glyph glyph-name="less" unicode="&#x3c;" horiz-adv-x="493" 
d="M443 131l-333 156v97l333 154v-112l-205 -91l205 -92v-112z" />
    <glyph glyph-name="equal" unicode="=" horiz-adv-x="560" 
d="M46 373v93h469v-93h-469zM46 210v94h469v-94h-469z" />
    <glyph glyph-name="greater" unicode="&#x3e;" horiz-adv-x="433" 
d="M50 131v112l206 92l-206 91v112l333 -154v-97z" />
    <glyph glyph-name="question" unicode="?" horiz-adv-x="603" 
d="M233 204q0 53 18 92t43.5 60.5t50.5 39.5t43 42.5t18 56.5q0 34 -30.5 60.5t-76.5 26.5q-85 0 -115 -74l-134 39q27 73 92.5 118.5t156.5 45.5q107 0 180.5 -60t73.5 -152q0 -46 -20 -80.5t-48 -56t-56 -41.5t-48 -49t-20 -68h-128zM297 -11q-33 0 -57 23.5t-24 57.5
q0 31 24 54t57 23q32 0 56 -23t24 -54q0 -34 -23.5 -57.5t-56.5 -23.5z" />
    <glyph glyph-name="at" unicode="@" horiz-adv-x="895" 
d="M479 625q175 0 287 -116t96 -291q-11 -119 -78 -195q-30 -34 -80.5 -44t-98.5 13.5t-66 76.5q-62 -54 -143 -54q-82 0 -131.5 59t-41.5 144q7 89 66.5 146.5t141.5 57.5q66 0 119 -47l4 43h105l-24 -266q-3 -33 11.5 -50t31.5 -14.5t30 10.5q40 36 47 120q11 136 -68 220
t-217 84q-133 0 -225.5 -85t-103.5 -219q-12 -134 65 -218.5t211 -84.5q67 0 137 32l39 -94q-90 -42 -185 -42q-176 0 -282.5 118t-92.5 289t140.5 289t305.5 118zM420 105q44 0 77 32t39 78v7q3 46 -24 78t-71 32q-46 0 -79 -33t-37 -81t23 -80.5t72 -32.5z" />
    <glyph glyph-name="A" unicode="A" horiz-adv-x="738" 
d="M8 0l282 700h155l285 -700h-162l-45 115h-309l-44 -115h-162zM261 249h215l-107 282h-2z" />
    <glyph glyph-name="B" unicode="B" horiz-adv-x="618" 
d="M504 360q91 -51 91 -159q0 -93 -66 -147t-170 -54h-298v700h281q105 0 169.5 -53.5t64.5 -146.5q0 -90 -72 -140zM206 574v-166h136q39 0 65 19.5t26 63.5t-26 63.5t-65 19.5h-136zM355 126q39 0 67 20.5t28 64.5q0 43 -28 63.5t-67 20.5h-149v-169h149z" />
    <glyph glyph-name="C" unicode="C" horiz-adv-x="727" 
d="M388 -10q-150 0 -253.5 105t-103.5 255t103.5 255t253.5 105q101 0 184 -51t128 -136l-132 -68q-27 48 -75 77t-106 29q-87 0 -147 -61.5t-60 -149.5t60 -149.5t147 -61.5q59 0 107.5 29.5t74.5 79.5l133 -68q-45 -86 -128.5 -138t-185.5 -52z" />
    <glyph glyph-name="D" unicode="D" horiz-adv-x="716" 
d="M61 0v700l271 1q95 0 174 -39.5t129 -120.5t50 -190q0 -82 -29 -149.5t-77.5 -111t-112 -67t-134.5 -23.5h-271zM208 144h118q93 0 152.5 52.5t59.5 154.5t-59.5 154t-152.5 52l-118 -1v-412z" />
    <glyph glyph-name="E" unicode="E" horiz-adv-x="589" 
d="M61 0v700h494v-131h-347v-154h340v-127h-340v-157h347v-131h-494z" />
    <glyph glyph-name="F" unicode="F" horiz-adv-x="589" 
d="M61 0v700h494v-131h-347v-162h340v-129h-340v-278h-147z" />
    <glyph glyph-name="G" unicode="G" horiz-adv-x="749" 
d="M434 383h286v-164q-31 -109 -121 -169t-211 -60q-152 0 -254.5 105t-102.5 255t103.5 255t253.5 105q211 0 308 -170l-135 -72q-60 96 -174 96q-91 0 -150 -62t-59 -152q0 -95 60 -157.5t153 -62.5q130 0 180 94v50h-137v109z" />
    <glyph glyph-name="H" unicode="H" horiz-adv-x="731" 
d="M61 0v700h147v-281h316v281h147v-700h-147v279h-316v-279h-147z" />
    <glyph glyph-name="I" unicode="I" horiz-adv-x="268" 
d="M61 0v700h147v-700h-147z" />
    <glyph glyph-name="J" unicode="J" horiz-adv-x="551" 
d="M187 -10q-91 0 -161 41l71 127q38 -24 90 -24q80 0 118 48.5t38 132.5v385h148v-414q0 -140 -85 -218t-219 -78z" />
    <glyph glyph-name="K" unicode="K" horiz-adv-x="706" 
d="M61 0v700h147v-280h101l199 280h180l-249 -348l261 -352h-184l-205 280h-103v-280h-147z" />
    <glyph glyph-name="L" unicode="L" horiz-adv-x="566" 
d="M61 0v700h147v-564h344v-136h-491z" />
    <glyph glyph-name="M" unicode="M" horiz-adv-x="906" 
d="M61 0v700h168l224 -412l224 412h168v-700h-147v449l-189 -336h-113l-188 335v-448h-147z" />
    <glyph glyph-name="N" unicode="N" horiz-adv-x="738" 
d="M61 0v700h165l305 -464v464h147v-700h-166l-304 463v-463h-147z" />
    <glyph glyph-name="O" unicode="O" horiz-adv-x="775" 
d="M388 -10q-150 0 -253.5 105t-103.5 255t103.5 255t253.5 105q149 0 252.5 -105t103.5 -255t-103.5 -255t-252.5 -105zM387 134q89 0 149.5 62.5t60.5 153.5t-60.5 153.5t-149.5 62.5q-88 0 -148.5 -62.5t-60.5 -153.5t60.5 -153.5t148.5 -62.5z" />
    <glyph glyph-name="P" unicode="P" horiz-adv-x="613" 
d="M61 0v700h292q99 0 168 -62t69 -168q0 -107 -69 -169t-168 -62h-147v-239h-145zM206 365h137q47 0 76 29t29 76q0 46 -29 75t-76 29h-137v-209z" />
    <glyph glyph-name="Q" unicode="Q" horiz-adv-x="775" 
d="M444 -6q126 -30 292 -8v-133q-191 12 -349 73.5t-254 169.5q-102 105 -102 254q0 150 103.5 255t253.5 105q149 0 252.5 -105t103.5 -255q0 -135 -85 -235.5t-215 -120.5zM387 561q-87 0 -147 -61.5t-60 -149.5t60 -149.5t147 -61.5q88 0 148 61.5t60 149.5t-60 149.5
t-148 61.5z" />
    <glyph glyph-name="R" unicode="R" horiz-adv-x="631" 
d="M618 0h-161l-120 245h-131v-245h-145v700h304q98 0 167.5 -61.5t69.5 -166.5q0 -72 -35 -124.5t-93 -79.5zM206 571v-200h144q47 0 76 27.5t29 71.5q0 45 -29 73t-76 28h-144z" />
    <glyph glyph-name="S" unicode="S" horiz-adv-x="575" 
d="M292 -11q-101 0 -173.5 48.5t-98.5 133.5l142 40q13 -41 48.5 -64.5t82.5 -23.5q49 0 79 22t30 57q0 13 -4 23t-14 18.5t-18 13.5t-26 11t-27.5 8.5t-33 8.5t-32.5 8q-36 9 -62 18t-57.5 26t-51.5 37.5t-33.5 53t-13.5 72.5q0 91 73 151.5t180 60.5q96 0 160 -45.5
t90 -129.5l-134 -39q-27 83 -113 83q-48 0 -76.5 -24t-28.5 -57q0 -10 2.5 -18t8 -15t11 -12.5t16 -11t17.5 -8.5t22 -7.5t22.5 -7t25 -7t24.5 -6.5q31 -9 43 -12t42 -14t44 -19.5t36.5 -24.5t33 -33.5t19 -43t8.5 -54.5q0 -97 -75.5 -157t-187.5 -60z" />
    <glyph glyph-name="T" unicode="T" horiz-adv-x="629" 
d="M241 0v571h-227v129h601v-129h-227v-571h-147z" />
    <glyph glyph-name="U" unicode="U" horiz-adv-x="705" 
d="M353 -10q-128 0 -215.5 80.5t-87.5 212.5v417h147v-388q0 -78 41 -130t115 -52q73 0 114 52t41 130v388h147v-417q0 -132 -87 -212.5t-215 -80.5z" />
    <glyph glyph-name="V" unicode="V" horiz-adv-x="703" 
d="M264 0l-256 700h159l185 -523l184 523h159l-256 -700h-175z" />
    <glyph glyph-name="W" unicode="W" horiz-adv-x="1037" 
d="M208 0l-198 700h158l130 -505l151 505h139l151 -505l130 505h158l-198 -700h-169l-141 452l-142 -452h-169z" />
    <glyph glyph-name="X" unicode="X" horiz-adv-x="663" 
d="M11 0l225 350l-218 350h174l139 -239l140 239h174l-218 -350l225 -350h-174l-146 239l-147 -239h-174z" />
    <glyph glyph-name="Y" unicode="Y" horiz-adv-x="663" 
d="M258 0v278l-250 422h171l153 -282l152 282h171l-250 -422v-278h-147z" />
    <glyph glyph-name="Z" unicode="Z" horiz-adv-x="585" 
d="M34 0v127l335 440h-335v133h513v-127l-335 -440h350v-133h-528z" />
    <glyph glyph-name="bracketleft" unicode="[" horiz-adv-x="316" 
d="M51 -93v886h235v-115h-102v-656h102v-115h-235z" />
    <glyph glyph-name="backslash" unicode="\" horiz-adv-x="432" 
d="M392 -80h-112l-260 910h112z" />
    <glyph glyph-name="bracketright" unicode="]" horiz-adv-x="316" 
d="M30 -93v115h102v656h-102v115h235v-886h-235z" />
    <glyph glyph-name="asciicircum" unicode="^" horiz-adv-x="467" 
d="M30 488l161 312h83l163 -312h-112l-92 177l-91 -177h-112z" />
    <glyph glyph-name="underscore" unicode="_" horiz-adv-x="609" 
d="M44 -111v111h520v-111h-520z" />
    <glyph glyph-name="grave" unicode="`" horiz-adv-x="168" 
d="M89 579l-96 143h111l78 -143h-93z" />
    <glyph glyph-name="a" unicode="a" horiz-adv-x="609" 
d="M256 -9q-99 0 -165 74t-66 183t66 182.5t165 73.5q103 0 163 -71v62h140v-495h-140v62q-61 -71 -163 -71zM291 114q54 0 91 38.5t37 95.5t-37 95.5t-91 38.5t-90.5 -38t-36.5 -96t36.5 -96t90.5 -38z" />
    <glyph glyph-name="b" unicode="b" horiz-adv-x="609" 
d="M353 -9q-100 0 -163 72v-63h-140v750h140v-318q62 72 163 72q99 0 165 -73.5t66 -182.5t-66 -183t-165 -74zM318 114q54 0 90 38t36 96t-36 96t-90 38t-91 -38.5t-37 -95.5t37 -95.5t91 -38.5z" />
    <glyph glyph-name="c" unicode="c" horiz-adv-x="514" 
d="M287 -14q-110 0 -188.5 76.5t-78.5 185.5t78.5 186.5t188.5 77.5q64 0 121 -29t94 -79l-114 -83q-36 55 -101 57q-57 1 -93.5 -36.5t-36.5 -94.5q0 -56 36.5 -92.5t93.5 -37.5q32 -1 59 15t43 43l112 -82q-37 -50 -93 -78.5t-121 -28.5z" />
    <glyph glyph-name="d" unicode="d" horiz-adv-x="609" 
d="M256 -9q-99 0 -165 74t-66 183t66 182.5t165 73.5q104 0 163 -72v318h140v-750h-140v63q-59 -72 -163 -72zM291 114q54 0 91 38.5t37 95.5t-37 95.5t-91 38.5t-90 -38t-36 -96t36 -96t90 -38z" />
    <glyph glyph-name="e" unicode="e" horiz-adv-x="557" 
d="M286 511q110 0 179.5 -69.5t70.5 -191.5q0 -26 -1 -41h-380q10 -52 46 -80t85 -28q82 0 126 57l85 -71q-34 -47 -91 -73.5t-119 -26.5q-112 0 -187 75.5t-75 184.5q0 113 74.5 188.5t186.5 75.5zM287 402q-48 0 -82.5 -27.5t-47.5 -75.5h253q-27 103 -123 103z" />
    <glyph glyph-name="f" unicode="f" horiz-adv-x="416" 
d="M120 0v373h-105v122h105v82q0 80 54 129.5t139 49.5q43 0 94 -14l-15 -127q-26 7 -48 7q-37 0 -60.5 -20t-23.5 -63v-44h138v-122h-138v-373h-140z" />
    <glyph glyph-name="g" unicode="g" horiz-adv-x="610" 
d="M275 -250q-75 -1 -140.5 31t-103.5 86l99 84q59 -76 146 -76q57 0 100.5 39t43.5 111v37q-56 -71 -161 -71q-100 0 -166.5 74t-66.5 183t66.5 182.5t166.5 73.5q101 0 161 -71v62h140v-461q0 -137 -82.5 -210.5t-202.5 -73.5zM292 114q54 0 91 38.5t37 95.5t-37 95.5
t-91 38.5t-90 -38t-36 -96t36 -96t90 -38z" />
    <glyph glyph-name="h" unicode="h" horiz-adv-x="594" 
d="M50 0v750h140v-313q54 64 147 64q97 0 155.5 -64t58.5 -180v-257h-140v246q0 66 -29.5 101t-78.5 35q-52 0 -82.5 -37t-30.5 -102v-243h-140z" />
    <glyph glyph-name="i" unicode="i" horiz-adv-x="235" 
d="M118 571q-32 0 -55.5 23t-23.5 56q0 31 23.5 53.5t55.5 22.5t55 -22.5t23 -53.5q0 -33 -23 -56t-55 -23zM49 0v495h137v-495h-137z" />
    <glyph glyph-name="j" unicode="j" horiz-adv-x="234" 
d="M116 572q-33 0 -56 22.5t-23 55.5q0 31 23.5 53.5t55.5 22.5t55 -22.5t23 -53.5q0 -33 -23 -55.5t-55 -22.5zM2 -249q-39 0 -80 10l16 127q12 -4 29 -4q33 0 56 19t23 59v533h140v-564q0 -86 -50 -133t-134 -47z" />
    <glyph glyph-name="k" unicode="k" horiz-adv-x="588" 
d="M50 0v750h140v-429h75l141 174h175l-202 -240l202 -255h-172l-144 188h-75v-188h-140z" />
    <glyph glyph-name="l" unicode="l" horiz-adv-x="313" 
d="M223 -2q-80 0 -126.5 46t-46.5 128v578h140v-552q0 -36 20 -53.5t50 -17.5q16 0 28 4l14 -122q-44 -11 -79 -11z" />
    <glyph glyph-name="m" unicode="m" horiz-adv-x="942" 
d="M50 0v495h140v-59q60 68 151 68q102 0 164 -86q71 86 181 86q98 0 155.5 -65t57.5 -182v-257h-140v245q0 68 -28.5 104t-76.5 36q-51 0 -80 -37.5t-29 -102.5v-245h-140v245q0 67 -29 103.5t-76 36.5q-50 0 -80 -38.5t-30 -105.5v-241h-140z" />
    <glyph glyph-name="n" unicode="n" horiz-adv-x="594" 
d="M50 0v495h140v-59q58 68 147 68q97 0 155.5 -65t58.5 -182v-257h-140v245q0 67 -29.5 103t-78.5 36q-52 0 -82.5 -38t-30.5 -104v-242h-140z" />
    <glyph glyph-name="o" unicode="o" horiz-adv-x="596" 
d="M298 -14q-110 0 -188.5 76.5t-78.5 185.5t78.5 186.5t188.5 77.5t188.5 -77.5t78.5 -186.5t-78.5 -185.5t-188.5 -76.5zM298 117q51 -1 86.5 36.5t35.5 93.5q0 57 -35.5 94.5t-86.5 36.5q-51 1 -86.5 -36.5t-35.5 -94.5q0 -56 35.5 -93.5t86.5 -36.5z" />
    <glyph glyph-name="p" unicode="p" horiz-adv-x="609" 
d="M50 -250v745h140v-63q62 72 163 72q99 0 165 -73.5t66 -183.5q0 -108 -66 -182t-165 -74q-100 0 -163 72v-313h-140zM318 114q54 0 90 38t36 95q0 58 -36 96.5t-90 38.5t-91 -38.5t-37 -96.5q0 -57 37 -95t91 -38z" />
    <glyph glyph-name="q" unicode="q" horiz-adv-x="609" 
d="M419 -250v313q-63 -72 -163 -72q-99 0 -165 74t-66 182q0 110 66 183.5t165 73.5q101 0 163 -72v63h140v-745h-140zM291 114q54 0 91 38t37 95q0 58 -37 96.5t-91 38.5t-90 -38.5t-36 -96.5q0 -57 36 -95t90 -38z" />
    <glyph glyph-name="r" unicode="r" horiz-adv-x="398" 
d="M50 0v495h140v-64q58 75 190 73v-148q-31 17 -72 17q-48 0 -83 -39t-35 -107v-227h-140z" />
    <glyph glyph-name="s" unicode="s" horiz-adv-x="491" 
d="M247 -18q-79 0 -141.5 37.5t-85.5 101.5l121 38q29 -65 108 -65q40 0 63 15.5t23 43.5q0 21 -21 31.5t-49.5 11.5t-70 6.5t-70.5 17.5q-85 38 -85 126q0 69 59 116t144 47q80 0 133.5 -37t70.5 -99l-119 -33q-7 29 -29 46.5t-55 17.5t-54.5 -16t-21.5 -39q0 -29 34 -39.5
t92 -16t89 -18.5q89 -37 89 -124q0 -76 -63 -122.5t-161 -46.5z" />
    <glyph glyph-name="t" unicode="t" horiz-adv-x="443" 
d="M310 -2q-85 0 -138 48.5t-53 128.5v198h-105v122h105v144h138v-144h138v-122h-138v-167q0 -80 85 -80q25 0 51 8l15 -120q-51 -16 -98 -16z" />
    <glyph glyph-name="u" unicode="u" horiz-adv-x="594" 
d="M257 -6q-97 0 -155.5 64t-58.5 180v257h140v-242q0 -67 29.5 -103t78.5 -36q53 0 83 37t30 105v239h140v-495h-138v60h-2q-54 -66 -147 -66z" />
    <glyph glyph-name="v" unicode="v" horiz-adv-x="568" 
d="M206 0l-198 495h148l128 -355l128 355h147l-197 -495h-156z" />
    <glyph glyph-name="w" unicode="w" horiz-adv-x="887" 
d="M181 0l-170 495h149l100 -338l111 338h146l110 -338l100 338h149l-170 -495h-160l-102 330l-103 -330h-160z" />
    <glyph glyph-name="x" unicode="x" horiz-adv-x="559" 
d="M10 0l183 252l-183 243h167l103 -151l102 151h167l-182 -243l182 -252h-167l-102 161l-104 -161h-166z" />
    <glyph glyph-name="y" unicode="y" horiz-adv-x="575" 
d="M54 -250l13 131q109 2 136 89l15 35l-208 490h149l130 -355l127 355h149l-238 -573q-38 -92 -104.5 -132t-168.5 -40z" />
    <glyph glyph-name="z" unicode="z" horiz-adv-x="556" 
d="M44 0v117l275 257h-262v121h452v-117l-275 -257h285v-121h-475z" />
    <glyph glyph-name="braceleft" unicode="{" horiz-adv-x="281" 
d="M245 685q-34 0 -43 -45.5t-3.5 -102t-2.5 -112.5t-39 -73q31 -17 39 -73.5t2.5 -114t3.5 -103.5t43 -46h6v-108h-15q-60 0 -94.5 29t-42.5 73t-9.5 94.5t2 94.5t-6 73t-35.5 29h-17v101h17q31 0 43 29t8.5 72.5t-3.5 94.5t6 94.5t39 72.5t93 29h15v-108h-6z" />
    <glyph glyph-name="bar" unicode="|" horiz-adv-x="222" 
d="M50 -200v1000h122v-1000h-122z" />
    <glyph glyph-name="braceright" unicode="}" horiz-adv-x="281" 
d="M230 401h18v-101h-17q-26 0 -35.5 -29t-6 -73t2 -94.5t-9.5 -94.5t-42.5 -73t-94.5 -29h-15v108h6q34 0 43 46t3.5 103.5t2.5 114t39 73.5q-31 17 -39 73t-2.5 112.5t-3.5 102t-43 45.5h-6v108h15q60 0 93 -29t39 -72.5t6 -94.5t-3.5 -94.5t8 -72.5t42.5 -29z" />
    <glyph glyph-name="asciitilde" unicode="~" horiz-adv-x="655" 
d="M119 200l-96 75q19 54 73 90t112 36q54 0 129 -29.5t100 -29.5q61 0 98 74l98 -78q-21 -54 -75.5 -89.5t-113.5 -35.5q-54 0 -124.5 29t-102.5 29q-64 0 -98 -71z" />
    <glyph glyph-name="uni00A0" unicode="&#xa0;" horiz-adv-x="266" 
 />
    <glyph glyph-name="exclamdown" unicode="&#xa1;" horiz-adv-x="221" 
d="M111 352q-33 0 -57 23t-24 54q0 34 24 57.5t57 23.5t56.5 -23.5t23.5 -57.5q0 -31 -24 -54t-56 -23zM37 -201v486h147v-486h-147z" />
    <glyph glyph-name="cent" unicode="&#xa2;" horiz-adv-x="598" 
d="M278 -75v69q-94 13 -157.5 85t-63.5 169q0 98 63.5 170.5t157.5 85.5v82h68v-82q61 -7 111 -41.5t80 -87.5l-120 -67q-23 45 -71 53v-225q51 9 73 56l122 -62q-29 -56 -80.5 -92.5t-114.5 -43.5v-69h-68zM278 139v220q-36 -8 -59.5 -39t-23.5 -72q0 -40 23.5 -70.5
t59.5 -38.5z" />
    <glyph glyph-name="sterling" unicode="&#xa3;" horiz-adv-x="554" 
d="M29 0v122q83 78 88 166h-71v93h63q-8 49 -16 108q-10 92 46.5 158t155.5 67q73 1 124.5 -36t71.5 -96l-118 -58q-7 26 -27.5 43t-49.5 17q-38 0 -58 -27.5t-15 -71.5l12 -104h204v-93h-210q-8 -96 -74 -166h366v-122h-492z" />
    <glyph glyph-name="currency" unicode="&#xa4;" horiz-adv-x="604" 
d="M112 115l-72 73l72 71q-35 53 -35 118.5t35 118.5l-72 72l72 71l71 -71q53 35 119 35t119 -35l71 71l72 -70l-71 -72q35 -54 35 -119.5t-35 -118.5l71 -71l-71 -73l-72 72q-53 -35 -119 -35t-119 35zM220 295q34 -34 82 -34t83 34q34 35 34 82.5t-34 82.5q-35 34 -83 34
t-82 -34t-34 -82t34 -83z" />
    <glyph glyph-name="yen" unicode="&#xa5;" horiz-adv-x="700" 
d="M274 0v156h-140v65h140v47h-140v65h110l-211 367h170l147 -264l148 264h169l-211 -367h106v-65h-141v-47h141v-65h-141v-156h-147z" />
    <glyph glyph-name="brokenbar" unicode="&#xa6;" horiz-adv-x="222" 
d="M50 386v414h122v-414h-122zM50 -200v414h122v-414h-122z" />
    <glyph glyph-name="section" unicode="&#xa7;" horiz-adv-x="317" 
d="M224 243l-73 52q51 48 43 92q-5 27 -47.5 77.5t-53.5 90.5q-15 42 3 90t57 76l77 -50q-46 -48 -36 -91q4 -21 45.5 -73.5t50.5 -93.5q12 -44 -8.5 -93t-57.5 -77zM162 -22l-76 51q49 46 39 90q-5 23 -25 48.5t-42 55t-30 62.5q-12 45 8 95t57 79l76 -52q-56 -54 -47 -97
q4 -22 47.5 -73.5t55.5 -92.5q14 -42 -5 -90t-58 -76z" />
    <glyph glyph-name="dieresis" unicode="&#xa8;" horiz-adv-x="279" 
d="M60 591q-25 0 -42.5 17.5t-17.5 42.5q0 23 17.5 40.5t42.5 17.5q24 0 41.5 -17.5t17.5 -40.5q0 -25 -17 -42.5t-42 -17.5zM243 591q-25 0 -43 17.5t-18 42.5q0 24 18 41t43 17q24 0 41.5 -17t17.5 -41q0 -25 -17.5 -42.5t-41.5 -17.5z" />
    <glyph glyph-name="copyright" unicode="&#xa9;" horiz-adv-x="713" 
d="M356 -78q-136 0 -231 95t-95 231t95 231t231 95q139 0 233 -94t94 -232q0 -136 -95.5 -231t-231.5 -95zM356 20q95 0 162 66.5t67 161.5t-67 161.5t-162 66.5t-161.5 -66.5t-66.5 -161.5t66.5 -161.5t161.5 -66.5zM351 62q-75 0 -129 54t-54 130q0 77 54 131t129 54
q51 0 94 -25.5t67 -68.5l-79 -44q-25 49 -82 49q-38 0 -65.5 -28t-27.5 -68t27.5 -67.5t65.5 -27.5q58 0 83 52l80 -42q-23 -45 -66.5 -72t-96.5 -27z" />
    <glyph glyph-name="ordfeminine" unicode="&#xaa;" horiz-adv-x="609" 
d="M256 -9q-99 0 -165 74t-66 183t66 182.5t165 73.5q103 0 163 -71v62h140v-495h-140v62q-61 -71 -163 -71zM291 114q54 0 91 38.5t37 95.5t-37 95.5t-91 38.5t-90.5 -38t-36.5 -96t36.5 -96t90.5 -38z" />
    <glyph glyph-name="guillemotleft" unicode="&#xab;" horiz-adv-x="508" 
d="M223 106l-183 175l183 175l69 -68l-114 -107l110 -104zM416 106l-183 175l183 175l69 -68l-114 -107l109 -104z" />
    <glyph glyph-name="logicalnot" unicode="&#xac;" horiz-adv-x="484" 
d="M327 172v108h-279v98h388v-206h-109z" />
    <glyph glyph-name="uni00AD" unicode="&#xad;" horiz-adv-x="433" 
d="M30 208v129h373v-129h-373z" />
    <glyph glyph-name="registered" unicode="&#xae;" horiz-adv-x="361" 
d="M181 499q-63 0 -107 44t-44 106q0 63 44 107t107 44q64 0 107 -43.5t43 -107.5q0 -63 -44 -106.5t-106 -43.5zM181 534q48 0 81.5 33t33.5 82q0 50 -33 83t-82 33t-82.5 -33t-33.5 -83q0 -48 34 -81.5t82 -33.5zM124 568v170h63q25 0 40.5 -15t15.5 -40q0 -37 -35 -50
l30 -65h-31l-27 62h-27v-62h-29zM153 656h32q31 0 31 27q0 28 -31 28h-32v-55z" />
    <glyph glyph-name="macron" unicode="&#xaf;" horiz-adv-x="241" 
d="M0 608v84h259v-84h-259z" />
    <glyph glyph-name="degree" unicode="&#xb0;" horiz-adv-x="235" 
d="M118 552q-41 0 -69.5 28.5t-28.5 69.5t28.5 69t69.5 28t69 -28t28 -69t-28 -69.5t-69 -28.5zM118 612q16 0 26.5 11t10.5 27q0 15 -10.5 26t-26.5 11t-27 -11t-11 -26q0 -16 11 -27t27 -11z" />
    <glyph glyph-name="plusminus" unicode="&#xb1;" horiz-adv-x="473" 
d="M176 239v135h-136v123h136v135h122v-135h135v-123h-135v-135h-122zM40 86v122h393v-122h-393z" />
    <glyph glyph-name="uni00B2" unicode="&#xb2;" horiz-adv-x="280" 
d="M14 395v57l105 93q40 34 54.5 51.5t14.5 40.5q0 22 -13 35.5t-34 13.5t-35.5 -13t-16.5 -35l-71 9q7 49 41.5 77.5t83.5 28.5q50 0 82.5 -29.5t32.5 -79.5q0 -38 -20 -68t-61 -64l-59 -53h144v-63z" />
    <glyph glyph-name="uni00B3" unicode="&#xb3;" horiz-adv-x="288" 
d="M140 388q-52 0 -87 27.5t-41 70.5l74 10q2 -19 17 -31t37 -12q23 0 38.5 13t15.5 36q0 47 -63 47h-11v52h11q55 0 55 45q0 19 -12.5 31t-31.5 12q-40 0 -48 -38l-72 10q5 39 38.5 65.5t80.5 26.5q53 0 85.5 -28.5t32.5 -70.5q0 -60 -55 -75q29 -6 47 -28t18 -53
q0 -48 -35.5 -79t-93.5 -31z" />
    <glyph glyph-name="acute" unicode="&#xb4;" horiz-adv-x="158" 
d="M0 579l69 143h110l-85 -143h-94z" />
    <glyph glyph-name="uni00B5" unicode="&#xb5;" horiz-adv-x="647" 
d="M44 -250l-1 745h140v-241q0 -67 29.5 -103.5t78.5 -36.5q54 0 83.5 36t29.5 104v241h140v-262q0 -74 23.5 -97.5t72.5 -20.5v-116q-14 -1 -37 -1q-128 0 -166 92q-19 -46 -59 -70.5t-93 -24.5q-76 0 -111 54v-299h-130z" />
    <glyph glyph-name="paragraph" unicode="&#xb6;" horiz-adv-x="600" 
d="M254 -200v448q-101 1 -159.5 63.5t-58.5 163.5q0 105 60.5 165t157.5 60h313v-900h-115v789h-83v-789h-115z" />
    <glyph glyph-name="periodcentered" unicode="&#xb7;" horiz-adv-x="221" 
d="M111 189q-33 0 -57 23.5t-24 57.5q0 31 24 54t57 23q32 0 56 -23t24 -54q0 -34 -23.5 -57.5t-56.5 -23.5z" />
    <glyph glyph-name="cedilla" unicode="&#xb8;" horiz-adv-x="180" 
d="M104 -207q-33 0 -60.5 15.5t-39.5 40.5l43 30q19 -31 55 -30q22 1 34 12.5t12 28.5q0 25 -29 35.5t-66 -0.5l19 89h58l-10 -40q41 2 68 -21t27 -63q0 -42 -31 -70.5t-80 -26.5z" />
    <glyph glyph-name="uni00B9" unicode="&#xb9;" horiz-adv-x="188" 
d="M74 395v254q-24 -18 -55 -16v64q21 0 37 12t18 36h74v-350h-74z" />
    <glyph glyph-name="ordmasculine" unicode="&#xba;" horiz-adv-x="596" 
d="M298 -14q-110 0 -188.5 76.5t-78.5 185.5t78.5 186.5t188.5 77.5t188.5 -77.5t78.5 -186.5t-78.5 -185.5t-188.5 -76.5zM298 117q51 -1 86.5 36.5t35.5 93.5q0 57 -35.5 94.5t-86.5 36.5q-51 1 -86.5 -36.5t-35.5 -94.5q0 -56 35.5 -93.5t86.5 -36.5z" />
    <glyph glyph-name="guillemotright" unicode="&#xbb;" horiz-adv-x="508" 
d="M91 106l-64 71l110 104l-114 107l69 68l183 -175zM284 106l-64 71l110 104l-114 107l69 68l183 -175z" />
    <glyph glyph-name="onequarter" unicode="&#xbc;" horiz-adv-x="717" 
d="M11 -80l548 910h73l-548 -910h-73zM74 355v254q-24 -18 -55 -16v64q21 0 37 12t18 36h74v-350h-74zM598 -5v62h-173v60l85 228h73l-85 -228h100v137h70v-137h39v-60h-39v-62h-70z" />
    <glyph glyph-name="onehalf" unicode="&#xbd;" horiz-adv-x="705" 
d="M11 -80l548 910h73l-548 -910h-73zM74 355v254q-24 -18 -55 -16v64q21 0 37 12t18 36h74v-350h-74zM440 -5v57l105 93q40 34 54.5 51.5t14.5 40.5q0 22 -13 35.5t-34 13.5t-35.5 -13t-16.5 -35l-71 9q7 49 41.5 77.5t83.5 28.5q50 0 82.5 -29.5t32.5 -79.5q0 -38 -20 -68
t-61 -64l-59 -53h144v-63z" />
    <glyph glyph-name="threequarters" unicode="&#xbe;" horiz-adv-x="797" 
d="M91 -80l548 910h73l-548 -910h-73zM140 348q-52 0 -87 27.5t-41 70.5l74 10q2 -19 17 -31t37 -12q23 0 38.5 13t15.5 36q0 47 -63 47h-11v52h11q55 0 55 45q0 19 -12.5 31t-31.5 12q-40 0 -48 -38l-72 10q5 39 38.5 65.5t80.5 26.5q53 0 85.5 -28.5t32.5 -70.5
q0 -60 -55 -75q29 -6 47 -28t18 -53q0 -48 -35.5 -79t-93.5 -31zM678 -5v62h-173v60l85 228h73l-85 -228h100v137h70v-137h39v-60h-39v-62h-70z" />
    <glyph glyph-name="questiondown" unicode="&#xbf;" horiz-adv-x="563" 
d="M303 366q-32 0 -56 23t-24 54q0 34 23.5 57.5t56.5 23.5t57 -23.5t24 -57.5q0 -31 -24 -54t-57 -23zM284 -198q-107 0 -180.5 60t-73.5 152q0 48 20.5 84.5t50 59t58.5 42.5t49.5 47t20.5 62h147q0 -49 -14.5 -85.5t-37 -55.5t-48 -36.5t-48 -29.5t-37 -33.5t-14.5 -50.5
q0 -34 31 -60.5t80 -26.5q42 0 70.5 20t41.5 53l133 -38q-24 -73 -89.5 -118.5t-159.5 -45.5z" />
    <glyph glyph-name="Agrave" unicode="&#xc0;" horiz-adv-x="738" 
d="M321 784l-96 143h111l78 -143h-93zM8 0l282 700h155l285 -700h-162l-45 115h-309l-44 -115h-162zM261 249h215l-107 282h-2z" />
    <glyph glyph-name="Aacute" unicode="&#xc1;" horiz-adv-x="738" 
d="M323 784l69 143h110l-85 -143h-94zM8 0l282 700h155l285 -700h-162l-45 115h-309l-44 -115h-162zM261 249h215l-107 282h-2z" />
    <glyph glyph-name="Acircumflex" unicode="&#xc2;" horiz-adv-x="738" 
d="M210 785l105 140h102l106 -140h-100l-56 78l-57 -78h-100zM8 0l282 700h155l285 -700h-162l-45 115h-309l-44 -115h-162zM261 249h215l-107 282h-2z" />
    <glyph glyph-name="Atilde" unicode="&#xc3;" horiz-adv-x="738" 
d="M311 803q-59 0 -86 43l43 55q17 -23 46 -23q20 0 52 15t56 15q50 0 86 -45l-40 -53q-20 23 -51 23q-18 0 -50.5 -15t-55.5 -15zM8 0l282 700h155l285 -700h-162l-45 115h-309l-44 -115h-162zM261 249h215l-107 282h-2z" />
    <glyph glyph-name="Adieresis" unicode="&#xc4;" horiz-adv-x="738" 
d="M276 796q-25 0 -42.5 17.5t-17.5 42.5q0 23 17.5 40.5t42.5 17.5q24 0 41.5 -17t17.5 -41q0 -25 -17 -42.5t-42 -17.5zM459 796q-25 0 -43 17.5t-18 42.5q0 24 18 41t43 17q24 0 41.5 -17t17.5 -41q0 -25 -17.5 -42.5t-41.5 -17.5zM8 0l282 700h155l285 -700h-162
l-45 115h-309l-44 -115h-162zM261 249h215l-107 282h-2z" />
    <glyph glyph-name="Aring" unicode="&#xc5;" horiz-adv-x="738" 
d="M367 776q-33 0 -56 23.5t-23 56.5q0 32 23 55t56 23q32 0 55 -23t23 -55q0 -33 -23 -56.5t-55 -23.5zM367 826q12 0 20 8.5t8 20.5t-8 20.5t-20 8.5t-20.5 -8.5t-8.5 -20.5q0 -11 8.5 -20t20.5 -9zM8 0l282 700h155l285 -700h-162l-45 115h-309l-44 -115h-162zM261 249
h215l-107 282h-2z" />
    <glyph glyph-name="AE" unicode="&#xc6;" horiz-adv-x="1000" 
d="M8 0l372 700h587v-131h-348v-154h334v-127h-334v-157h348v-131h-495v123h-229l-66 -123h-169zM310 257h162v304z" />
    <glyph glyph-name="Ccedilla" unicode="&#xc7;" horiz-adv-x="727" 
d="M702 180q-43 -82 -120.5 -133t-172.5 -56l-4 -16q41 2 67.5 -21t26.5 -63q0 -42 -31 -70.5t-80 -26.5q-33 0 -60 15.5t-39 40.5l42 30q20 -31 55 -30q22 1 34 12.5t12 28.5q0 25 -29 35.5t-66 -0.5l14 66q-137 14 -228.5 116t-91.5 242q0 150 103.5 255t253.5 105
q101 0 184 -51t128 -136l-132 -68q-27 48 -75 77t-106 29q-87 0 -147 -61.5t-60 -149.5t60 -149.5t147 -61.5q59 0 107.5 29.5t74.5 79.5z" />
    <glyph glyph-name="Egrave" unicode="&#xc8;" horiz-adv-x="589" 
d="M265 784l-96 143h111l78 -143h-93zM61 0v700h494v-131h-347v-154h340v-127h-340v-157h347v-131h-494z" />
    <glyph glyph-name="Eacute" unicode="&#xc9;" horiz-adv-x="589" 
d="M267 784l69 143h110l-85 -143h-94zM61 0v700h494v-131h-347v-154h340v-127h-340v-157h347v-131h-494z" />
    <glyph glyph-name="Ecircumflex" unicode="&#xca;" horiz-adv-x="589" 
d="M154 785l105 140h102l106 -140h-100l-56 78l-57 -78h-100zM61 0v700h494v-131h-347v-154h340v-127h-340v-157h347v-131h-494z" />
    <glyph glyph-name="Edieresis" unicode="&#xcb;" horiz-adv-x="589" 
d="M220 796q-25 0 -42.5 17.5t-17.5 42.5q0 23 17.5 40.5t42.5 17.5q24 0 41.5 -17t17.5 -41q0 -25 -17 -42.5t-42 -17.5zM403 796q-25 0 -43 17.5t-18 42.5q0 24 18 41t43 17q24 0 41.5 -17t17.5 -41q0 -25 -17.5 -42.5t-41.5 -17.5zM61 0v700h494v-131h-347v-154h340v-127
h-340v-157h347v-131h-494z" />
    <glyph glyph-name="Igrave" unicode="&#xcc;" horiz-adv-x="268" 
d="M88 784l-96 143h111l78 -143h-93zM61 0v700h147v-700h-147z" />
    <glyph glyph-name="Iacute" unicode="&#xcd;" horiz-adv-x="268" 
d="M90 784l69 143h110l-85 -143h-94zM61 0v700h147v-700h-147z" />
    <glyph glyph-name="Icircumflex" unicode="&#xce;" horiz-adv-x="268" 
d="M-23 785l105 140h102l106 -140h-100l-56 78l-57 -78h-100zM61 0v700h147v-700h-147z" />
    <glyph glyph-name="Idieresis" unicode="&#xcf;" horiz-adv-x="268" 
d="M43 796q-25 0 -42.5 17.5t-17.5 42.5q0 23 17.5 40.5t42.5 17.5t42 -17t17 -41q0 -25 -17 -42.5t-42 -17.5zM226 796q-25 0 -43 17.5t-18 42.5q0 24 18 41t43 17q24 0 41.5 -17t17.5 -41q0 -25 -17.5 -42.5t-41.5 -17.5zM61 0v700h147v-700h-147z" />
    <glyph glyph-name="Eth" unicode="&#xd0;" horiz-adv-x="716" 
d="M332 701q95 0 174 -39.5t129 -120.5t50 -190q0 -82 -29 -149.5t-77.5 -111t-112 -67t-134.5 -23.5h-271v300h-63v99h63v301zM326 144q93 0 152.5 52.5t59.5 154.5t-59.5 154t-152.5 52l-118 -1v-157h161v-99h-161v-156h118z" />
    <glyph glyph-name="Ntilde" unicode="&#xd1;" horiz-adv-x="738" 
d="M310 803q-59 0 -86 43l43 55q17 -23 46 -23q20 0 52 15t56 15q50 0 86 -45l-40 -53q-20 23 -51 23q-18 0 -50.5 -15t-55.5 -15zM61 0v700h165l305 -464v464h147v-700h-166l-304 463v-463h-147z" />
    <glyph glyph-name="Ograve" unicode="&#xd2;" horiz-adv-x="775" 
d="M342 784l-96 143h111l78 -143h-93zM388 -10q-150 0 -253.5 105t-103.5 255t103.5 255t253.5 105q149 0 252.5 -105t103.5 -255t-103.5 -255t-252.5 -105zM387 134q89 0 149.5 62.5t60.5 153.5t-60.5 153.5t-149.5 62.5q-88 0 -148.5 -62.5t-60.5 -153.5t60.5 -153.5
t148.5 -62.5z" />
    <glyph glyph-name="Oacute" unicode="&#xd3;" horiz-adv-x="775" 
d="M344 784l69 143h110l-85 -143h-94zM388 -10q-150 0 -253.5 105t-103.5 255t103.5 255t253.5 105q149 0 252.5 -105t103.5 -255t-103.5 -255t-252.5 -105zM387 134q89 0 149.5 62.5t60.5 153.5t-60.5 153.5t-149.5 62.5q-88 0 -148.5 -62.5t-60.5 -153.5t60.5 -153.5
t148.5 -62.5z" />
    <glyph glyph-name="Ocircumflex" unicode="&#xd4;" horiz-adv-x="775" 
d="M231 785l105 140h102l106 -140h-100l-56 78l-57 -78h-100zM388 -10q-150 0 -253.5 105t-103.5 255t103.5 255t253.5 105q149 0 252.5 -105t103.5 -255t-103.5 -255t-252.5 -105zM387 134q89 0 149.5 62.5t60.5 153.5t-60.5 153.5t-149.5 62.5q-88 0 -148.5 -62.5
t-60.5 -153.5t60.5 -153.5t148.5 -62.5z" />
    <glyph glyph-name="Otilde" unicode="&#xd5;" horiz-adv-x="775" 
d="M332 803q-59 0 -86 43l43 55q17 -23 46 -23q20 0 52 15t56 15q50 0 86 -45l-40 -53q-20 23 -51 23q-18 0 -50.5 -15t-55.5 -15zM388 -10q-150 0 -253.5 105t-103.5 255t103.5 255t253.5 105q149 0 252.5 -105t103.5 -255t-103.5 -255t-252.5 -105zM387 134
q89 0 149.5 62.5t60.5 153.5t-60.5 153.5t-149.5 62.5q-88 0 -148.5 -62.5t-60.5 -153.5t60.5 -153.5t148.5 -62.5z" />
    <glyph glyph-name="Odieresis" unicode="&#xd6;" horiz-adv-x="775" 
d="M297 796q-25 0 -42.5 17.5t-17.5 42.5q0 23 17.5 40.5t42.5 17.5t42 -17t17 -41q0 -25 -17 -42.5t-42 -17.5zM480 796q-25 0 -43 17.5t-18 42.5q0 24 18 41t43 17q24 0 41.5 -17t17.5 -41q0 -25 -17.5 -42.5t-41.5 -17.5zM388 -10q-150 0 -253.5 105t-103.5 255
t103.5 255t253.5 105q149 0 252.5 -105t103.5 -255t-103.5 -255t-252.5 -105zM387 134q89 0 149.5 62.5t60.5 153.5t-60.5 153.5t-149.5 62.5q-88 0 -148.5 -62.5t-60.5 -153.5t60.5 -153.5t148.5 -62.5z" />
    <glyph glyph-name="multiply" unicode="&#xd7;" horiz-adv-x="449" 
d="M129 150l-86 87l95 95l-95 96l86 87l96 -96l96 96l86 -87l-96 -96l96 -95l-86 -87l-96 96z" />
    <glyph glyph-name="Oslash" unicode="&#xd8;" horiz-adv-x="775" 
d="M583 652q75 -49 118 -128.5t43 -173.5q0 -150 -103.5 -255t-252.5 -105q-60 0 -114 18l-29 -61h-101l48 101q-75 49 -118 128.5t-43 173.5q0 150 103.5 255t253.5 105q60 0 114 -18l29 61h101zM178 350q0 -105 78 -170l182 380q-24 6 -51 6q-88 0 -148.5 -62.5
t-60.5 -153.5zM387 134q89 0 149.5 62.5t60.5 153.5q0 105 -77 169l-182 -379q22 -6 49 -6z" />
    <glyph glyph-name="Ugrave" unicode="&#xd9;" horiz-adv-x="705" 
d="M307 784l-96 143h111l78 -143h-93zM353 -10q-128 0 -215.5 80.5t-87.5 212.5v417h147v-388q0 -78 41 -130t115 -52q73 0 114 52t41 130v388h147v-417q0 -132 -87 -212.5t-215 -80.5z" />
    <glyph glyph-name="Uacute" unicode="&#xda;" horiz-adv-x="705" 
d="M309 784l69 143h110l-85 -143h-94zM353 -10q-128 0 -215.5 80.5t-87.5 212.5v417h147v-388q0 -78 41 -130t115 -52q73 0 114 52t41 130v388h147v-417q0 -132 -87 -212.5t-215 -80.5z" />
    <glyph glyph-name="Ucircumflex" unicode="&#xdb;" horiz-adv-x="705" 
d="M196 785l105 140h102l106 -140h-100l-56 78l-57 -78h-100zM353 -10q-128 0 -215.5 80.5t-87.5 212.5v417h147v-388q0 -78 41 -130t115 -52q73 0 114 52t41 130v388h147v-417q0 -132 -87 -212.5t-215 -80.5z" />
    <glyph glyph-name="Udieresis" unicode="&#xdc;" horiz-adv-x="705" 
d="M262 796q-25 0 -42.5 17.5t-17.5 42.5q0 23 17.5 40.5t42.5 17.5q24 0 41.5 -17t17.5 -41q0 -25 -17 -42.5t-42 -17.5zM445 796q-25 0 -43 17.5t-18 42.5q0 24 18 41t43 17q24 0 41.5 -17t17.5 -41q0 -25 -17.5 -42.5t-41.5 -17.5zM353 -10q-128 0 -215.5 80.5
t-87.5 212.5v417h147v-388q0 -78 41 -130t115 -52q73 0 114 52t41 130v388h147v-417q0 -132 -87 -212.5t-215 -80.5z" />
    <glyph glyph-name="Yacute" unicode="&#xdd;" horiz-adv-x="663" 
d="M288 784l69 143h110l-85 -143h-94zM258 0v278l-250 422h171l153 -282l152 282h171l-250 -422v-278h-147z" />
    <glyph glyph-name="Thorn" unicode="&#xde;" horiz-adv-x="596" 
d="M61 0v700h147v-120h127q100 0 169 -61.5t69 -168.5t-69 -168.5t-169 -61.5h-127v-120h-147zM208 252h115q47 0 75 26t28 72t-28 72t-75 26h-115v-196z" />
    <glyph glyph-name="germandbls" unicode="&#xdf;" horiz-adv-x="727" 
d="M498 -10q-76 0 -135 37t-81 107l119 35q7 -30 31 -49t61 -19q40 0 61 18.5t21 46.5q0 22 -20.5 38.5t-51.5 26t-66.5 24t-66.5 30.5t-51.5 47.5t-20.5 73.5q0 39 30 100t30 93q0 23 -15.5 38t-42.5 15q-26 0 -42.5 -17t-16.5 -48v-587h-140v373h-86v122h86v86
q0 85 53.5 137t145.5 52t143 -47.5t51 -119.5q0 -46 -15 -80t-30 -58.5t-15 -48.5q0 -30 28 -49t68 -31t80.5 -28.5t68.5 -53t28 -91.5q0 -80 -60.5 -126.5t-148.5 -46.5z" />
    <glyph glyph-name="agrave" unicode="&#xe0;" horiz-adv-x="609" 
d="M256 579l-96 143h111l78 -143h-93zM256 -9q-99 0 -165 74t-66 183t66 182.5t165 73.5q103 0 163 -71v62h140v-495h-140v62q-61 -71 -163 -71zM291 114q54 0 91 38.5t37 95.5t-37 95.5t-91 38.5t-90.5 -38t-36.5 -96t36.5 -96t90.5 -38z" />
    <glyph glyph-name="aacute" unicode="&#xe1;" horiz-adv-x="609" 
d="M259 579l69 143h110l-85 -143h-94zM256 -9q-99 0 -165 74t-66 183t66 182.5t165 73.5q103 0 163 -71v62h140v-495h-140v62q-61 -71 -163 -71zM291 114q54 0 91 38.5t37 95.5t-37 95.5t-91 38.5t-90.5 -38t-36.5 -96t36.5 -96t90.5 -38z" />
    <glyph glyph-name="acircumflex" unicode="&#xe2;" horiz-adv-x="609" 
d="M146 580l105 140h102l106 -140h-100l-56 78l-57 -78h-100zM256 -9q-99 0 -165 74t-66 183t66 182.5t165 73.5q103 0 163 -71v62h140v-495h-140v62q-61 -71 -163 -71zM291 114q54 0 91 38.5t37 95.5t-37 95.5t-91 38.5t-90.5 -38t-36.5 -96t36.5 -96t90.5 -38z" />
    <glyph glyph-name="atilde" unicode="&#xe3;" horiz-adv-x="609" 
d="M247 598q-59 0 -86 43l43 55q17 -23 46 -23q20 0 52 15t56 15q50 0 86 -45l-40 -53q-20 23 -51 23q-18 0 -50.5 -15t-55.5 -15zM256 -9q-99 0 -165 74t-66 183t66 182.5t165 73.5q103 0 163 -71v62h140v-495h-140v62q-61 -71 -163 -71zM291 114q54 0 91 38.5t37 95.5
t-37 95.5t-91 38.5t-90.5 -38t-36.5 -96t36.5 -96t90.5 -38z" />
    <glyph glyph-name="adieresis" unicode="&#xe4;" horiz-adv-x="609" 
d="M212 591q-25 0 -42.5 17.5t-17.5 42.5q0 23 17.5 40.5t42.5 17.5q24 0 41.5 -17.5t17.5 -40.5q0 -25 -17 -42.5t-42 -17.5zM395 591q-25 0 -43 17.5t-18 42.5q0 24 18 41t43 17q24 0 41.5 -17t17.5 -41q0 -25 -17.5 -42.5t-41.5 -17.5zM256 -9q-99 0 -165 74t-66 183
t66 182.5t165 73.5q103 0 163 -71v62h140v-495h-140v62q-61 -71 -163 -71zM291 114q54 0 91 38.5t37 95.5t-37 95.5t-91 38.5t-90.5 -38t-36.5 -96t36.5 -96t90.5 -38z" />
    <glyph glyph-name="aring" unicode="&#xe5;" horiz-adv-x="609" 
d="M302 571q-33 0 -56 23.5t-23 56.5q0 32 23 55t56 23q32 0 55 -23t23 -55q0 -33 -23 -56.5t-55 -23.5zM302 621q12 0 20 8.5t8 20.5t-8 20.5t-20 8.5t-20.5 -8.5t-8.5 -20.5q0 -11 8.5 -20t20.5 -9zM256 -9q-99 0 -165 74t-66 183t66 182.5t165 73.5q103 0 163 -71v62h140
v-495h-140v62q-61 -71 -163 -71zM291 114q54 0 91 38.5t37 95.5t-37 95.5t-91 38.5t-90.5 -38t-36.5 -96t36.5 -96t90.5 -38z" />
    <glyph glyph-name="ae" unicode="&#xe6;" horiz-adv-x="1016" 
d="M265 -6q-102 0 -171 70.5t-69 183.5q0 111 69 181.5t171 70.5q103 0 159 -74v69h140v-69q65 75 181 75q65 0 121 -27.5t92.5 -86t37.5 -137.5q0 -26 -2 -41h-378q8 -49 44.5 -78.5t84.5 -29.5q81 0 127 57l84 -71q-73 -93 -210 -93q-119 0 -182 78v-72h-140v69
q-57 -75 -159 -75zM621 304h243q-8 45 -41.5 72t-79.5 27t-78.5 -27t-43.5 -72zM297 119q52 0 89.5 38t37.5 91t-37 90.5t-90 37.5q-54 0 -91 -37t-37 -91q0 -55 36.5 -92t91.5 -37z" />
    <glyph glyph-name="ccedilla" unicode="&#xe7;" horiz-adv-x="514" 
d="M287 117q32 -1 59 15t43 43l112 -82q-70 -95 -190 -106l-4 -19q41 2 67.5 -21t26.5 -63q0 -42 -31 -70.5t-80 -26.5q-33 0 -60 15.5t-39 40.5l42 30q20 -31 55 -30q22 1 34 12.5t12 28.5q0 25 -29 35.5t-66 -0.5l15 69q-100 12 -167 86t-67 174q0 109 78.5 186.5
t188.5 77.5q64 0 121 -29t94 -79l-114 -83q-36 55 -101 57q-57 1 -93.5 -36.5t-36.5 -94.5q0 -56 36.5 -92.5t93.5 -37.5z" />
    <glyph glyph-name="egrave" unicode="&#xe8;" horiz-adv-x="557" 
d="M327 594h-93l-96 143h111zM286 511q110 0 179.5 -69.5t70.5 -191.5q0 -26 -1 -41h-380q10 -52 46 -80t85 -28q82 0 126 57l85 -71q-34 -47 -91 -73.5t-119 -26.5q-112 0 -187 75.5t-75 184.5q0 113 74.5 188.5t186.5 75.5zM287 402q-48 0 -82.5 -27.5t-47.5 -75.5h253
q-27 103 -123 103z" />
    <glyph glyph-name="eacute" unicode="&#xe9;" horiz-adv-x="557" 
d="M415 737l-85 -143h-94l69 143h110zM286 511q110 0 179.5 -69.5t70.5 -191.5q0 -26 -1 -41h-380q10 -52 46 -80t85 -28q82 0 126 57l85 -71q-34 -47 -91 -73.5t-119 -26.5q-112 0 -187 75.5t-75 184.5q0 113 74.5 188.5t186.5 75.5zM287 402q-48 0 -82.5 -27.5
t-47.5 -75.5h253q-27 103 -123 103z" />
    <glyph glyph-name="ecircumflex" unicode="&#xea;" horiz-adv-x="557" 
d="M281 673l-57 -78h-100l105 140h102l106 -140h-100zM286 511q110 0 179.5 -69.5t70.5 -191.5q0 -26 -1 -41h-380q10 -52 46 -80t85 -28q82 0 126 57l85 -71q-34 -47 -91 -73.5t-119 -26.5q-112 0 -187 75.5t-75 184.5q0 113 74.5 188.5t186.5 75.5zM287 402
q-48 0 -82.5 -27.5t-47.5 -75.5h253q-27 103 -123 103z" />
    <glyph glyph-name="edieresis" unicode="&#xeb;" horiz-adv-x="557" 
d="M189 606q-25 0 -42.5 17.5t-17.5 42.5q0 23 17.5 40.5t42.5 17.5t42 -17t17 -41q0 -25 -17 -42.5t-42 -17.5zM372 606q-25 0 -43 17.5t-18 42.5q0 24 18 41t43 17q24 0 41.5 -17t17.5 -41q0 -25 -17.5 -42.5t-41.5 -17.5zM286 511q110 0 179.5 -69.5t70.5 -191.5
q0 -26 -1 -41h-380q10 -52 46 -80t85 -28q82 0 126 57l85 -71q-34 -47 -91 -73.5t-119 -26.5q-112 0 -187 75.5t-75 184.5q0 113 74.5 188.5t186.5 75.5zM287 402q-48 0 -82.5 -27.5t-47.5 -75.5h253q-27 103 -123 103z" />
    <glyph glyph-name="igrave" unicode="&#xec;" horiz-adv-x="235" 
d="M73 579l-96 143h111l78 -143h-93zM49 0v495h137v-495h-137z" />
    <glyph glyph-name="iacute" unicode="&#xed;" horiz-adv-x="235" 
d="M75 579l69 143h110l-85 -143h-94zM49 0v495h137v-495h-137z" />
    <glyph glyph-name="icircumflex" unicode="&#xee;" horiz-adv-x="235" 
d="M-37 580l105 140h102l106 -140h-100l-56 78l-57 -78h-100zM49 0v495h137v-495h-137z" />
    <glyph glyph-name="idieresis" unicode="&#xef;" horiz-adv-x="235" 
d="M29 591q-25 0 -42.5 17.5t-17.5 42.5q0 23 17.5 40.5t42.5 17.5t42 -17.5t17 -40.5q0 -25 -17 -42.5t-42 -17.5zM212 591q-25 0 -43 17.5t-18 42.5q0 24 18 41t43 17q24 0 41.5 -17t17.5 -41q0 -25 -17.5 -42.5t-41.5 -17.5zM49 0v495h137v-495h-137z" />
    <glyph glyph-name="eth" unicode="&#xf0;" horiz-adv-x="555" 
d="M275 -9q-103 0 -176.5 72.5t-73.5 174.5q0 103 73 175.5t177 72.5q62 0 98 -42q-15 52 -61.5 96t-114.5 66l-38 -78l-93 36l31 64q-55 7 -116 6v116q87 0 168 -14l34 70l91 -34l-34 -72q139 -54 214.5 -168.5t75.5 -258.5q0 -138 -73 -210t-182 -72zM275 121
q51 0 86 35.5t35 86.5q0 52 -35 87.5t-86 35.5q-52 0 -87 -35.5t-35 -87.5q0 -51 35.5 -86.5t86.5 -35.5z" />
    <glyph glyph-name="ntilde" unicode="&#xf1;" horiz-adv-x="594" 
d="M249 598q-59 0 -86 43l43 55q17 -23 46 -23q20 0 52 15t56 15q50 0 86 -45l-40 -53q-20 23 -51 23q-18 0 -50.5 -15t-55.5 -15zM50 0v495h140v-59q58 68 147 68q97 0 155.5 -65t58.5 -182v-257h-140v245q0 67 -29.5 103t-78.5 36q-52 0 -82.5 -38t-30.5 -104v-242h-140z
" />
    <glyph glyph-name="ograve" unicode="&#xf2;" horiz-adv-x="596" 
d="M248 579l-96 143h111l78 -143h-93zM298 -14q-110 0 -188.5 76.5t-78.5 185.5t78.5 186.5t188.5 77.5t188.5 -77.5t78.5 -186.5t-78.5 -185.5t-188.5 -76.5zM298 117q51 -1 86.5 36.5t35.5 93.5q0 57 -35.5 94.5t-86.5 36.5q-51 1 -86.5 -36.5t-35.5 -94.5
q0 -56 35.5 -93.5t86.5 -36.5z" />
    <glyph glyph-name="oacute" unicode="&#xf3;" horiz-adv-x="596" 
d="M250 579l69 143h110l-85 -143h-94zM298 -14q-110 0 -188.5 76.5t-78.5 185.5t78.5 186.5t188.5 77.5t188.5 -77.5t78.5 -186.5t-78.5 -185.5t-188.5 -76.5zM298 117q51 -1 86.5 36.5t35.5 93.5q0 57 -35.5 94.5t-86.5 36.5q-51 1 -86.5 -36.5t-35.5 -94.5
q0 -56 35.5 -93.5t86.5 -36.5z" />
    <glyph glyph-name="ocircumflex" unicode="&#xf4;" horiz-adv-x="596" 
d="M137 580l105 140h102l106 -140h-100l-56 78l-57 -78h-100zM298 -14q-110 0 -188.5 76.5t-78.5 185.5t78.5 186.5t188.5 77.5t188.5 -77.5t78.5 -186.5t-78.5 -185.5t-188.5 -76.5zM298 117q51 -1 86.5 36.5t35.5 93.5q0 57 -35.5 94.5t-86.5 36.5q-51 1 -86.5 -36.5
t-35.5 -94.5q0 -56 35.5 -93.5t86.5 -36.5z" />
    <glyph glyph-name="otilde" unicode="&#xf5;" horiz-adv-x="596" 
d="M238 598q-59 0 -86 43l43 55q17 -23 46 -23q20 0 52 15t56 15q50 0 86 -45l-40 -53q-20 23 -51 23q-18 0 -50.5 -15t-55.5 -15zM298 -14q-110 0 -188.5 76.5t-78.5 185.5t78.5 186.5t188.5 77.5t188.5 -77.5t78.5 -186.5t-78.5 -185.5t-188.5 -76.5zM298 117
q51 -1 86.5 36.5t35.5 93.5q0 57 -35.5 94.5t-86.5 36.5q-51 1 -86.5 -36.5t-35.5 -94.5q0 -56 35.5 -93.5t86.5 -36.5z" />
    <glyph glyph-name="odieresis" unicode="&#xf6;" horiz-adv-x="596" 
d="M203 591q-25 0 -42.5 17.5t-17.5 42.5q0 23 17.5 40.5t42.5 17.5t42 -17.5t17 -40.5q0 -25 -17 -42.5t-42 -17.5zM386 591q-25 0 -43 17.5t-18 42.5q0 24 18 41t43 17q24 0 41.5 -17t17.5 -41q0 -25 -17.5 -42.5t-41.5 -17.5zM298 -14q-110 0 -188.5 76.5t-78.5 185.5
t78.5 186.5t188.5 77.5t188.5 -77.5t78.5 -186.5t-78.5 -185.5t-188.5 -76.5zM298 117q51 -1 86.5 36.5t35.5 93.5q0 57 -35.5 94.5t-86.5 36.5q-51 1 -86.5 -36.5t-35.5 -94.5q0 -56 35.5 -93.5t86.5 -36.5z" />
    <glyph glyph-name="divide" unicode="&#xf7;" horiz-adv-x="500" 
d="M251 445q-29 0 -49.5 20.5t-20.5 49.5t20.5 49t49.5 20t49 -20t20 -49t-20 -49.5t-49 -20.5zM33 276v123h435v-123h-435zM251 91q-29 0 -49.5 20t-20.5 49t20.5 49t49.5 20t49 -20.5t20 -48.5t-20 -48.5t-49 -20.5z" />
    <glyph glyph-name="oslash" unicode="&#xf8;" horiz-adv-x="578" 
d="M428 479q63 -35 100 -96.5t37 -134.5q0 -109 -78.5 -185.5t-188.5 -76.5q-52 0 -99 19l-32 -66h-59l44 90q-56 36 -88.5 93.5t-32.5 125.5q0 109 78.5 186.5t188.5 77.5q42 0 81 -12l24 49h59zM176 247q0 -55 36 -94l108 223q-7 2 -22 2q-51 1 -86.5 -36.5t-35.5 -94.5z
M298 117q51 -1 86.5 36.5t35.5 93.5q0 72 -52 109l-112 -232q18 -7 42 -7z" />
    <glyph glyph-name="ugrave" unicode="&#xf9;" horiz-adv-x="594" 
d="M245 579l-96 143h111l78 -143h-93zM257 -6q-97 0 -155.5 64t-58.5 180v257h140v-242q0 -67 29.5 -103t78.5 -36q53 0 83 37t30 105v239h140v-495h-138v60h-2q-54 -66 -147 -66z" />
    <glyph glyph-name="uacute" unicode="&#xfa;" horiz-adv-x="594" 
d="M248 579l69 143h110l-85 -143h-94zM257 -6q-97 0 -155.5 64t-58.5 180v257h140v-242q0 -67 29.5 -103t78.5 -36q53 0 83 37t30 105v239h140v-495h-138v60h-2q-54 -66 -147 -66z" />
    <glyph glyph-name="ucircumflex" unicode="&#xfb;" horiz-adv-x="594" 
d="M135 580l105 140h102l106 -140h-100l-56 78l-57 -78h-100zM257 -6q-97 0 -155.5 64t-58.5 180v257h140v-242q0 -67 29.5 -103t78.5 -36q53 0 83 37t30 105v239h140v-495h-138v60h-2q-54 -66 -147 -66z" />
    <glyph glyph-name="udieresis" unicode="&#xfc;" horiz-adv-x="594" 
d="M201 591q-25 0 -42.5 17.5t-17.5 42.5q0 23 17.5 40.5t42.5 17.5t42 -17.5t17 -40.5q0 -25 -17 -42.5t-42 -17.5zM384 591q-25 0 -43 17.5t-18 42.5q0 24 18 41t43 17q24 0 41.5 -17t17.5 -41q0 -25 -17.5 -42.5t-41.5 -17.5zM257 -6q-97 0 -155.5 64t-58.5 180v257h140
v-242q0 -67 29.5 -103t78.5 -36q53 0 83 37t30 105v239h140v-495h-138v60h-2q-54 -66 -147 -66z" />
    <glyph glyph-name="yacute" unicode="&#xfd;" horiz-adv-x="575" 
d="M250 583l69 143h110l-85 -143h-94zM54 -250l13 131q109 2 136 89l15 35l-208 490h149l130 -355l127 355h149l-238 -573q-38 -92 -104.5 -132t-168.5 -40z" />
    <glyph glyph-name="thorn" unicode="&#xfe;" horiz-adv-x="609" 
d="M50 -250v1000h140v-318q62 72 163 72q99 0 165 -73.5t66 -182.5t-66 -183t-165 -74q-100 0 -163 72v-313h-140zM318 114q54 0 90 38t36 96t-36 96t-90 38t-91 -38.5t-37 -95.5t37 -95.5t91 -38.5z" />
    <glyph glyph-name="ydieresis" unicode="&#xff;" horiz-adv-x="575" 
d="M203 595q-25 0 -42.5 17.5t-17.5 42.5q0 23 17.5 40.5t42.5 17.5t42 -17.5t17 -40.5q0 -25 -17 -42.5t-42 -17.5zM386 595q-25 0 -43 17.5t-18 42.5q0 24 18 41t43 17q24 0 41.5 -17t17.5 -41q0 -25 -17.5 -42.5t-41.5 -17.5zM54 -250l13 131q109 2 136 89l15 35
l-208 490h149l130 -355l127 355h149l-238 -573q-38 -92 -104.5 -132t-168.5 -40z" />
    <glyph glyph-name="Amacron" unicode="&#x100;" horiz-adv-x="738" 
d="M238 813v84h259v-84h-259zM8 0l282 700h155l285 -700h-162l-45 115h-309l-44 -115h-162zM261 249h215l-107 282h-2z" />
    <glyph glyph-name="amacron" unicode="&#x101;" horiz-adv-x="609" 
d="M173 608v84h259v-84h-259zM256 -9q-99 0 -165 74t-66 183t66 182.5t165 73.5q103 0 163 -71v62h140v-495h-140v62q-61 -71 -163 -71zM291 114q54 0 91 38.5t37 95.5t-37 95.5t-91 38.5t-90.5 -38t-36.5 -96t36.5 -96t90.5 -38z" />
    <glyph glyph-name="Abreve" unicode="&#x102;" horiz-adv-x="738" 
d="M367 785q-69 0 -107.5 39.5t-39.5 94.5h74q1 -25 19 -45t54 -20q35 0 53 20t20 45h73q-1 -55 -39 -94.5t-107 -39.5zM8 0l282 700h155l285 -700h-162l-45 115h-309l-44 -115h-162zM261 249h215l-107 282h-2z" />
    <glyph glyph-name="abreve" unicode="&#x103;" horiz-adv-x="609" 
d="M303 580q-69 0 -107.5 39.5t-39.5 94.5h74q1 -25 19 -45t54 -20q35 0 53 20t20 45h73q-1 -55 -39 -94.5t-107 -39.5zM256 -9q-99 0 -165 74t-66 183t66 182.5t165 73.5q103 0 163 -71v62h140v-495h-140v62q-61 -71 -163 -71zM291 114q54 0 91 38.5t37 95.5t-37 95.5
t-91 38.5t-90.5 -38t-36.5 -96t36.5 -96t90.5 -38z" />
    <glyph glyph-name="Aogonek" unicode="&#x104;" horiz-adv-x="738" 
d="M580 -65q0 -29 22 -43t54 -14v-105q-72 -3 -117.5 29t-45.5 98q0 67 72 108l-42 107h-309l-44 -115h-162l282 700h155l285 -700h-98q-52 -22 -52 -65zM261 249h215l-107 282h-2z" />
    <glyph glyph-name="aogonek" unicode="&#x105;" horiz-adv-x="609" 
d="M447 0q-49 -22 -49 -64q0 -29 22 -43t54 -14v-105q-72 -3 -117.5 29t-45.5 98q0 43 31 75.5t74 46.5l3 -2v41q-61 -71 -163 -71q-99 0 -165 74t-66 183t66 182.5t165 73.5q103 0 163 -71v62h140v-495h-112zM291 114q54 0 91 38.5t37 95.5t-37 95.5t-91 38.5t-90.5 -38
t-36.5 -96t36.5 -96t90.5 -38z" />
    <glyph glyph-name="Cacute" unicode="&#x106;" horiz-adv-x="727" 
d="M340 784l69 143h110l-85 -143h-94zM388 -10q-150 0 -253.5 105t-103.5 255t103.5 255t253.5 105q101 0 184 -51t128 -136l-132 -68q-27 48 -75 77t-106 29q-87 0 -147 -61.5t-60 -149.5t60 -149.5t147 -61.5q59 0 107.5 29.5t74.5 79.5l133 -68q-45 -86 -128.5 -138
t-185.5 -52z" />
    <glyph glyph-name="cacute" unicode="&#x107;" horiz-adv-x="514" 
d="M242 579l69 143h110l-85 -143h-94zM287 -14q-110 0 -188.5 76.5t-78.5 185.5t78.5 186.5t188.5 77.5q64 0 121 -29t94 -79l-114 -83q-36 55 -101 57q-57 1 -93.5 -36.5t-36.5 -94.5q0 -56 36.5 -92.5t93.5 -37.5q32 -1 59 15t43 43l112 -82q-37 -50 -93 -78.5t-121 -28.5
z" />
    <glyph glyph-name="Cdotaccent" unicode="&#x10a;" horiz-adv-x="727" 
d="M385 789q-29 0 -49 19.5t-20 47.5q0 27 20 46.5t48 19.5t47.5 -19.5t19.5 -46.5q0 -28 -19.5 -47.5t-46.5 -19.5zM388 -10q-150 0 -253.5 105t-103.5 255t103.5 255t253.5 105q101 0 184 -51t128 -136l-132 -68q-27 48 -75 77t-106 29q-87 0 -147 -61.5t-60 -149.5
t60 -149.5t147 -61.5q59 0 107.5 29.5t74.5 79.5l133 -68q-45 -86 -128.5 -138t-185.5 -52z" />
    <glyph glyph-name="cdotaccent" unicode="&#x10b;" horiz-adv-x="514" 
d="M287 584q-29 0 -49 19.5t-20 47.5q0 27 20 46.5t48 19.5t47.5 -19.5t19.5 -46.5q0 -28 -19.5 -47.5t-46.5 -19.5zM287 -14q-110 0 -188.5 76.5t-78.5 185.5t78.5 186.5t188.5 77.5q64 0 121 -29t94 -79l-114 -83q-36 55 -101 57q-57 1 -93.5 -36.5t-36.5 -94.5
q0 -56 36.5 -92.5t93.5 -37.5q32 -1 59 15t43 43l112 -82q-37 -50 -93 -78.5t-121 -28.5z" />
    <glyph glyph-name="Ccaron" unicode="&#x10c;" horiz-adv-x="727" 
d="M341 780l-103 143h87l58 -83l58 83h88l-102 -143h-86zM388 -10q-150 0 -253.5 105t-103.5 255t103.5 255t253.5 105q101 0 184 -51t128 -136l-132 -68q-27 48 -75 77t-106 29q-87 0 -147 -61.5t-60 -149.5t60 -149.5t147 -61.5q59 0 107.5 29.5t74.5 79.5l133 -68
q-45 -86 -128.5 -138t-185.5 -52z" />
    <glyph glyph-name="ccaron" unicode="&#x10d;" horiz-adv-x="514" 
d="M243 575l-103 143h87l58 -83l58 83h88l-102 -143h-86zM287 -14q-110 0 -188.5 76.5t-78.5 185.5t78.5 186.5t188.5 77.5q64 0 121 -29t94 -79l-114 -83q-36 55 -101 57q-57 1 -93.5 -36.5t-36.5 -94.5q0 -56 36.5 -92.5t93.5 -37.5q32 -1 59 15t43 43l112 -82
q-37 -50 -93 -78.5t-121 -28.5z" />
    <glyph glyph-name="Dcaron" unicode="&#x10e;" horiz-adv-x="716" 
d="M268 780l-103 143h87l58 -83l58 83h88l-102 -143h-86zM61 0v700l271 1q95 0 174 -39.5t129 -120.5t50 -190q0 -82 -29 -149.5t-77.5 -111t-112 -67t-134.5 -23.5h-271zM208 144h118q93 0 152.5 52.5t59.5 154.5t-59.5 154t-152.5 52l-118 -1v-412z" />
    <glyph glyph-name="dcaron" unicode="&#x10f;" horiz-adv-x="609" 
d="M256 -9q-99 0 -165 74t-66 183t66 182.5t165 73.5q104 0 163 -72v318h140v-750h-140v63q-59 -72 -163 -72zM604 585l27 165h94l-35 -165h-86zM291 114q54 0 91 38.5t37 95.5t-37 95.5t-91 38.5t-90 -38t-36 -96t36 -96t90 -38z" />
    <glyph glyph-name="Dcroat" unicode="&#x110;" horiz-adv-x="716" 
d="M332 701q95 0 174 -39.5t129 -120.5t50 -190q0 -82 -29 -149.5t-77.5 -111t-112 -67t-134.5 -23.5h-271v300h-63v99h63v301zM326 144q93 0 152.5 52.5t59.5 154.5t-59.5 154t-152.5 52l-118 -1v-157h161v-99h-161v-156h118z" />
    <glyph glyph-name="dcroat" unicode="&#x111;" horiz-adv-x="609" 
d="M648 646v-99h-89v-547h-140v63q-59 -72 -163 -72q-99 0 -165 74t-66 183t66 182.5t165 73.5q104 0 163 -72v115h-142v99h142v104h140v-104h89zM291 114q54 0 91 38.5t37 95.5t-37 95.5t-91 38.5t-90 -38t-36 -96t36 -96t90 -38z" />
    <glyph glyph-name="Emacron" unicode="&#x112;" horiz-adv-x="589" 
d="M182 813v84h259v-84h-259zM61 0v700h494v-131h-347v-154h340v-127h-340v-157h347v-131h-494z" />
    <glyph glyph-name="emacron" unicode="&#x113;" horiz-adv-x="557" 
d="M410 707v-84h-259v84h259zM286 511q110 0 179.5 -69.5t70.5 -191.5q0 -26 -1 -41h-380q10 -52 46 -80t85 -28q82 0 126 57l85 -71q-34 -47 -91 -73.5t-119 -26.5q-112 0 -187 75.5t-75 184.5q0 113 74.5 188.5t186.5 75.5zM287 402q-48 0 -82.5 -27.5t-47.5 -75.5h253
q-27 103 -123 103z" />
    <glyph glyph-name="Edotaccent" unicode="&#x116;" horiz-adv-x="589" 
d="M312 789q-29 0 -49 19.5t-20 47.5q0 27 20 46.5t48 19.5t47.5 -19.5t19.5 -46.5q0 -28 -19.5 -47.5t-46.5 -19.5zM61 0v700h494v-131h-347v-154h340v-127h-340v-157h347v-131h-494z" />
    <glyph glyph-name="edotaccent" unicode="&#x117;" horiz-adv-x="557" 
d="M281 599q-29 0 -49 19.5t-20 47.5q0 27 20 46.5t48 19.5t47.5 -19.5t19.5 -46.5q0 -28 -19.5 -47.5t-46.5 -19.5zM286 511q110 0 179.5 -69.5t70.5 -191.5q0 -26 -1 -41h-380q10 -52 46 -80t85 -28q82 0 126 57l85 -71q-34 -47 -91 -73.5t-119 -26.5q-112 0 -187 75.5
t-75 184.5q0 113 74.5 188.5t186.5 75.5zM287 402q-48 0 -82.5 -27.5t-47.5 -75.5h253q-27 103 -123 103z" />
    <glyph glyph-name="Eogonek" unicode="&#x118;" horiz-adv-x="589" 
d="M494 -65q0 -29 22 -43t54 -14v-105q-72 -3 -117.5 29t-45.5 98q0 61 60 100h-406v700h494v-131h-347v-154h340v-127h-340v-157h347v-131h-9q-52 -22 -52 -65z" />
    <glyph glyph-name="eogonek" unicode="&#x119;" horiz-adv-x="557" 
d="M286 511q110 0 179.5 -69.5t70.5 -191.5q0 -26 -1 -41h-380q10 -52 46 -80t85 -28q82 0 126 57l85 -71q-46 -65 -134 -90q-44 -21 -44 -61q0 -29 22 -43t54 -14v-105q-72 -3 -117.5 29t-45.5 98q0 51 42 86q-107 5 -178 79.5t-71 180.5q0 113 74.5 188.5t186.5 75.5z
M287 402q-48 0 -82.5 -27.5t-47.5 -75.5h253q-27 103 -123 103z" />
    <glyph glyph-name="Ecaron" unicode="&#x11a;" horiz-adv-x="589" 
d="M268 780l-103 143h87l58 -83l58 83h88l-102 -143h-86zM61 0v700h494v-131h-347v-154h340v-127h-340v-157h347v-131h-494z" />
    <glyph glyph-name="ecaron" unicode="&#x11b;" horiz-adv-x="557" 
d="M323 590h-86l-103 143h87l58 -83l58 83h88zM286 511q110 0 179.5 -69.5t70.5 -191.5q0 -26 -1 -41h-380q10 -52 46 -80t85 -28q82 0 126 57l85 -71q-34 -47 -91 -73.5t-119 -26.5q-112 0 -187 75.5t-75 184.5q0 113 74.5 188.5t186.5 75.5zM287 402q-48 0 -82.5 -27.5
t-47.5 -75.5h253q-27 103 -123 103z" />
    <glyph glyph-name="Gbreve" unicode="&#x11e;" horiz-adv-x="749" 
d="M384 785q-69 0 -107.5 39.5t-39.5 94.5h74q1 -25 19 -45t54 -20q35 0 53 20t20 45h73q-1 -55 -39 -94.5t-107 -39.5zM434 383h286v-164q-31 -109 -121 -169t-211 -60q-152 0 -254.5 105t-102.5 255t103.5 255t253.5 105q211 0 308 -170l-135 -72q-60 96 -174 96
q-91 0 -150 -62t-59 -152q0 -95 60 -157.5t153 -62.5q130 0 180 94v50h-137v109z" />
    <glyph glyph-name="gbreve" unicode="&#x11f;" horiz-adv-x="610" 
d="M287 580q-69 0 -107.5 39.5t-39.5 94.5h74q1 -25 19 -45t54 -20q35 0 53 20t20 45h73q-1 -55 -39 -94.5t-107 -39.5zM275 -250q-75 -1 -140.5 31t-103.5 86l99 84q59 -76 146 -76q57 0 100.5 39t43.5 111v37q-56 -71 -161 -71q-100 0 -166.5 74t-66.5 183t66.5 182.5
t166.5 73.5q101 0 161 -71v62h140v-461q0 -137 -82.5 -210.5t-202.5 -73.5zM292 114q54 0 91 38.5t37 95.5t-37 95.5t-91 38.5t-90 -38t-36 -96t36 -96t90 -38z" />
    <glyph glyph-name="Gdotaccent" unicode="&#x120;" horiz-adv-x="749" 
d="M385 789q-29 0 -49 19.5t-20 47.5q0 27 20 46.5t48 19.5t47.5 -19.5t19.5 -46.5q0 -28 -19.5 -47.5t-46.5 -19.5zM434 383h286v-164q-31 -109 -121 -169t-211 -60q-152 0 -254.5 105t-102.5 255t103.5 255t253.5 105q211 0 308 -170l-135 -72q-60 96 -174 96
q-91 0 -150 -62t-59 -152q0 -95 60 -157.5t153 -62.5q130 0 180 94v50h-137v109z" />
    <glyph glyph-name="gdotaccent" unicode="&#x121;" horiz-adv-x="610" 
d="M288 584q-29 0 -49 19.5t-20 47.5q0 27 20 46.5t48 19.5t47.5 -19.5t19.5 -46.5q0 -28 -19.5 -47.5t-46.5 -19.5zM275 -250q-75 -1 -140.5 31t-103.5 86l99 84q59 -76 146 -76q57 0 100.5 39t43.5 111v37q-56 -71 -161 -71q-100 0 -166.5 74t-66.5 183t66.5 182.5
t166.5 73.5q101 0 161 -71v62h140v-461q0 -137 -82.5 -210.5t-202.5 -73.5zM292 114q54 0 91 38.5t37 95.5t-37 95.5t-91 38.5t-90 -38t-36 -96t36 -96t90 -38z" />
    <glyph glyph-name="uni0122" unicode="&#x122;" horiz-adv-x="749" 
d="M434 383h286v-164q-31 -109 -121 -169t-211 -60q-152 0 -254.5 105t-102.5 255t103.5 255t253.5 105q211 0 308 -170l-135 -72q-60 96 -174 96q-91 0 -150 -62t-59 -152q0 -95 60 -157.5t153 -62.5q130 0 180 94v50h-137v109zM286 -220l51 166h94l-60 -166h-85z" />
    <glyph glyph-name="uni0123" unicode="&#x123;" horiz-adv-x="610" 
d="M239 567l60 166h85l-50 -166h-95zM275 -250q-75 -1 -140.5 31t-103.5 86l99 84q59 -76 146 -76q57 0 100.5 39t43.5 111v37q-56 -71 -161 -71q-100 0 -166.5 74t-66.5 183t66.5 182.5t166.5 73.5q101 0 161 -71v62h140v-461q0 -137 -82.5 -210.5t-202.5 -73.5zM292 114
q54 0 91 38.5t37 95.5t-37 95.5t-91 38.5t-90 -38t-36 -96t36 -96t90 -38z" />
    <glyph glyph-name="Hbar" unicode="&#x126;" horiz-adv-x="731" 
d="M737 595v-77h-66v-518h-147v279h-316v-279h-147v518h-65v77h65v105h147v-105h316v105h147v-105h66zM524 419v99h-316v-99h316z" />
    <glyph glyph-name="hbar" unicode="&#x127;" horiz-adv-x="594" 
d="M337 501q97 0 155.5 -64t58.5 -180v-257h-140v246q0 66 -29.5 101t-78.5 35q-52 0 -82.5 -37t-30.5 -102v-243h-140v561h-72v99h72v90h140v-90h159v-99h-159v-124q54 64 147 64z" />
    <glyph glyph-name="Itilde" unicode="&#x128;" horiz-adv-x="268" 
d="M78 803q-59 0 -86 43l43 55q17 -23 46 -23q20 0 52 15t56 15q50 0 86 -45l-40 -53q-20 23 -51 23q-18 0 -50.5 -15t-55.5 -15zM61 0v700h147v-700h-147z" />
    <glyph glyph-name="itilde" unicode="&#x129;" horiz-adv-x="235" 
d="M64 598q-59 0 -86 43l43 55q17 -23 46 -23q20 0 52 15t56 15q50 0 86 -45l-40 -53q-20 23 -51 23q-18 0 -50.5 -15t-55.5 -15zM49 0v495h137v-495h-137z" />
    <glyph glyph-name="Imacron" unicode="&#x12a;" horiz-adv-x="268" 
d="M5 813v84h259v-84h-259zM61 0v700h147v-700h-147z" />
    <glyph glyph-name="imacron" unicode="&#x12b;" horiz-adv-x="235" 
d="M-10 608v84h259v-84h-259zM49 0v495h137v-495h-137z" />
    <glyph glyph-name="Iogonek" unicode="&#x12e;" horiz-adv-x="268" 
d="M181 0q-54 -22 -54 -66q0 -29 22 -43t54 -14v-105q-72 -3 -117.5 29t-45.5 98q0 62 61 101h-40v700h147v-700h-27z" />
    <glyph glyph-name="iogonek" unicode="&#x12f;" horiz-adv-x="235" 
d="M120 584q-29 0 -49 19.5t-20 47.5q0 27 20 46.5t48 19.5t47.5 -19.5t19.5 -46.5q0 -28 -19.5 -47.5t-46.5 -19.5zM49 0v495h137v-495h-30q-52 -22 -52 -65q0 -29 22 -43t54 -14v-105q-72 -3 -117.5 29t-45.5 98q0 61 60 100h-28z" />
    <glyph glyph-name="Idotaccent" unicode="&#x130;" horiz-adv-x="268" 
d="M135 789q-29 0 -49 19.5t-20 47.5q0 27 20 46.5t48 19.5t47.5 -19.5t19.5 -46.5q0 -28 -19.5 -47.5t-46.5 -19.5zM61 0v700h147v-700h-147z" />
    <glyph glyph-name="dotlessi" unicode="&#x131;" horiz-adv-x="235" 
d="M49 0v495h137v-495h-137z" />
    <glyph glyph-name="uni0136" unicode="&#x136;" horiz-adv-x="706" 
d="M61 0v700h147v-280h101l199 280h180l-249 -348l261 -352h-184l-205 280h-103v-280h-147zM241 -220l51 166h94l-60 -166h-85z" />
    <glyph glyph-name="uni0137" unicode="&#x137;" horiz-adv-x="588" 
d="M50 0v750h140v-429h75l141 174h175l-202 -240l202 -255h-172l-144 188h-75v-188h-140zM188 -220l51 166h94l-60 -166h-85z" />
    <glyph glyph-name="Lacute" unicode="&#x139;" horiz-adv-x="566" 
d="M98 784l69 143h110l-85 -143h-94zM61 0v700h147v-564h344v-136h-491z" />
    <glyph glyph-name="lacute" unicode="&#x13a;" horiz-adv-x="313" 
d="M78 834l69 143h110l-85 -143h-94zM223 -2q-80 0 -126.5 46t-46.5 128v578h140v-552q0 -36 20 -53.5t50 -17.5q16 0 28 4l14 -122q-44 -11 -79 -11z" />
    <glyph glyph-name="uni013B" unicode="&#x13b;" horiz-adv-x="566" 
d="M61 0v700h147v-564h344v-136h-491zM207 -220l51 166h94l-60 -166h-85z" />
    <glyph glyph-name="uni013C" unicode="&#x13c;" horiz-adv-x="313" 
d="M223 -2q-80 0 -126.5 46t-46.5 128v578h140v-552q0 -36 20 -53.5t50 -17.5q16 0 28 4l14 -122q-44 -11 -79 -11zM67 -220l51 166h94l-60 -166h-85z" />
    <glyph glyph-name="Lcaron" unicode="&#x13d;" horiz-adv-x="566" 
d="M61 0v700h147v-564h344v-136h-491zM255 545l26 155h94l-35 -155h-85z" />
    <glyph glyph-name="lcaron" unicode="&#x13e;" horiz-adv-x="313" 
d="M223 -2q-80 0 -126.5 46t-46.5 128v578h140v-552q0 -36 20 -53.5t50 -17.5q16 0 28 4l14 -122q-44 -11 -79 -11zM231 595l27 155h93l-35 -155h-85z" />
    <glyph glyph-name="Lslash" unicode="&#x141;" horiz-adv-x="566" 
d="M208 136h344v-136h-491v218l-55 -31l-45 90l100 55v368h147v-286l76 42l44 -90l-120 -67v-163z" />
    <glyph glyph-name="lslash" unicode="&#x142;" horiz-adv-x="313" 
d="M288 131l14 -122q-44 -11 -79 -11q-80 0 -126.5 46t-46.5 128v73l-74 -41l-45 90l119 66v390h140v-312l64 35l44 -90l-108 -60v-125q0 -36 20 -53.5t50 -17.5q16 0 28 4z" />
    <glyph glyph-name="Nacute" unicode="&#x143;" horiz-adv-x="738" 
d="M318 784l69 143h111l-86 -143h-94zM61 0v700h165l305 -464v464h147v-700h-166l-304 463v-463h-147z" />
    <glyph glyph-name="nacute" unicode="&#x144;" horiz-adv-x="594" 
d="M261 579l69 143h110l-85 -143h-94zM50 0v495h140v-59q58 68 147 68q97 0 155.5 -65t58.5 -182v-257h-140v245q0 67 -29.5 103t-78.5 36q-52 0 -82.5 -38t-30.5 -104v-242h-140z" />
    <glyph glyph-name="uni0145" unicode="&#x145;" horiz-adv-x="738" 
d="M61 0v700h165l305 -464v464h147v-700h-166l-304 463v-463h-147zM264 -220l51 166h95l-60 -166h-86z" />
    <glyph glyph-name="uni0146" unicode="&#x146;" horiz-adv-x="594" 
d="M50 0v495h140v-59q58 68 147 68q97 0 155.5 -65t58.5 -182v-257h-140v245q0 67 -29.5 103t-78.5 36q-52 0 -82.5 -38t-30.5 -104v-242h-140zM206 -220l51 166h94l-60 -166h-85z" />
    <glyph glyph-name="Ncaron" unicode="&#x147;" horiz-adv-x="738" 
d="M319 780l-103 142h88l58 -82l58 82h88l-103 -142h-86zM61 0v700h165l305 -464v464h147v-700h-166l-304 463v-463h-147z" />
    <glyph glyph-name="ncaron" unicode="&#x148;" horiz-adv-x="594" 
d="M262 575l-103 143h87l58 -83l58 83h88l-102 -143h-86zM50 0v495h140v-59q58 68 147 68q97 0 155.5 -65t58.5 -182v-257h-140v245q0 67 -29.5 103t-78.5 36q-52 0 -82.5 -38t-30.5 -104v-242h-140z" />
    <glyph glyph-name="Eng" unicode="&#x14a;" horiz-adv-x="737" 
d="M529 700h148v-696q-4 -113 -73.5 -168t-192.5 -55v139q54 0 83 18t34 63l-320 479v-480h-147v700h165l303 -456v456z" />
    <glyph glyph-name="eng" unicode="&#x14b;" horiz-adv-x="597" 
d="M309 -216v126q43 0 74 22t31 70v251q0 64 -30 98.5t-79 34.5q-54 0 -84.5 -35.5t-30.5 -97.5v-253h-140v499h140v-73q50 78 158 78q94 0 150 -64.5t56 -175.5v-255q0 -100 -59 -162.5t-186 -62.5z" />
    <glyph glyph-name="Omacron" unicode="&#x14c;" horiz-adv-x="775" 
d="M259 813v84h259v-84h-259zM388 -10q-150 0 -253.5 105t-103.5 255t103.5 255t253.5 105q149 0 252.5 -105t103.5 -255t-103.5 -255t-252.5 -105zM387 134q89 0 149.5 62.5t60.5 153.5t-60.5 153.5t-149.5 62.5q-88 0 -148.5 -62.5t-60.5 -153.5t60.5 -153.5t148.5 -62.5z
" />
    <glyph glyph-name="omacron" unicode="&#x14d;" horiz-adv-x="596" 
d="M165 608v84h259v-84h-259zM298 -14q-110 0 -188.5 76.5t-78.5 185.5t78.5 186.5t188.5 77.5t188.5 -77.5t78.5 -186.5t-78.5 -185.5t-188.5 -76.5zM298 117q51 -1 86.5 36.5t35.5 93.5q0 57 -35.5 94.5t-86.5 36.5q-51 1 -86.5 -36.5t-35.5 -94.5q0 -56 35.5 -93.5
t86.5 -36.5z" />
    <glyph glyph-name="Ohungarumlaut" unicode="&#x150;" horiz-adv-x="775" 
d="M281 780l69 143h94l-86 -143h-77zM416 780l69 143h94l-86 -143h-77zM388 -10q-150 0 -253.5 105t-103.5 255t103.5 255t253.5 105q149 0 252.5 -105t103.5 -255t-103.5 -255t-252.5 -105zM387 134q89 0 149.5 62.5t60.5 153.5t-60.5 153.5t-149.5 62.5
q-88 0 -148.5 -62.5t-60.5 -153.5t60.5 -153.5t148.5 -62.5z" />
    <glyph glyph-name="ohungarumlaut" unicode="&#x151;" horiz-adv-x="596" 
d="M187 575l69 143h94l-86 -143h-77zM322 575l69 143h94l-86 -143h-77zM298 -14q-110 0 -188.5 76.5t-78.5 185.5t78.5 186.5t188.5 77.5t188.5 -77.5t78.5 -186.5t-78.5 -185.5t-188.5 -76.5zM298 117q51 -1 86.5 36.5t35.5 93.5q0 57 -35.5 94.5t-86.5 36.5
q-51 1 -86.5 -36.5t-35.5 -94.5q0 -56 35.5 -93.5t86.5 -36.5z" />
    <glyph glyph-name="OE" unicode="&#x152;" horiz-adv-x="945" 
d="M911 567h-348v-149h337v-133h-337v-152h348v-133h-495q-173 0 -279 99t-106 251t106 251t279 99h495v-133zM416 149v403q-111 0 -173.5 -56.5t-62.5 -145.5t62.5 -145t173.5 -56z" />
    <glyph glyph-name="oe" unicode="&#x153;" horiz-adv-x="959" 
d="M679 505q120 0 194.5 -81t64.5 -212h-388q10 -49 47.5 -77.5t84.5 -28.5q80 0 121 50l87 -69q-34 -47 -90 -72t-121 -25q-119 0 -196 89q-79 -89 -198 -89q-107 0 -183.5 75.5t-76.5 181.5q0 107 76.5 182.5t183.5 75.5q119 0 197 -88q75 88 197 88zM679 392
q-47 0 -80.5 -26.5t-46.5 -71.5h257q-14 47 -48.5 72.5t-81.5 25.5zM285 124q52 0 88 36t36 87q0 52 -36 88t-88 36t-87.5 -36t-35.5 -88q0 -51 35.5 -87t87.5 -36z" />
    <glyph glyph-name="Racute" unicode="&#x154;" horiz-adv-x="631" 
d="M411 927l-85 -143h-94l69 143h110zM618 0h-161l-120 245h-131v-245h-145v700h304q98 0 167.5 -61.5t69.5 -166.5q0 -72 -35 -124.5t-93 -79.5zM206 571v-200h144q47 0 76 27.5t29 71.5q0 45 -29 73t-76 28h-144z" />
    <glyph glyph-name="racute" unicode="&#x155;" horiz-adv-x="398" 
d="M180 594l69 143h110l-85 -143h-94zM50 0v495h140v-64q58 75 190 73v-148q-31 17 -72 17q-48 0 -83 -39t-35 -107v-227h-140z" />
    <glyph glyph-name="uni0156" unicode="&#x156;" horiz-adv-x="631" 
d="M474 268l144 -268h-161l-120 245h-131v-245h-145v700h304q98 0 167.5 -61.5t69.5 -166.5q0 -72 -35 -124.5t-93 -79.5zM206 571v-200h144q47 0 76 27.5t29 71.5q0 45 -29 73t-76 28h-144zM216 -220l51 166h94l-60 -166h-85z" />
    <glyph glyph-name="uni0157" unicode="&#x157;" horiz-adv-x="398" 
d="M50 0v495h140v-64q58 75 190 73v-148q-31 17 -72 17q-48 0 -83 -39t-35 -107v-227h-140zM24 -220l51 166h94l-60 -166h-85z" />
    <glyph glyph-name="Rcaron" unicode="&#x158;" horiz-adv-x="631" 
d="M319 780h-86l-103 143h87l58 -83l58 83h88zM618 0h-161l-120 245h-131v-245h-145v700h304q98 0 167.5 -61.5t69.5 -166.5q0 -72 -35 -124.5t-93 -79.5zM206 571v-200h144q47 0 76 27.5t29 71.5q0 45 -29 73t-76 28h-144z" />
    <glyph glyph-name="rcaron" unicode="&#x159;" horiz-adv-x="398" 
d="M181 590l-103 143h87l58 -83l58 83h88l-102 -143h-86zM50 0v495h140v-64q58 75 190 73v-148q-31 17 -72 17q-48 0 -83 -39t-35 -107v-227h-140z" />
    <glyph glyph-name="Sacute" unicode="&#x15a;" horiz-adv-x="575" 
d="M237 784l69 143h110l-85 -143h-94zM292 -11q-101 0 -173.5 48.5t-98.5 133.5l142 40q13 -41 48.5 -64.5t82.5 -23.5q49 0 79 22t30 57q0 13 -4 23t-14 18.5t-18 13.5t-26 11t-27.5 8.5t-33 8.5t-32.5 8q-36 9 -62 18t-57.5 26t-51.5 37.5t-33.5 53t-13.5 72.5
q0 91 73 151.5t180 60.5q96 0 160 -45.5t90 -129.5l-134 -39q-27 83 -113 83q-48 0 -76.5 -24t-28.5 -57q0 -10 2.5 -18t8 -15t11 -12.5t16 -11t17.5 -8.5t22 -7.5t22.5 -7t25 -7t24.5 -6.5q31 -9 43 -12t42 -14t44 -19.5t36.5 -24.5t33 -33.5t19 -43t8.5 -54.5
q0 -97 -75.5 -157t-187.5 -60z" />
    <glyph glyph-name="sacute" unicode="&#x15b;" horiz-adv-x="491" 
d="M199 579l69 143h110l-85 -143h-94zM247 -18q-79 0 -141.5 37.5t-85.5 101.5l121 38q29 -65 108 -65q40 0 63 15.5t23 43.5q0 21 -21 31.5t-49.5 11.5t-70 6.5t-70.5 17.5q-85 38 -85 126q0 69 59 116t144 47q80 0 133.5 -37t70.5 -99l-119 -33q-7 29 -29 46.5t-55 17.5
t-54.5 -16t-21.5 -39q0 -29 34 -39.5t92 -16t89 -18.5q89 -37 89 -124q0 -76 -63 -122.5t-161 -46.5z" />
    <glyph glyph-name="Scedilla" unicode="&#x15e;" horiz-adv-x="575" 
d="M555 206q0 -93 -70.5 -152.5t-177.5 -64.5l-4 -16q41 2 67.5 -21t26.5 -63q0 -42 -31 -70.5t-80 -26.5q-33 0 -60 15.5t-39 40.5l42 30q20 -31 55 -30q22 1 34 12.5t12 28.5q0 25 -29 35.5t-66 -0.5l14 67q-85 10 -146 57.5t-83 122.5l142 40q13 -41 48.5 -64.5
t82.5 -23.5q49 0 79 22t30 57q0 13 -4 23t-14 18.5t-18 13.5t-26 11t-27.5 8.5t-33 8.5t-32.5 8q-36 9 -62 18t-57.5 26t-51.5 37.5t-33.5 53t-13.5 72.5q0 91 73 151.5t180 60.5q96 0 160 -45.5t90 -129.5l-134 -39q-27 83 -113 83q-48 0 -76.5 -24t-28.5 -57
q0 -10 2.5 -18t8 -15t11 -12.5t16 -11t17.5 -8.5t22 -7.5t22.5 -7t25 -7t24.5 -6.5q31 -9 43 -12t42 -14t44 -19.5t36.5 -24.5t33 -33.5t19 -43t8.5 -54.5z" />
    <glyph glyph-name="scedilla" unicode="&#x15f;" horiz-adv-x="491" 
d="M471 151q0 -72 -55.5 -117.5t-144.5 -50.5l-2 -9q41 2 67.5 -21t26.5 -63q0 -42 -31 -70.5t-80 -26.5q-33 0 -60 15.5t-39 40.5l42 30q20 -31 55 -30q22 1 34 12.5t12 28.5q0 25 -29 35.5t-66 -0.5l13 59q-69 8 -121 44t-73 93l121 38q29 -65 108 -65q40 0 63 15.5
t23 43.5q0 21 -21 31.5t-49.5 11.5t-70 6.5t-70.5 17.5q-85 38 -85 126q0 69 59 116t144 47q80 0 133.5 -37t70.5 -99l-119 -33q-7 29 -29 46.5t-55 17.5t-54.5 -16t-21.5 -39q0 -29 34 -39.5t92 -16t89 -18.5q89 -37 89 -124z" />
    <glyph glyph-name="Scaron" unicode="&#x160;" horiz-adv-x="575" 
d="M238 780l-103 143h87l58 -83l58 83h88l-102 -143h-86zM292 -11q-101 0 -173.5 48.5t-98.5 133.5l142 40q13 -41 48.5 -64.5t82.5 -23.5q49 0 79 22t30 57q0 13 -4 23t-14 18.5t-18 13.5t-26 11t-27.5 8.5t-33 8.5t-32.5 8q-36 9 -62 18t-57.5 26t-51.5 37.5t-33.5 53
t-13.5 72.5q0 91 73 151.5t180 60.5q96 0 160 -45.5t90 -129.5l-134 -39q-27 83 -113 83q-48 0 -76.5 -24t-28.5 -57q0 -10 2.5 -18t8 -15t11 -12.5t16 -11t17.5 -8.5t22 -7.5t22.5 -7t25 -7t24.5 -6.5q31 -9 43 -12t42 -14t44 -19.5t36.5 -24.5t33 -33.5t19 -43t8.5 -54.5
q0 -97 -75.5 -157t-187.5 -60z" />
    <glyph glyph-name="scaron" unicode="&#x161;" horiz-adv-x="491" 
d="M200 575l-103 143h87l58 -83l58 83h88l-102 -143h-86zM247 -18q-79 0 -141.5 37.5t-85.5 101.5l121 38q29 -65 108 -65q40 0 63 15.5t23 43.5q0 21 -21 31.5t-49.5 11.5t-70 6.5t-70.5 17.5q-85 38 -85 126q0 69 59 116t144 47q80 0 133.5 -37t70.5 -99l-119 -33
q-7 29 -29 46.5t-55 17.5t-54.5 -16t-21.5 -39q0 -29 34 -39.5t92 -16t89 -18.5q89 -37 89 -124q0 -76 -63 -122.5t-161 -46.5z" />
    <glyph glyph-name="uni0162" unicode="&#x162;" horiz-adv-x="629" 
d="M388 0h-39l-6 -25q41 2 67.5 -21t26.5 -63q0 -42 -31 -70.5t-80 -26.5q-33 0 -60 15.5t-39 40.5l42 30q20 -31 55 -30q22 1 34 12.5t12 28.5q0 25 -29 35.5t-66 -0.5l16 74h-50v571h-227v129h601v-129h-227v-571z" />
    <glyph glyph-name="uni0163" unicode="&#x163;" horiz-adv-x="443" 
d="M332 -25q41 2 67.5 -21t26.5 -63q0 -42 -31 -70.5t-80 -26.5q-33 0 -60 15.5t-39 40.5l42 30q20 -31 55 -30q22 1 34 12.5t12 28.5q0 25 -28.5 35.5t-66.5 -0.5l16 74q-73 8 -117 55.5t-44 119.5v198h-105v122h105v144h138v-144h138v-122h-138v-167q0 -80 85 -80
q25 0 51 8l15 -120q-38 -12 -71 -15z" />
    <glyph glyph-name="Tcaron" unicode="&#x164;" horiz-adv-x="629" 
d="M272 780l-103 143h87l58 -83l58 83h88l-102 -143h-86zM241 0v571h-227v129h601v-129h-227v-571h-147z" />
    <glyph glyph-name="tcaron" unicode="&#x165;" horiz-adv-x="443" 
d="M149 719l-103 143h87l58 -83l58 83h88l-102 -143h-86zM310 -2q-85 0 -138 48.5t-53 128.5v198h-105v122h105v144h138v-144h138v-122h-138v-167q0 -80 85 -80q25 0 51 8l15 -120q-51 -16 -98 -16z" />
    <glyph glyph-name="Tbar" unicode="&#x166;" horiz-adv-x="629" 
d="M615 571h-227v-172h112v-99h-112v-300h-147v300h-112v99h112v172h-227v129h601v-129z" />
    <glyph glyph-name="tbar" unicode="&#x167;" horiz-adv-x="443" 
d="M393 134l15 -120q-51 -16 -98 -16q-85 0 -138 48.5t-53 128.5v71h-104v71h104v56h-105v122h105v144h138v-144h138v-122h-138v-56h139v-71h-139v-40q0 -80 85 -80q25 0 51 8z" />
    <glyph glyph-name="Utilde" unicode="&#x168;" horiz-adv-x="705" 
d="M297 803q-59 0 -86 43l43 55q17 -23 46 -23q20 0 52 15t56 15q50 0 86 -45l-40 -53q-20 23 -51 23q-18 0 -50.5 -15t-55.5 -15zM353 -10q-128 0 -215.5 80.5t-87.5 212.5v417h147v-388q0 -78 41 -130t115 -52q73 0 114 52t41 130v388h147v-417q0 -132 -87 -212.5
t-215 -80.5z" />
    <glyph glyph-name="utilde" unicode="&#x169;" horiz-adv-x="594" 
d="M236 598q-59 0 -86 43l43 55q17 -23 46 -23q20 0 52 15t56 15q50 0 86 -45l-40 -53q-20 23 -51 23q-18 0 -50.5 -15t-55.5 -15zM257 -6q-97 0 -155.5 64t-58.5 180v257h140v-242q0 -67 29.5 -103t78.5 -36q53 0 83 37t30 105v239h140v-495h-138v60h-2q-54 -66 -147 -66z
" />
    <glyph glyph-name="Umacron" unicode="&#x16a;" horiz-adv-x="705" 
d="M224 813v84h259v-84h-259zM353 -10q-128 0 -215.5 80.5t-87.5 212.5v417h147v-388q0 -78 41 -130t115 -52q73 0 114 52t41 130v388h147v-417q0 -132 -87 -212.5t-215 -80.5z" />
    <glyph glyph-name="umacron" unicode="&#x16b;" horiz-adv-x="594" 
d="M162 608v84h259v-84h-259zM257 -6q-97 0 -155.5 64t-58.5 180v257h140v-242q0 -67 29.5 -103t78.5 -36q53 0 83 37t30 105v239h140v-495h-138v60h-2q-54 -66 -147 -66z" />
    <glyph glyph-name="Uring" unicode="&#x16e;" horiz-adv-x="705" 
d="M353 776q-33 0 -56 23.5t-23 56.5q0 32 23 55t56 23q32 0 55 -23t23 -55q0 -33 -23 -56.5t-55 -23.5zM353 826q12 0 20 8.5t8 20.5t-8 20.5t-20 8.5t-20.5 -8.5t-8.5 -20.5q0 -11 8.5 -20t20.5 -9zM353 -10q-128 0 -215.5 80.5t-87.5 212.5v417h147v-388q0 -78 41 -130
t115 -52q73 0 114 52t41 130v388h147v-417q0 -132 -87 -212.5t-215 -80.5z" />
    <glyph glyph-name="uring" unicode="&#x16f;" horiz-adv-x="594" 
d="M291 571q-33 0 -56 23.5t-23 56.5q0 32 23 55t56 23q32 0 55 -23t23 -55q0 -33 -23 -56.5t-55 -23.5zM291 621q12 0 20 8.5t8 20.5t-8 20.5t-20 8.5t-20.5 -8.5t-8.5 -20.5q0 -11 8.5 -20t20.5 -9zM257 -6q-97 0 -155.5 64t-58.5 180v257h140v-242q0 -67 29.5 -103
t78.5 -36q53 0 83 37t30 105v239h140v-495h-138v60h-2q-54 -66 -147 -66z" />
    <glyph glyph-name="Uhungarumlaut" unicode="&#x170;" horiz-adv-x="705" 
d="M246 780l69 143h94l-86 -143h-77zM381 780l69 143h94l-86 -143h-77zM353 -10q-128 0 -215.5 80.5t-87.5 212.5v417h147v-388q0 -78 41 -130t115 -52q73 0 114 52t41 130v388h147v-417q0 -132 -87 -212.5t-215 -80.5z" />
    <glyph glyph-name="uhungarumlaut" unicode="&#x171;" horiz-adv-x="594" 
d="M185 575l69 143h94l-86 -143h-77zM320 575l69 143h94l-86 -143h-77zM257 -6q-97 0 -155.5 64t-58.5 180v257h140v-242q0 -67 29.5 -103t78.5 -36q53 0 83 37t30 105v239h140v-495h-138v60h-2q-54 -66 -147 -66z" />
    <glyph glyph-name="Uogonek" unicode="&#x172;" horiz-adv-x="705" 
d="M508 700h147v-417q0 -110 -61.5 -185t-160.5 -99q-52 -22 -52 -65q0 -29 22 -43t54 -14v-105q-72 -3 -117.5 29t-45.5 98q0 53 48 91q-125 4 -208.5 84t-83.5 209v417h147v-388q0 -78 41 -130t115 -52q73 0 114 52t41 130v388z" />
    <glyph glyph-name="uogonek" unicode="&#x173;" horiz-adv-x="594" 
d="M457 0q-47 -22 -47 -63q0 -29 22 -43t54 -14v-105q-72 -3 -117.5 29t-45.5 98q0 73 83 113v45h-2q-54 -66 -147 -66q-97 0 -155.5 64t-58.5 180v257h140v-242q0 -67 29.5 -103t78.5 -36q53 0 83 37t30 105v239h140v-495h-87z" />
    <glyph glyph-name="Wcircumflex" unicode="&#x174;" horiz-adv-x="1037" 
d="M363 785l105 140h102l106 -140h-100l-56 78l-57 -78h-100zM208 0l-198 700h158l130 -505l151 505h139l151 -505l130 505h158l-198 -700h-169l-141 452l-142 -452h-169z" />
    <glyph glyph-name="wcircumflex" unicode="&#x175;" horiz-adv-x="887" 
d="M286 580l105 140h102l106 -140h-100l-56 78l-57 -78h-100zM181 0l-170 495h149l100 -338l111 338h146l110 -338l100 338h149l-170 -495h-160l-102 330l-103 -330h-160z" />
    <glyph glyph-name="Ycircumflex" unicode="&#x176;" horiz-adv-x="663" 
d="M175 785l105 140h102l106 -140h-100l-56 78l-57 -78h-100zM258 0v278l-250 422h171l153 -282l152 282h171l-250 -422v-278h-147z" />
    <glyph glyph-name="ycircumflex" unicode="&#x177;" horiz-adv-x="575" 
d="M138 584l105 140h102l106 -140h-100l-56 78l-57 -78h-100zM54 -250l13 131q109 2 136 89l15 35l-208 490h149l130 -355l127 355h149l-238 -573q-38 -92 -104.5 -132t-168.5 -40z" />
    <glyph glyph-name="Ydieresis" unicode="&#x178;" horiz-adv-x="663" 
d="M241 796q-25 0 -42.5 17.5t-17.5 42.5q0 23 17.5 40.5t42.5 17.5t42 -17t17 -41q0 -25 -17 -42.5t-42 -17.5zM424 796q-25 0 -43 17.5t-18 42.5q0 24 18 41t43 17q24 0 41.5 -17t17.5 -41q0 -25 -17.5 -42.5t-41.5 -17.5zM258 0v278l-250 422h171l153 -282l152 282h171
l-250 -422v-278h-147z" />
    <glyph glyph-name="Zacute" unicode="&#x179;" horiz-adv-x="585" 
d="M246 784l69 143h110l-85 -143h-94zM34 0v127l335 440h-335v133h513v-127l-335 -440h350v-133h-528z" />
    <glyph glyph-name="zacute" unicode="&#x17a;" horiz-adv-x="556" 
d="M235 579l69 143h110l-85 -143h-94zM44 0v117l275 257h-262v121h452v-117l-275 -257h285v-121h-475z" />
    <glyph glyph-name="Zdotaccent" unicode="&#x17b;" horiz-adv-x="585" 
d="M291 789q-29 0 -49 19.5t-20 47.5q0 27 20 46.5t48 19.5t47.5 -19.5t19.5 -46.5q0 -28 -19.5 -47.5t-46.5 -19.5zM34 0v127l335 440h-335v133h513v-127l-335 -440h350v-133h-528z" />
    <glyph glyph-name="zdotaccent" unicode="&#x17c;" horiz-adv-x="556" 
d="M280 584q-29 0 -49 19.5t-20 47.5q0 27 20 46.5t48 19.5t47.5 -19.5t19.5 -46.5q0 -28 -19.5 -47.5t-46.5 -19.5zM44 0v117l275 257h-262v121h452v-117l-275 -257h285v-121h-475z" />
    <glyph glyph-name="Zcaron" unicode="&#x17d;" horiz-adv-x="585" 
d="M247 780l-103 143h87l58 -83l58 83h88l-102 -143h-86zM34 0v127l335 440h-335v133h513v-127l-335 -440h350v-133h-528z" />
    <glyph glyph-name="zcaron" unicode="&#x17e;" horiz-adv-x="556" 
d="M236 575l-103 143h87l58 -83l58 83h88l-102 -143h-86zM44 0v117l275 257h-262v121h452v-117l-275 -257h285v-121h-475z" />
    <glyph glyph-name="uni0189" unicode="&#x189;" horiz-adv-x="716" 
d="M332 701q95 0 174 -39.5t129 -120.5t50 -190q0 -82 -29 -149.5t-77.5 -111t-112 -67t-134.5 -23.5h-271v301h-63v98h63v301zM326 144q93 0 152.5 52.5t59.5 154.5t-59.5 154t-152.5 52l-118 -1v-157h161v-98h-161v-157h118z" />
    <glyph glyph-name="uni018E" unicode="&#x18e;" horiz-adv-x="589" 
d="M528 0h-494v131h347v157h-340v127h340v154h-347v131h494v-700z" />
    <glyph glyph-name="uni018F" unicode="&#x18f;" horiz-adv-x="775" 
d="M387 710q150 0 253.5 -105t103.5 -255t-103.5 -255t-253.5 -105q-149 0 -252.5 105t-103.5 255v51h561q-14 80 -70 127.5t-134 47.5q-116 0 -185 -98l-103 86q49 68 124 107t163 39zM388 119q72 0 126.5 44t74.5 118h-403q20 -74 74.5 -118t127.5 -44z" />
    <glyph glyph-name="florin" unicode="&#x192;" horiz-adv-x="447" 
d="M40 -250l-1 137q37 0 61 20t24 63v403h-105v122h105v82q0 80 53.5 129.5t138.5 49.5q42 0 95 -14l-16 -127q-24 7 -47 7q-37 0 -60.5 -20t-23.5 -63v-44h138v-122h-138l-1 -410q-2 -209 -223 -213z" />
    <glyph glyph-name="Ohorn" unicode="&#x1a0;" horiz-adv-x="775" 
d="M653 592q91 -102 91 -242q0 -150 -103.5 -255t-252.5 -105q-150 0 -253.5 105t-103.5 255t103.5 255t253.5 105q119 0 215 -72q34 17 31 54q-1 38 -55 78l80 33q50 -48 55 -100q6 -77 -61 -111zM387 134q89 0 149.5 62.5t60.5 153.5t-60.5 153.5t-149.5 62.5
q-88 0 -148.5 -62.5t-60.5 -153.5t60.5 -153.5t148.5 -62.5z" />
    <glyph glyph-name="ohorn" unicode="&#x1a1;" horiz-adv-x="596" 
d="M511 406q54 -70 54 -158q0 -109 -78.5 -185.5t-188.5 -76.5t-188.5 76.5t-78.5 185.5t78.5 186.5t188.5 77.5q91 0 165 -56q17 16 15 42q-1 38 -55 78l80 33q50 -48 55 -100q6 -66 -47 -103zM298 117q51 -1 86.5 36.5t35.5 93.5q0 57 -35.5 94.5t-86.5 36.5
q-51 1 -86.5 -36.5t-35.5 -94.5q0 -56 35.5 -93.5t86.5 -36.5z" />
    <glyph glyph-name="Uhorn" unicode="&#x1af;" horiz-adv-x="705" 
d="M719 768q8 -78 -64 -113v-372q0 -132 -87 -212.5t-215 -80.5t-215.5 80.5t-87.5 212.5v417h147v-388q0 -78 41 -130t115 -52q73 0 114 52t41 130v388h91q43 14 40 57q-1 38 -55 78l80 33q50 -48 55 -100z" />
    <glyph glyph-name="uhorn" unicode="&#x1b0;" horiz-adv-x="594" 
d="M615 558q8 -83 -71 -116v-442h-138v60h-2q-54 -66 -147 -66q-97 0 -155.5 64t-58.5 180v257h140v-242q0 -67 29.5 -103t78.5 -36q53 0 83 37t30 105v239h103q31 17 28 52q-1 38 -55 78l80 33q50 -48 55 -100z" />
    <glyph glyph-name="uni01CD" unicode="&#x1cd;" horiz-adv-x="738" 
d="M324 780l-103 143h87l58 -83l58 83h88l-102 -143h-86zM8 0l282 700h155l285 -700h-162l-45 115h-309l-44 -115h-162zM261 249h215l-107 282h-2z" />
    <glyph glyph-name="uni01CE" unicode="&#x1ce;" horiz-adv-x="609" 
d="M260 575l-103 143h87l58 -83l58 83h88l-102 -143h-86zM256 -9q-99 0 -165 74t-66 183t66 182.5t165 73.5q103 0 163 -71v62h140v-495h-140v62q-61 -71 -163 -71zM291 114q54 0 91 38.5t37 95.5t-37 95.5t-91 38.5t-90.5 -38t-36.5 -96t36.5 -96t90.5 -38z" />
    <glyph glyph-name="uni01CF" unicode="&#x1cf;" horiz-adv-x="268" 
d="M91 780l-103 143h87l58 -83l58 83h88l-102 -143h-86zM61 0v700h147v-700h-147z" />
    <glyph glyph-name="uni01D0" unicode="&#x1d0;" horiz-adv-x="235" 
d="M76 575l-103 143h87l58 -83l58 83h88l-102 -143h-86zM49 0v495h137v-495h-137z" />
    <glyph glyph-name="uni01D1" unicode="&#x1d1;" horiz-adv-x="775" 
d="M345 780l-103 143h87l58 -83l58 83h88l-102 -143h-86zM388 -10q-150 0 -253.5 105t-103.5 255t103.5 255t253.5 105q149 0 252.5 -105t103.5 -255t-103.5 -255t-252.5 -105zM387 134q89 0 149.5 62.5t60.5 153.5t-60.5 153.5t-149.5 62.5q-88 0 -148.5 -62.5
t-60.5 -153.5t60.5 -153.5t148.5 -62.5z" />
    <glyph glyph-name="uni01D2" unicode="&#x1d2;" horiz-adv-x="596" 
d="M251 575l-103 143h87l58 -83l58 83h88l-102 -143h-86zM298 -14q-110 0 -188.5 76.5t-78.5 185.5t78.5 186.5t188.5 77.5t188.5 -77.5t78.5 -186.5t-78.5 -185.5t-188.5 -76.5zM298 117q51 -1 86.5 36.5t35.5 93.5q0 57 -35.5 94.5t-86.5 36.5q-51 1 -86.5 -36.5
t-35.5 -94.5q0 -56 35.5 -93.5t86.5 -36.5z" />
    <glyph glyph-name="uni01D3" unicode="&#x1d3;" horiz-adv-x="705" 
d="M310 780l-103 143h87l58 -83l58 83h88l-102 -143h-86zM353 -10q-128 0 -215.5 80.5t-87.5 212.5v417h147v-388q0 -78 41 -130t115 -52q73 0 114 52t41 130v388h147v-417q0 -132 -87 -212.5t-215 -80.5z" />
    <glyph glyph-name="uni01D4" unicode="&#x1d4;" horiz-adv-x="594" 
d="M249 575l-103 143h87l58 -83l58 83h88l-102 -143h-86zM257 -6q-97 0 -155.5 64t-58.5 180v257h140v-242q0 -67 29.5 -103t78.5 -36q53 0 83 37t30 105v239h140v-495h-138v60h-2q-54 -66 -147 -66z" />
    <glyph glyph-name="uni01D5" unicode="&#x1d5;" horiz-adv-x="705" 
d="M224 1027v84h259v-84h-259zM262 796q-25 0 -42.5 17.5t-17.5 42.5q0 23 17.5 40.5t42.5 17.5q24 0 41.5 -17t17.5 -41q0 -25 -17 -42.5t-42 -17.5zM445 796q-25 0 -43 17.5t-18 42.5q0 24 18 41t43 17q24 0 41.5 -17t17.5 -41q0 -25 -17.5 -42.5t-41.5 -17.5zM353 -10
q-128 0 -215.5 80.5t-87.5 212.5v417h147v-388q0 -78 41 -130t115 -52q73 0 114 52t41 130v388h147v-417q0 -132 -87 -212.5t-215 -80.5z" />
    <glyph glyph-name="uni01D6" unicode="&#x1d6;" horiz-adv-x="594" 
d="M162 822v84h259v-84h-259zM201 591q-25 0 -42.5 17.5t-17.5 42.5q0 23 17.5 40.5t42.5 17.5t42 -17.5t17 -40.5q0 -25 -17 -42.5t-42 -17.5zM384 591q-25 0 -43 17.5t-18 42.5q0 24 18 41t43 17q24 0 41.5 -17t17.5 -41q0 -25 -17.5 -42.5t-41.5 -17.5zM257 -6
q-97 0 -155.5 64t-58.5 180v257h140v-242q0 -67 29.5 -103t78.5 -36q53 0 83 37t30 105v239h140v-495h-138v60h-2q-54 -66 -147 -66z" />
    <glyph glyph-name="uni01D7" unicode="&#x1d7;" horiz-adv-x="705" 
d="M309 998l69 143h110l-85 -143h-94zM262 796q-25 0 -42.5 17.5t-17.5 42.5q0 23 17.5 40.5t42.5 17.5q24 0 41.5 -17t17.5 -41q0 -25 -17 -42.5t-42 -17.5zM445 796q-25 0 -43 17.5t-18 42.5q0 24 18 41t43 17q24 0 41.5 -17t17.5 -41q0 -25 -17.5 -42.5t-41.5 -17.5z
M353 -10q-128 0 -215.5 80.5t-87.5 212.5v417h147v-388q0 -78 41 -130t115 -52q73 0 114 52t41 130v388h147v-417q0 -132 -87 -212.5t-215 -80.5z" />
    <glyph glyph-name="uni01D8" unicode="&#x1d8;" horiz-adv-x="594" 
d="M248 793l69 143h110l-85 -143h-94zM201 591q-25 0 -42.5 17.5t-17.5 42.5q0 23 17.5 40.5t42.5 17.5t42 -17.5t17 -40.5q0 -25 -17 -42.5t-42 -17.5zM384 591q-25 0 -43 17.5t-18 42.5q0 24 18 41t43 17q24 0 41.5 -17t17.5 -41q0 -25 -17.5 -42.5t-41.5 -17.5zM257 -6
q-97 0 -155.5 64t-58.5 180v257h140v-242q0 -67 29.5 -103t78.5 -36q53 0 83 37t30 105v239h140v-495h-138v60h-2q-54 -66 -147 -66z" />
    <glyph glyph-name="uni01D9" unicode="&#x1d9;" horiz-adv-x="705" 
d="M310 994l-103 143h87l58 -83l58 83h88l-102 -143h-86zM262 796q-25 0 -42.5 17.5t-17.5 42.5q0 23 17.5 40.5t42.5 17.5q24 0 41.5 -17t17.5 -41q0 -25 -17 -42.5t-42 -17.5zM445 796q-25 0 -43 17.5t-18 42.5q0 24 18 41t43 17q24 0 41.5 -17t17.5 -41
q0 -25 -17.5 -42.5t-41.5 -17.5zM353 -10q-128 0 -215.5 80.5t-87.5 212.5v417h147v-388q0 -78 41 -130t115 -52q73 0 114 52t41 130v388h147v-417q0 -132 -87 -212.5t-215 -80.5z" />
    <glyph glyph-name="uni01DA" unicode="&#x1da;" horiz-adv-x="594" 
d="M249 789l-103 143h87l58 -83l58 83h88l-102 -143h-86zM201 591q-25 0 -42.5 17.5t-17.5 42.5q0 23 17.5 40.5t42.5 17.5t42 -17.5t17 -40.5q0 -25 -17 -42.5t-42 -17.5zM384 591q-25 0 -43 17.5t-18 42.5q0 24 18 41t43 17q24 0 41.5 -17t17.5 -41q0 -25 -17.5 -42.5
t-41.5 -17.5zM257 -6q-97 0 -155.5 64t-58.5 180v257h140v-242q0 -67 29.5 -103t78.5 -36q53 0 83 37t30 105v239h140v-495h-138v60h-2q-54 -66 -147 -66z" />
    <glyph glyph-name="uni01DB" unicode="&#x1db;" horiz-adv-x="705" 
d="M307 998l-96 143h111l78 -143h-93zM262 796q-25 0 -42.5 17.5t-17.5 42.5q0 23 17.5 40.5t42.5 17.5q24 0 41.5 -17t17.5 -41q0 -25 -17 -42.5t-42 -17.5zM445 796q-25 0 -43 17.5t-18 42.5q0 24 18 41t43 17q24 0 41.5 -17t17.5 -41q0 -25 -17.5 -42.5t-41.5 -17.5z
M353 -10q-128 0 -215.5 80.5t-87.5 212.5v417h147v-388q0 -78 41 -130t115 -52q73 0 114 52t41 130v388h147v-417q0 -132 -87 -212.5t-215 -80.5z" />
    <glyph glyph-name="uni01DC" unicode="&#x1dc;" horiz-adv-x="594" 
d="M245 793l-96 143h111l78 -143h-93zM201 591q-25 0 -42.5 17.5t-17.5 42.5q0 23 17.5 40.5t42.5 17.5t42 -17.5t17 -40.5q0 -25 -17 -42.5t-42 -17.5zM384 591q-25 0 -43 17.5t-18 42.5q0 24 18 41t43 17q24 0 41.5 -17t17.5 -41q0 -25 -17.5 -42.5t-41.5 -17.5zM257 -6
q-97 0 -155.5 64t-58.5 180v257h140v-242q0 -67 29.5 -103t78.5 -36q53 0 83 37t30 105v239h140v-495h-138v60h-2q-54 -66 -147 -66z" />
    <glyph glyph-name="uni01DE" unicode="&#x1de;" horiz-adv-x="738" 
d="M238 997v85h258v-85h-258zM276 796q-25 0 -42.5 17.5t-17.5 42.5q0 23 17.5 40.5t42.5 17.5q24 0 41.5 -17t17.5 -41q0 -25 -17 -42.5t-42 -17.5zM459 796q-25 0 -43 17.5t-18 42.5q0 24 18 41t43 17q24 0 41.5 -17t17.5 -41q0 -25 -17.5 -42.5t-41.5 -17.5zM8 0l282 700
h155l285 -700h-162l-45 115h-309l-44 -115h-162zM261 249h215l-107 282h-2z" />
    <glyph glyph-name="uni01DF" unicode="&#x1df;" horiz-adv-x="609" 
d="M173 792v85h258v-85h-258zM212 591q-25 0 -42.5 17.5t-17.5 42.5q0 23 17.5 40.5t42.5 17.5q24 0 41.5 -17.5t17.5 -40.5q0 -25 -17 -42.5t-42 -17.5zM395 591q-25 0 -43 17.5t-18 42.5q0 24 18 41t43 17q24 0 41.5 -17t17.5 -41q0 -25 -17.5 -42.5t-41.5 -17.5zM256 -9
q-99 0 -165 74t-66 183t66 182.5t165 73.5q103 0 163 -71v62h140v-495h-140v62q-61 -71 -163 -71zM291 114q54 0 91 38.5t37 95.5t-37 95.5t-91 38.5t-90.5 -38t-36.5 -96t36.5 -96t90.5 -38z" />
    <glyph glyph-name="Gcaron" unicode="&#x1e6;" horiz-adv-x="749" 
d="M427 780h-86l-103 143h87l58 -83l58 83h88zM434 383h286v-164q-31 -109 -121 -169t-211 -60q-152 0 -254.5 105t-102.5 255t103.5 255t253.5 105q211 0 308 -170l-135 -72q-60 96 -174 96q-91 0 -150 -62t-59 -152q0 -95 60 -157.5t153 -62.5q130 0 180 94v50h-137v109z
" />
    <glyph glyph-name="gcaron" unicode="&#x1e7;" horiz-adv-x="610" 
d="M244 575l-103 143h87l58 -83l58 83h88l-102 -143h-86zM275 -250q-75 -1 -140.5 31t-103.5 86l99 84q59 -76 146 -76q57 0 100.5 39t43.5 111v37q-56 -71 -161 -71q-100 0 -166.5 74t-66.5 183t66.5 182.5t166.5 73.5q101 0 161 -71v62h140v-461q0 -137 -82.5 -210.5
t-202.5 -73.5zM292 114q54 0 91 38.5t37 95.5t-37 95.5t-91 38.5t-90 -38t-36 -96t36 -96t90 -38z" />
    <glyph glyph-name="Oslashacute" unicode="&#x1fe;" horiz-adv-x="775" 
d="M523 927l-85 -143h-94l69 143h110zM583 652q75 -49 118 -128.5t43 -173.5q0 -150 -103.5 -255t-252.5 -105q-60 0 -114 18l-29 -61h-101l48 101q-75 49 -118 128.5t-43 173.5q0 150 103.5 255t253.5 105q60 0 114 -18l29 61h101zM178 350q0 -105 78 -170l182 380
q-24 6 -51 6q-88 0 -148.5 -62.5t-60.5 -153.5zM387 134q89 0 149.5 62.5t60.5 153.5q0 105 -77 169l-182 -379q22 -6 49 -6z" />
    <glyph glyph-name="oslashacute" unicode="&#x1ff;" horiz-adv-x="578" 
d="M429 722l-85 -143h-94l69 143h110zM428 479q63 -35 100 -96.5t37 -134.5q0 -109 -78.5 -185.5t-188.5 -76.5q-52 0 -99 19l-32 -66h-59l44 90q-56 36 -88.5 93.5t-32.5 125.5q0 109 78.5 186.5t188.5 77.5q42 0 81 -12l24 49h59zM176 247q0 -55 36 -94l108 223
q-7 2 -22 2q-51 1 -86.5 -36.5t-35.5 -94.5zM298 117q51 -1 86.5 36.5t35.5 93.5q0 72 -52 109l-112 -232q18 -7 42 -7z" />
    <glyph glyph-name="uni0218" unicode="&#x218;" horiz-adv-x="575" 
d="M292 -11q-101 0 -173.5 48.5t-98.5 133.5l142 40q13 -41 48.5 -64.5t82.5 -23.5q49 0 79 22t30 57q0 13 -4 23t-14 18.5t-18 13.5t-26 11t-27.5 8.5t-33 8.5t-32.5 8q-36 9 -62 18t-57.5 26t-51.5 37.5t-33.5 53t-13.5 72.5q0 91 73 151.5t180 60.5q96 0 160 -45.5
t90 -129.5l-134 -39q-27 83 -113 83q-48 0 -76.5 -24t-28.5 -57q0 -10 2.5 -18t8 -15t11 -12.5t16 -11t17.5 -8.5t22 -7.5t22.5 -7t25 -7t24.5 -6.5q31 -9 43 -12t42 -14t44 -19.5t36.5 -24.5t33 -33.5t19 -43t8.5 -54.5q0 -97 -75.5 -157t-187.5 -60zM185 -221l51 166h94
l-60 -166h-85z" />
    <glyph glyph-name="uni0219" unicode="&#x219;" horiz-adv-x="491" 
d="M247 -18q-79 0 -141.5 37.5t-85.5 101.5l121 38q29 -65 108 -65q40 0 63 15.5t23 43.5q0 21 -21 31.5t-49.5 11.5t-70 6.5t-70.5 17.5q-85 38 -85 126q0 69 59 116t144 47q80 0 133.5 -37t70.5 -99l-119 -33q-7 29 -29 46.5t-55 17.5t-54.5 -16t-21.5 -39q0 -29 34 -39.5
t92 -16t89 -18.5q89 -37 89 -124q0 -76 -63 -122.5t-161 -46.5zM151 -221l51 166h94l-60 -166h-85z" />
    <glyph glyph-name="uni021A" unicode="&#x21a;" horiz-adv-x="629" 
d="M241 0v571h-227v129h601v-129h-227v-571h-147zM225 -220l51 166h94l-60 -166h-85z" />
    <glyph glyph-name="uni021B" unicode="&#x21b;" horiz-adv-x="443" 
d="M310 -2q-85 0 -138 48.5t-53 128.5v198h-105v122h105v144h138v-144h138v-122h-138v-167q0 -80 85 -80q25 0 51 8l15 -120q-51 -16 -98 -16zM214 -220l51 166h94l-60 -166h-85z" />
    <glyph glyph-name="uni0228" unicode="&#x228;" horiz-adv-x="589" 
d="M555 569h-347v-154h340v-127h-340v-157h347v-131h-216l-6 -25q41 2 67.5 -21t26.5 -63q0 -42 -31 -70.5t-80 -26.5q-33 0 -60 15.5t-39 40.5l42 30q20 -31 55 -30q22 1 34 12.5t12 28.5q0 25 -29 35.5t-66 -0.5l16 74h-220v700h494v-131z" />
    <glyph glyph-name="uni0229" unicode="&#x229;" horiz-adv-x="557" 
d="M286 511q110 0 179.5 -69.5t70.5 -191.5q0 -26 -1 -41h-380q10 -52 46 -80t85 -28q82 0 126 57l85 -71q-32 -44 -83.5 -70t-109.5 -29l-3 -13q41 2 67.5 -21t26.5 -63q0 -42 -31 -70.5t-80 -26.5q-33 0 -60 15.5t-39 40.5l42 30q20 -31 55 -30q22 1 34 12.5t12 28.5
q0 25 -29 35.5t-66 -0.5l14 64q-97 14 -159.5 86.5t-62.5 170.5q0 113 74.5 188.5t186.5 75.5zM287 402q-48 0 -82.5 -27.5t-47.5 -75.5h253q-27 103 -123 103z" />
    <glyph glyph-name="uni0243" unicode="&#x243;" horiz-adv-x="618" 
d="M504 360q91 -51 91 -159q0 -93 -66 -147t-170 -54h-298v165h-61v99h61v436h281q105 0 169.5 -53.5t64.5 -146.5q0 -90 -72 -140zM206 574v-166h136q39 0 65 19.5t26 63.5t-26 63.5t-65 19.5h-136zM355 126q39 0 67 20.5t28 64.5q0 43 -28 63.5t-67 20.5h-149v-169h149z
" />
    <glyph glyph-name="uni0259" unicode="&#x259;" horiz-adv-x="557" 
d="M272 511q112 0 187 -75.5t75 -184.5q0 -113 -74.5 -188.5t-186.5 -75.5q-111 0 -180.5 69.5t-70.5 191.5q0 26 2 40h381q-10 53 -46.5 80.5t-85.5 27.5q-83 0 -127 -57l-85 72q34 47 92 73.5t119 26.5zM272 95q47 0 81 26t47 72h-250q29 -98 122 -98z" />
    <glyph glyph-name="uni0269" unicode="&#x269;" horiz-adv-x="310" 
d="M223 -2q-80 0 -126.5 46t-46.5 128v323h140v-297q0 -36 20 -53.5t50 -17.5q16 0 28 4l14 -122q-44 -11 -79 -11z" />
    <glyph glyph-name="uni0275" unicode="&#x275;" horiz-adv-x="596" 
d="M298 -14q-110 0 -188.5 76.5t-78.5 185.5t78.5 186.5t188.5 77.5t188.5 -77.5t78.5 -186.5t-78.5 -185.5t-188.5 -76.5zM179 302h237q-14 38 -45.5 60.5t-72.5 21.5q-41 1 -73 -21.5t-46 -60.5zM298 111q41 0 73 22t45 60h-237q14 -38 46 -60t73 -22z" />
    <glyph glyph-name="uni02BC" unicode="&#x2bc;" horiz-adv-x="193" 
d="M0 565l69 187h124l-86 -187h-107z" />
    <glyph glyph-name="circumflex" unicode="&#x2c6;" horiz-adv-x="253" 
d="M0 580l105 140h102l106 -140h-100l-56 78l-57 -78h-100z" />
    <glyph glyph-name="caron" unicode="&#x2c7;" horiz-adv-x="253" 
d="M103 579l-103 143h87l58 -83l58 83h88l-102 -143h-86z" />
    <glyph glyph-name="breve" unicode="&#x2d8;" horiz-adv-x="226" 
d="M147 584q-69 0 -107.5 39.5t-39.5 94.5h74q1 -25 19 -45t54 -20q35 0 53 20t20 45h73q-1 -55 -39 -94.5t-107 -39.5z" />
    <glyph glyph-name="dotaccent" unicode="&#x2d9;" horiz-adv-x="135" 
d="M69 584q-29 0 -49 19.5t-20 47.5q0 27 20 46.5t48 19.5t47.5 -19.5t19.5 -46.5q0 -28 -19.5 -47.5t-46.5 -19.5z" />
    <glyph glyph-name="ring" unicode="&#x2da;" horiz-adv-x="146" 
d="M79 571q-33 0 -56 23.5t-23 56.5q0 32 23 55t56 23q32 0 55 -23t23 -55q0 -33 -23 -56.5t-55 -23.5zM79 621q12 0 20 8.5t8 20.5t-8 20.5t-20 8.5t-20.5 -8.5t-8.5 -20.5q0 -11 8.5 -20t20.5 -9z" />
    <glyph glyph-name="ogonek" unicode="&#x2db;" horiz-adv-x="128" 
d="M-10 -114q0 43 31 75.5t74 46.5l36 -21q-54 -22 -54 -66q0 -29 22 -43t54 -14v-105q-72 -3 -117.5 29t-45.5 98z" />
    <glyph glyph-name="tilde" unicode="&#x2dc;" horiz-adv-x="251" 
d="M88 598q-59 0 -86 43l43 55q17 -23 46 -23q20 0 52 15t56 15q50 0 86 -45l-40 -53q-20 23 -51 23q-18 0 -50.5 -15t-55.5 -15z" />
    <glyph glyph-name="hungarumlaut" unicode="&#x2dd;" horiz-adv-x="275" 
d="M0 579l69 143h94l-86 -143h-77zM135 579l69 143h94l-86 -143h-77z" />
    <glyph glyph-name="gravecomb" unicode="&#x300;" 
d="M-86 579l-96 143h111l78 -143h-93z" />
    <glyph glyph-name="acutecomb" unicode="&#x301;" 
d="M-186 579l69 143h110l-85 -143h-94z" />
    <glyph glyph-name="uni0302" unicode="&#x302;" 
d="M-313 580l105 140h102l106 -140h-100l-56 78l-57 -78h-100z" />
    <glyph glyph-name="tildecomb" unicode="&#x303;" 
d="M-197 598q-59 0 -86 43l43 55q17 -23 46 -23q20 0 52 15t56 15q50 0 86 -45l-40 -53q-20 23 -51 23q-18 0 -50.5 -15t-55.5 -15z" />
    <glyph glyph-name="uni0304" unicode="&#x304;" 
d="M-259 608v84h259v-84h-259z" />
    <glyph glyph-name="uni0306" unicode="&#x306;" 
d="M-146 584q-69 0 -107.5 39.5t-39.5 94.5h74q1 -25 19 -45t54 -20q35 0 53 20t20 45h73q-1 -55 -39 -94.5t-107 -39.5z" />
    <glyph glyph-name="uni0307" unicode="&#x307;" 
d="M-66 584q-29 0 -49 19.5t-20 47.5q0 27 20 46.5t48 19.5t47.5 -19.5t19.5 -46.5q0 -28 -19.5 -47.5t-46.5 -19.5z" />
    <glyph glyph-name="uni0308" unicode="&#x308;" 
d="M-242 591q-25 0 -42.5 17.5t-17.5 42.5q0 23 17.5 40.5t42.5 17.5q24 0 41.5 -17.5t17.5 -40.5q0 -25 -17 -42.5t-42 -17.5zM-59 591q-25 0 -43 17.5t-18 42.5q0 24 18 41t43 17q24 0 41.5 -17t17.5 -41q0 -25 -17.5 -42.5t-41.5 -17.5z" />
    <glyph glyph-name="hookabovecomb" unicode="&#x309;" 
d="M-76 562l-44 38q4 4 11.5 11t11 10t9.5 9t8 9t6.5 8t6 8.5t3.5 8.5t2.5 9.5t0.5 9.5q0 14 -9 23t-25 9q-28 0 -35 -30l-56 27q10 28 34.5 44.5t56.5 16.5q41 0 68 -24.5t27 -63.5q0 -41 -19.5 -67.5t-56.5 -55.5z" />
    <glyph glyph-name="uni030A" unicode="&#x30a;" 
d="M-78 571q-33 0 -56 23.5t-23 56.5q0 32 23 55t56 23q32 0 55 -23t23 -55q0 -33 -23 -56.5t-55 -23.5zM-78 621q12 0 20 8.5t8 20.5t-8 20.5t-20 8.5t-20.5 -8.5t-8.5 -20.5q0 -11 8.5 -20t20.5 -9z" />
    <glyph glyph-name="uni030B" unicode="&#x30b;" 
d="M-298 579l69 143h94l-86 -143h-77zM-163 579l69 143h94l-86 -143h-77z" />
    <glyph glyph-name="uni030C" unicode="&#x30c;" 
d="M-188 579l-103 143h87l58 -83l58 83h88l-102 -143h-86z" />
    <glyph glyph-name="uni0312" unicode="&#x312;" 
d="M-145 567l60 166h85l-50 -166h-95z" />
    <glyph glyph-name="uni031B" unicode="&#x31b;" 
d="M-112 417l-16 57q23 5 36 20.5t12 38.5q-1 38 -55 78l80 33q50 -48 55 -100q5 -50 -25 -84t-87 -43z" />
    <glyph glyph-name="dotbelowcomb" unicode="&#x323;" 
d="M-61 -192q-25 0 -43 18t-18 43q0 24 18 41.5t43 17.5t43 -17.5t18 -41.5q0 -25 -18 -43t-43 -18z" />
    <glyph glyph-name="uni0326" unicode="&#x326;" 
d="M-145 -220l51 166h94l-60 -166h-85z" />
    <glyph glyph-name="uni0327" unicode="&#x327;" 
d="M-111 -207q-33 0 -60 15.5t-39 40.5l42 30q20 -31 55 -30q22 1 34 12.5t12 28.5q0 25 -28.5 35.5t-66.5 -0.5l19 89h58l-9 -40q41 2 67.5 -21t26.5 -63q0 -42 -31 -70.5t-80 -26.5z" />
    <glyph glyph-name="uni0328" unicode="&#x328;" 
d="M-173 -114q0 43 31 75.5t74 46.5l36 -21q-54 -22 -54 -66q0 -29 22 -43t54 -14v-105q-72 -3 -117.5 29t-45.5 98z" />
    <glyph glyph-name="uni0335" unicode="&#x335;" 
d="M-371 297v99h371v-99h-371z" />
    <glyph glyph-name="uni0336" unicode="&#x336;" 
d="M-741 321v77h741v-77h-741z" />
    <glyph glyph-name="uni0337" unicode="&#x337;" 
d="M-322 303l-45 90l323 179l44 -90z" />
    <glyph glyph-name="uni0338" unicode="&#x338;" 
d="M-488 -61l387 806h101l-387 -806h-101z" />
    <glyph glyph-name="uni0345" unicode="&#x345;" 
d="M-94 -229q-69 0 -105 38t-36 103v44h99v-36q0 -71 69 -71q33 -1 67 13v-61q-38 -30 -94 -30z" />
    <glyph glyph-name="uni0372" unicode="&#x372;" horiz-adv-x="715" 
d="M14 700h687v-307h-121v178h-153v-571h-140v571h-153v-178h-120v307z" />
    <glyph glyph-name="uni0373" unicode="&#x373;" horiz-adv-x="579" 
d="M569 495v-119h-201v-626h-135v626h-68q-66 0 -123 -24l-32 115q83 28 168 28h391z" />
    <glyph glyph-name="uni0374" unicode="&#x374;" horiz-adv-x="175" 
d="M20 429l26 271h109l-42 -271h-93z" />
    <glyph glyph-name="uni0375" unicode="&#x375;" horiz-adv-x="175" 
d="M20 -131l42 271h93l-26 -271h-109z" />
    <glyph glyph-name="uni0376" unicode="&#x376;" horiz-adv-x="738" 
d="M61 0v700h147v-471l304 471h166v-700h-147v470l-304 -470h-166z" />
    <glyph glyph-name="uni0377" unicode="&#x377;" horiz-adv-x="599" 
d="M418 495h131v-495h-131v305l-237 -305h-131v495h131v-305z" />
    <glyph glyph-name="uni037A" unicode="&#x37a;" horiz-adv-x="235" 
d="M141 -229q-69 0 -105 38t-36 103v44h99v-36q0 -71 69 -71q33 -1 67 13v-61q-38 -30 -94 -30z" />
    <glyph glyph-name="uni037E" unicode="&#x37e;" horiz-adv-x="223" 
d="M119 369q-31 0 -53 22t-22 53q0 29 22 50.5t53 21.5q30 0 52 -21.5t22 -50.5q0 -31 -22 -53t-52 -22zM9 -166l47 228h130l-56 -228h-121z" />
    <glyph glyph-name="tonos" unicode="&#x384;" horiz-adv-x="123" 
d="M78 559l-78 12l30 176l93 -13z" />
    <glyph glyph-name="dieresistonos" unicode="&#x385;" horiz-adv-x="302" 
d="M180 728l-73 11l28 164l87 -13zM60 591q-25 0 -42.5 17.5t-17.5 42.5q0 23 17.5 40.5t42.5 17.5q24 0 41.5 -17.5t17.5 -40.5q0 -25 -17 -42.5t-42 -17.5zM243 591q-25 0 -43 17.5t-18 42.5q0 24 18 41t43 17q24 0 41.5 -17t17.5 -41q0 -25 -17.5 -42.5t-41.5 -17.5z" />
    <glyph glyph-name="Alphatonos" unicode="&#x386;" horiz-adv-x="738" 
d="M148 525l-78 12l30 176l93 -13zM8 0l282 700h155l285 -700h-162l-45 115h-309l-44 -115h-162zM261 249h215l-107 282h-2z" />
    <glyph glyph-name="anoteleia" unicode="&#x387;" horiz-adv-x="221" 
d="M111 189q-33 0 -57 23.5t-24 57.5q0 31 24 54t57 23q32 0 56 -23t24 -54q0 -34 -23.5 -57.5t-56.5 -23.5z" />
    <glyph glyph-name="Epsilontonos" unicode="&#x388;" horiz-adv-x="707" 
d="M98 525l-78 12l30 176l93 -13zM179 0v700h495v-131h-348v-154h340v-127h-340v-157h348v-131h-495z" />
    <glyph glyph-name="Etatonos" unicode="&#x389;" horiz-adv-x="850" 
d="M98 525l-78 12l30 176l93 -13zM179 0v700h147v-281h316v281h147v-700h-147v279h-316v-279h-147z" />
    <glyph glyph-name="Iotatonos" unicode="&#x38a;" horiz-adv-x="393" 
d="M98 525l-78 12l30 176l93 -13zM185 0v700h147v-700h-147z" />
    <glyph glyph-name="Omicrontonos" unicode="&#x38c;" horiz-adv-x="857" 
d="M95 525l-79 12l31 176l92 -13zM470 -10q-150 0 -253.5 105t-103.5 255t103.5 255t253.5 105q149 0 252.5 -105t103.5 -255t-103.5 -255t-252.5 -105zM469 134q89 0 149.5 62.5t60.5 153.5t-60.5 153.5t-149.5 62.5q-88 0 -148 -62.5t-60 -153.5t60 -153.5t148 -62.5z" />
    <glyph glyph-name="Upsilontonos" unicode="&#x38e;" horiz-adv-x="808" 
d="M89 525l-78 12l30 176l93 -13zM403 0v278l-250 422h171l152 -282l153 282h171l-250 -422v-278h-147z" />
    <glyph glyph-name="Omegatonos" unicode="&#x38f;" horiz-adv-x="857" 
d="M47 713l92 -13l-44 -175l-79 12zM826 364q0 -145 -112 -224h94v-140h-292v140q72 15 117.5 73.5t45.5 136.5q0 88 -59.5 147t-150.5 59q-89 0 -148.5 -59t-59.5 -147q0 -78 44.5 -136.5t115.5 -73.5v-140h-292v140h96q-112 79 -112 224q0 140 103.5 238t253.5 98
q152 0 254 -97t102 -239z" />
    <glyph glyph-name="iotadieresistonos" unicode="&#x390;" horiz-adv-x="310" 
d="M149 728l-73 11l28 164l87 -13zM29 591q-25 0 -42.5 17.5t-17.5 42.5q0 23 17.5 40.5t42.5 17.5t42 -17.5t17 -40.5q0 -25 -17 -42.5t-42 -17.5zM212 591q-25 0 -43 17.5t-18 42.5q0 24 18 41t43 17q24 0 41.5 -17t17.5 -41q0 -25 -17.5 -42.5t-41.5 -17.5zM223 -2
q-80 0 -126.5 46t-46.5 128v323h140v-297q0 -36 20 -53.5t50 -17.5q16 0 28 4l14 -122q-44 -11 -79 -11z" />
    <glyph glyph-name="Alpha" unicode="&#x391;" horiz-adv-x="738" 
d="M8 0l282 700h155l285 -700h-162l-45 115h-309l-44 -115h-162zM261 249h215l-107 282h-2z" />
    <glyph glyph-name="Beta" unicode="&#x392;" horiz-adv-x="618" 
d="M504 360q91 -51 91 -159q0 -93 -66 -147t-170 -54h-298v700h281q105 0 169.5 -53.5t64.5 -146.5q0 -90 -72 -140zM206 574v-166h136q39 0 65 19.5t26 63.5t-26 63.5t-65 19.5h-136zM355 126q39 0 67 20.5t28 64.5q0 43 -28 63.5t-67 20.5h-149v-169h149z" />
    <glyph glyph-name="Gamma" unicode="&#x393;" horiz-adv-x="549" 
d="M61 0v700h474v-131h-327v-569h-147z" />
    <glyph glyph-name="uni0394" unicode="&#x394;" horiz-adv-x="676" 
d="M11 0v122l241 578h168l244 -577v-123h-653zM175 136h325l-163 414z" />
    <glyph glyph-name="Epsilon" unicode="&#x395;" horiz-adv-x="589" 
d="M61 0v700h494v-131h-347v-154h340v-127h-340v-157h347v-131h-494z" />
    <glyph glyph-name="Zeta" unicode="&#x396;" horiz-adv-x="585" 
d="M34 0v127l335 440h-335v133h513v-127l-335 -440h350v-133h-528z" />
    <glyph glyph-name="Eta" unicode="&#x397;" horiz-adv-x="731" 
d="M61 0v700h147v-281h316v281h147v-700h-147v279h-316v-279h-147z" />
    <glyph glyph-name="Theta" unicode="&#x398;" horiz-adv-x="775" 
d="M388 -10q-150 0 -253.5 105t-103.5 255t103.5 255t253.5 105q149 0 252.5 -105t103.5 -255t-103.5 -255t-252.5 -105zM387 134q89 0 149.5 62.5t60.5 153.5t-60.5 153.5t-149.5 62.5q-88 0 -148.5 -62.5t-60.5 -153.5t60.5 -153.5t148.5 -62.5zM286 304v91h203v-91h-203z
" />
    <glyph glyph-name="Iota" unicode="&#x399;" horiz-adv-x="268" 
d="M61 0v700h147v-700h-147z" />
    <glyph glyph-name="Kappa" unicode="&#x39a;" horiz-adv-x="661" 
d="M654 0h-191l-255 291v-291h-147v700h147v-289l256 289h187l-318 -348z" />
    <glyph glyph-name="Lambda" unicode="&#x39b;" horiz-adv-x="725" 
d="M8 0l269 700h168l272 -700h-155l-201 547l-199 -547h-154z" />
    <glyph glyph-name="Mu" unicode="&#x39c;" horiz-adv-x="906" 
d="M61 0v700h168l224 -412l224 412h168v-700h-147v449l-189 -336h-113l-188 335v-448h-147z" />
    <glyph glyph-name="Nu" unicode="&#x39d;" horiz-adv-x="738" 
d="M61 0v700h165l305 -464v464h147v-700h-166l-304 463v-463h-147z" />
    <glyph glyph-name="Xi" unicode="&#x39e;" horiz-adv-x="560" 
d="M34 569v131h492v-131h-492zM112 292v127h337v-127h-337zM34 0v131h492v-131h-492z" />
    <glyph glyph-name="Omicron" unicode="&#x39f;" horiz-adv-x="775" 
d="M388 -10q-150 0 -253.5 105t-103.5 255t103.5 255t253.5 105q149 0 252.5 -105t103.5 -255t-103.5 -255t-252.5 -105zM387 134q89 0 149.5 62.5t60.5 153.5t-60.5 153.5t-149.5 62.5q-88 0 -148.5 -62.5t-60.5 -153.5t60.5 -153.5t148.5 -62.5z" />
    <glyph glyph-name="Pi" unicode="&#x3a0;" horiz-adv-x="726" 
d="M666 700v-700h-147v560h-311v-560h-147v700h605z" />
    <glyph glyph-name="Rho" unicode="&#x3a1;" horiz-adv-x="613" 
d="M61 0v700h292q99 0 168 -62t69 -168q0 -107 -69 -169t-168 -62h-147v-239h-145zM206 365h137q47 0 76 29t29 76q0 46 -29 75t-76 29h-137v-209z" />
    <glyph glyph-name="Sigma" unicode="&#x3a3;" horiz-adv-x="560" 
d="M526 700v-131h-313l145 -184v-70l-145 -184h313v-131h-492v131l178 219l-178 219v131h492z" />
    <glyph glyph-name="Tau" unicode="&#x3a4;" horiz-adv-x="629" 
d="M241 0v571h-227v129h601v-129h-227v-571h-147z" />
    <glyph glyph-name="Upsilon" unicode="&#x3a5;" horiz-adv-x="663" 
d="M258 0v278l-250 422h171l153 -282l152 282h171l-250 -422v-278h-147z" />
    <glyph glyph-name="Phi" unicode="&#x3a6;" horiz-adv-x="866" 
d="M366 0v85q-157 10 -245 79t-88 183t88 183t245 79v91h133v-91q158 -10 246 -79t88 -183q0 -115 -88 -183.5t-246 -78.5v-85h-133zM366 196v302q-91 -7 -139 -46t-48 -105t48 -105t139 -46zM499 196q91 8 139 46.5t48 104.5t-48 104.5t-139 46.5v-302z" />
    <glyph glyph-name="Chi" unicode="&#x3a7;" horiz-adv-x="663" 
d="M11 0l225 350l-218 350h174l139 -239l140 239h174l-218 -350l225 -350h-174l-146 239l-147 -239h-174z" />
    <glyph glyph-name="Psi" unicode="&#x3a8;" horiz-adv-x="825" 
d="M662 700h140v-137q0 -178 -84.5 -279.5t-231.5 -121.5v-162h-147v162q-147 20 -231.5 121.5t-84.5 279.5v137h140v-137q0 -230 176 -269v406h147v-405q176 39 176 268v137z" />
    <glyph glyph-name="uni03A9" unicode="&#x3a9;" horiz-adv-x="775" 
d="M744 364q0 -145 -112 -224h94v-140h-292v140q72 15 117.5 73.5t45.5 136.5q0 87 -60 146.5t-150 59.5t-149.5 -59.5t-59.5 -146.5q0 -78 45 -136.5t116 -73.5v-140h-292v140h96q-112 79 -112 224q0 140 103.5 238t253.5 98q152 0 254 -97t102 -239z" />
    <glyph glyph-name="Iotadieresis" unicode="&#x3aa;" horiz-adv-x="268" 
d="M43 796q-25 0 -42.5 17.5t-17.5 42.5q0 23 17.5 40.5t42.5 17.5t42 -17t17 -41q0 -25 -17 -42.5t-42 -17.5zM226 796q-25 0 -43 17.5t-18 42.5q0 24 18 41t43 17q24 0 41.5 -17t17.5 -41q0 -25 -17.5 -42.5t-41.5 -17.5zM61 0v700h147v-700h-147z" />
    <glyph glyph-name="Upsilondieresis" unicode="&#x3ab;" horiz-adv-x="663" 
d="M241 796q-25 0 -42.5 17.5t-17.5 42.5q0 23 17.5 40.5t42.5 17.5t42 -17t17 -41q0 -25 -17 -42.5t-42 -17.5zM424 796q-25 0 -43 17.5t-18 42.5q0 24 18 41t43 17q24 0 41.5 -17t17.5 -41q0 -25 -17.5 -42.5t-41.5 -17.5zM258 0v278l-250 422h171l153 -282l152 282h171
l-250 -422v-278h-147z" />
    <glyph glyph-name="alphatonos" unicode="&#x3ac;" horiz-adv-x="654" 
d="M333 559l-78 12l30 176l93 -13zM271 -9q-111 0 -178.5 73t-67.5 184q0 109 66 182.5t165 73.5t163 -76v67h140v-262q0 -74 21 -97.5t67 -20.5v-116q-13 -1 -37 -1q-114 0 -151 90q-29 -46 -78.5 -71.5t-109.5 -25.5zM291 114q54 0 91 38.5t37 95.5t-37 95.5t-91 38.5
t-90.5 -38.5t-36.5 -95.5q0 -58 36.5 -96t90.5 -38z" />
    <glyph glyph-name="epsilontonos" unicode="&#x3ad;" horiz-adv-x="489" 
d="M330 734l-45 -175l-78 12l30 176zM372 163l99 -48q-70 -125 -230 -125q-98 0 -159.5 44.5t-61.5 112.5q0 38 24.5 68t68.5 44q-77 28 -77 108q0 60 59 101t152 41q117 0 193 -85l-89 -69q-40 51 -97 51q-39 0 -63 -15.5t-24 -40.5q0 -58 95 -58h36v-78h-35
q-106 0 -106 -57q0 -28 24.5 -46t63.5 -18q85 0 127 70z" />
    <glyph glyph-name="etatonos" unicode="&#x3ae;" horiz-adv-x="632" 
d="M358 559l-78 12l30 176l93 -13zM449 -250v494q0 68 -29.5 104.5t-78.5 36.5q-54 0 -83.5 -37.5t-29.5 -103.5v-244h-140v276q0 71 -17 92t-64 18v109q40 12 67 12q58 0 91.5 -23.5t54.5 -74.5q49 95 162 95q92 0 149.5 -65.5t57.5 -181.5v-507h-140z" />
    <glyph glyph-name="iotatonos" unicode="&#x3af;" horiz-adv-x="310" 
d="M163 559l-78 12l30 176l93 -13zM223 -2q-80 0 -126.5 46t-46.5 128v323h140v-297q0 -36 20 -53.5t50 -17.5q16 0 28 4l14 -122q-44 -11 -79 -11z" />
    <glyph glyph-name="upsilondieresistonos" unicode="&#x3b0;" horiz-adv-x="590" 
d="M305 728l-73 11l28 164l87 -13zM185 591q-25 0 -42.5 17.5t-17.5 42.5q0 23 17.5 40.5t42.5 17.5t42 -17.5t17 -40.5q0 -25 -17 -42.5t-42 -17.5zM368 591q-25 0 -43 17.5t-18 42.5q0 24 18 41t43 17q24 0 41.5 -17t17.5 -41q0 -25 -17.5 -42.5t-41.5 -17.5zM295 -5
q-120 0 -186 63t-66 184v253h140v-241q0 -71 30.5 -105.5t81.5 -34.5q112 0 112 148q0 100 -38 233h140q38 -132 38 -222q0 -278 -252 -278z" />
    <glyph glyph-name="alpha" unicode="&#x3b1;" horiz-adv-x="654" 
d="M271 -9q-111 0 -178.5 73t-67.5 184q0 109 66 182.5t165 73.5t163 -76v67h140v-262q0 -74 21 -97.5t67 -20.5v-116q-13 -1 -37 -1q-114 0 -151 90q-29 -46 -78.5 -71.5t-109.5 -25.5zM291 114q54 0 91 38.5t37 95.5t-37 95.5t-91 38.5t-90.5 -38.5t-36.5 -95.5
q0 -58 36.5 -96t90.5 -38z" />
    <glyph glyph-name="beta" unicode="&#x3b2;" horiz-adv-x="565" 
d="M50 -250v784q0 96 62 156t157 60q94 0 156 -54.5t62 -138.5q0 -56 -30 -95t-79 -54q64 -14 108 -66.5t44 -129.5q0 -100 -69.5 -161.5t-175.5 -61.5q-45 0 -79 14v128q30 -16 62 -16q54 0 88.5 32t34.5 85q0 50 -34.5 80t-98.5 31v109q47 2 73 26t26 63t-24.5 63
t-63.5 24q-38 0 -64 -26t-26 -68v-784h-129z" />
    <glyph glyph-name="gamma" unicode="&#x3b3;" horiz-adv-x="596" 
d="M267 -271q-31 52 -36.5 121.5t14.5 124.5q-68 270 -235 482l138 54q122 -167 167 -372l124 356h147l-187 -476q-22 -56 -23.5 -119t20.5 -119z" />
    <glyph glyph-name="delta" unicode="&#x3b4;" horiz-adv-x="557" 
d="M332 471q90 -22 142 -85t52 -152q0 -107 -72.5 -177t-178.5 -70q-104 0 -177 70t-73 177q0 63 32 117t86 87q-63 56 -63 136q0 79 53 127.5t134 48.5q95 0 161 -77l-93 -73q-21 33 -66 33q-29 0 -47.5 -18t-18.5 -48q0 -69 129 -96zM275 104q56 0 90.5 35.5t34.5 93.5
q0 45 -33 79.5t-91 52.5q-2 1 -6.5 2.5t-6.5 2.5q-47 -10 -79 -47.5t-32 -89.5q0 -55 34 -92t89 -37z" />
    <glyph glyph-name="epsilon" unicode="&#x3b5;" horiz-adv-x="489" 
d="M372 163l99 -48q-70 -125 -230 -125q-98 0 -159.5 44.5t-61.5 112.5q0 38 24.5 68t68.5 44q-77 28 -77 108q0 60 59 101t152 41q117 0 193 -85l-89 -69q-40 51 -97 51q-39 0 -63 -15.5t-24 -40.5q0 -58 95 -58h36v-78h-35q-106 0 -106 -57q0 -28 24.5 -46t63.5 -18
q85 0 127 70z" />
    <glyph glyph-name="zeta" unicode="&#x3b6;" horiz-adv-x="440" 
d="M259 -256l-62 84q90 42 90 114q0 30 -20 62.5t-48.5 63.5t-57.5 65t-49 80.5t-20 98.5q0 80 42.5 153.5t119.5 155.5h-241v129h406v-129q-97 -90 -141 -157.5t-44 -136.5q0 -46 19.5 -87.5t47 -74.5t55.5 -65.5t47.5 -72.5t19.5 -83q0 -71 -47 -122t-117 -78z" />
    <glyph glyph-name="eta" unicode="&#x3b7;" horiz-adv-x="632" 
d="M449 -250v494q0 68 -29.5 104.5t-78.5 36.5q-54 0 -83.5 -37.5t-29.5 -103.5v-244h-140v276q0 71 -17 92t-64 18v109q40 12 67 12q58 0 91.5 -23.5t54.5 -74.5q49 95 162 95q92 0 149.5 -65.5t57.5 -181.5v-507h-140z" />
    <glyph glyph-name="theta" unicode="&#x3b8;" horiz-adv-x="608" 
d="M304 -10q-129 0 -201 107.5t-72 272.5t72 272.5t201 107.5t201 -107.5t72 -272.5t-72 -272.5t-201 -107.5zM175 426h258q-15 192 -129 192t-129 -192zM304 122q114 0 129 193l-258 -1q15 -192 129 -192z" />
    <glyph glyph-name="iota" unicode="&#x3b9;" horiz-adv-x="310" 
d="M223 -2q-80 0 -126.5 46t-46.5 128v323h140v-297q0 -36 20 -53.5t50 -17.5q16 0 28 4l14 -122q-44 -11 -79 -11z" />
    <glyph glyph-name="kappa" unicode="&#x3ba;" horiz-adv-x="580" 
d="M570 495l-251 -241l251 -254h-184l-196 216v-216h-140v495h140v-201l193 201h187z" />
    <glyph glyph-name="lambda" unicode="&#x3bb;" horiz-adv-x="611" 
d="M472 -15q-25 33 -50 83t-38.5 83t-40 104.5t-34.5 93.5l-144 -349h-155l225 490q-35 58 -75.5 92.5t-105.5 50.5l78 114q85 -25 138.5 -80t97.5 -137q25 -47 99.5 -232t133.5 -259z" />
    <glyph glyph-name="uni03BC" unicode="&#x3bc;" horiz-adv-x="647" 
d="M44 -250l-1 745h140v-241q0 -67 29.5 -103.5t78.5 -36.5q54 0 83.5 36t29.5 104v241h140v-262q0 -74 23.5 -97.5t72.5 -20.5v-116q-14 -1 -37 -1q-128 0 -166 92q-19 -46 -59 -70.5t-93 -24.5q-76 0 -111 54v-299h-130z" />
    <glyph glyph-name="nu" unicode="&#x3bd;" horiz-adv-x="601" 
d="M233 0q-34 132 -87.5 241t-137.5 220l141 57q110 -147 169 -379l127 356h147l-190 -495h-169z" />
    <glyph glyph-name="xi" unicode="&#x3be;" horiz-adv-x="465" 
d="M278 -256l-61 84q88 34 88 92q0 28 -29.5 53t-71.5 47t-84.5 48t-72 68t-29.5 94q0 56 37.5 100.5t93.5 61.5q-105 37 -105 123q0 79 81 116h-100v119h425v-119h-144q-55 0 -90 -29.5t-35 -74.5q0 -44 36 -71t97 -27h94v-98h-108q-64 0 -98.5 -25t-34.5 -65
q0 -29 20.5 -55t51.5 -44.5t66.5 -41t66.5 -44t51.5 -53.5t20.5 -69q0 -66 -47 -114t-119 -76z" />
    <glyph glyph-name="omicron" unicode="&#x3bf;" horiz-adv-x="596" 
d="M298 -14q-110 0 -188.5 76.5t-78.5 185.5t78.5 186.5t188.5 77.5t188.5 -77.5t78.5 -186.5t-78.5 -185.5t-188.5 -76.5zM298 117q51 -1 86.5 36.5t35.5 93.5q0 57 -35.5 94.5t-86.5 36.5q-51 1 -86.5 -36.5t-35.5 -94.5q0 -56 35.5 -93.5t86.5 -36.5z" />
    <glyph glyph-name="pi" unicode="&#x3c0;" horiz-adv-x="690" 
d="M668 379h-104v-146q0 -73 27 -96.5t77 -20.5v-116q-26 -2 -37 -2q-97 0 -152 52.5t-55 164.5v164h-158v-379h-140v379h-105v116h647v-116z" />
    <glyph glyph-name="rho" unicode="&#x3c1;" horiz-adv-x="603" 
d="M50 -250v498q0 109 77.5 186t186.5 77t186.5 -77t77.5 -186q0 -108 -71.5 -184.5t-170.5 -76.5q-100 0 -153 70v-307h-133zM314 111q55 0 93 40t38 96q0 58 -38 97.5t-93 39.5t-93 -39.5t-38 -97.5q0 -56 38 -96t93 -40z" />
    <glyph glyph-name="uni03C2" unicode="&#x3c2;" horiz-adv-x="521" 
d="M267 -256l-62 84q48 22 69 47t21 59q0 22 -20 42.5t-50 36.5t-65 39.5t-65 49t-50 68.5t-20 96q0 107 76 176t187 69q65 0 121.5 -30t93.5 -82l-105 -79q-37 63 -110 63q-55 0 -91 -33.5t-36 -83.5q0 -41 28 -74.5t67.5 -57.5t79 -49t67.5 -62t28 -83q0 -133 -164 -196z
" />
    <glyph glyph-name="sigma" unicode="&#x3c3;" horiz-adv-x="583" 
d="M562 512v-101h-65q57 -73 57 -163q0 -108 -78.5 -185t-188.5 -77t-188.5 76.5t-78.5 185.5t78.5 186.5t188.5 77.5h275zM287 117q51 -1 86.5 36.5t35.5 93.5q0 57 -35.5 94.5t-86.5 36.5q-52 1 -87.5 -36.5t-35.5 -94.5q0 -56 35.5 -93.5t87.5 -36.5z" />
    <glyph glyph-name="tau" unicode="&#x3c4;" horiz-adv-x="522" 
d="M512 376h-174v-184q0 -32 18.5 -50.5t50.5 -18.5q5 0 27 3l14 -117q-44 -11 -77 -11q-77 0 -122.5 45t-45.5 124v209h-38q-66 0 -123 -24l-32 115q83 28 168 28h334v-119z" />
    <glyph glyph-name="upsilon" unicode="&#x3c5;" horiz-adv-x="590" 
d="M295 -5q-120 0 -186 63t-66 184v253h140v-241q0 -71 30.5 -105.5t81.5 -34.5q112 0 112 148q0 100 -38 233h140q38 -132 38 -222q0 -278 -252 -278z" />
    <glyph glyph-name="phi" unicode="&#x3c6;" horiz-adv-x="791" 
d="M766 248q0 -100 -73.5 -172.5t-230.5 -86.5v-239h-133v239q-82 7 -142.5 31.5t-94.5 61t-50.5 78t-16.5 88.5q0 72 37.5 131.5t117.5 95.5l57 -108q-75 -39 -75 -120q0 -55 41 -92.5t126 -48.5v402q31 5 66 5q100 0 174.5 -22.5t116 -61.5t61 -84t19.5 -97zM462 106
q85 11 126 49t41 92q0 57 -41 95.5t-126 49.5v-286z" />
    <glyph glyph-name="chi" unicode="&#x3c7;" horiz-adv-x="586" 
d="M496 -269q-87 51 -156 181l-47 87l-120 -249h-145l198 374l-38 74q-77 150 -173 222l72 101q81 -48 158 -183l48 -84l116 241h145l-194 -369l50 -90q32 -56 48 -82t46.5 -62.5t64.5 -59.5z" />
    <glyph glyph-name="psi" unicode="&#x3c8;" horiz-adv-x="750" 
d="M301 -250v246q-126 8 -192 70t-66 176v253h140v-241q0 -121 118 -136v377h137v-379q63 5 96 39t33 107q0 100 -38 233h140q38 -132 38 -222q0 -141 -68 -206.5t-201 -70.5v-246h-137z" />
    <glyph glyph-name="omega" unicode="&#x3c9;" horiz-adv-x="848" 
d="M274 -5q-231 0 -231 278q0 90 35 222h136q-34 -135 -34 -233q0 -148 94 -148q84 0 84 140v241h132v-241q0 -140 84 -140q93 0 93 148q0 102 -33 233h136q34 -133 34 -222q0 -147 -59.5 -212.5t-170.5 -65.5q-50 0 -91.5 24.5t-58.5 68.5q-17 -44 -59 -68.5t-91 -24.5z
" />
    <glyph glyph-name="iotadieresis" unicode="&#x3ca;" horiz-adv-x="310" 
d="M29 591q-25 0 -42.5 17.5t-17.5 42.5q0 23 17.5 40.5t42.5 17.5t42 -17.5t17 -40.5q0 -25 -17 -42.5t-42 -17.5zM212 591q-25 0 -43 17.5t-18 42.5q0 24 18 41t43 17q24 0 41.5 -17t17.5 -41q0 -25 -17.5 -42.5t-41.5 -17.5zM223 -2q-80 0 -126.5 46t-46.5 128v323h140
v-297q0 -36 20 -53.5t50 -17.5q16 0 28 4l14 -122q-44 -11 -79 -11z" />
    <glyph glyph-name="upsilondieresis" unicode="&#x3cb;" horiz-adv-x="590" 
d="M185 591q-25 0 -42.5 17.5t-17.5 42.5q0 23 17.5 40.5t42.5 17.5t42 -17.5t17 -40.5q0 -25 -17 -42.5t-42 -17.5zM368 591q-25 0 -43 17.5t-18 42.5q0 24 18 41t43 17q24 0 41.5 -17t17.5 -41q0 -25 -17.5 -42.5t-41.5 -17.5zM295 -5q-120 0 -186 63t-66 184v253h140
v-241q0 -71 30.5 -105.5t81.5 -34.5q112 0 112 148q0 100 -38 233h140q38 -132 38 -222q0 -278 -252 -278z" />
    <glyph glyph-name="omicrontonos" unicode="&#x3cc;" horiz-adv-x="596" 
d="M337 559l-78 12l30 176l93 -13zM298 -14q-110 0 -188.5 76.5t-78.5 185.5t78.5 186.5t188.5 77.5t188.5 -77.5t78.5 -186.5t-78.5 -185.5t-188.5 -76.5zM298 117q51 -1 86.5 36.5t35.5 93.5q0 57 -35.5 94.5t-86.5 36.5q-51 1 -86.5 -36.5t-35.5 -94.5q0 -56 35.5 -93.5
t86.5 -36.5z" />
    <glyph glyph-name="upsilontonos" unicode="&#x3cd;" horiz-adv-x="590" 
d="M319 559l-78 12l30 176l93 -13zM295 -5q-120 0 -186 63t-66 184v253h140v-241q0 -71 30.5 -105.5t81.5 -34.5q112 0 112 148q0 100 -38 233h140q38 -132 38 -222q0 -278 -252 -278z" />
    <glyph glyph-name="omegatonos" unicode="&#x3ce;" horiz-adv-x="848" 
d="M467 559l-78 12l30 176l93 -13zM274 -5q-231 0 -231 278q0 90 35 222h136q-34 -135 -34 -233q0 -148 94 -148q84 0 84 140v241h132v-241q0 -140 84 -140q93 0 93 148q0 102 -33 233h136q34 -133 34 -222q0 -147 -59.5 -212.5t-170.5 -65.5q-50 0 -91.5 24.5t-58.5 68.5
q-17 -44 -59 -68.5t-91 -24.5z" />
    <glyph glyph-name="uni03D7" unicode="&#x3d7;" horiz-adv-x="647" 
d="M511 59h83q0 -124 -63.5 -189.5t-190.5 -65.5v120q104 0 121 78l-75 -2l-196 207v-207h-140v495h140v-194l193 194h187l-251 -241z" />
    <glyph glyph-name="uni03D8" unicode="&#x3d8;" horiz-adv-x="775" 
d="M744 350q0 -133 -83.5 -233t-211.5 -122v-184h-120v184q-129 21 -213.5 121t-84.5 234q0 150 103.5 255t253.5 105q149 0 252.5 -105t103.5 -255zM387 134q89 0 149.5 62.5t60.5 153.5t-60.5 153.5t-149.5 62.5q-88 0 -148.5 -62.5t-60.5 -153.5t60.5 -153.5t148.5 -62.5
z" />
    <glyph glyph-name="uni03D9" unicode="&#x3d9;" horiz-adv-x="578" 
d="M565 248q0 -97 -64 -170t-160 -89v-178h-103v182q-89 20 -148 91t-59 164q0 109 78.5 186.5t188.5 77.5t188.5 -77.5t78.5 -186.5zM298 117q51 -1 86.5 36.5t35.5 93.5q0 57 -35.5 94.5t-86.5 36.5q-51 1 -86.5 -36.5t-35.5 -94.5q0 -56 35.5 -93.5t86.5 -36.5z" />
    <glyph glyph-name="uni03F7" unicode="&#x3f7;" horiz-adv-x="596" 
d="M61 0v700h147v-120h127q100 0 169 -61.5t69 -168.5t-69 -168.5t-169 -61.5h-127v-120h-147zM208 252h115q47 0 75 26t28 72t-28 72t-75 26h-115v-196z" />
    <glyph glyph-name="uni03F8" unicode="&#x3f8;" horiz-adv-x="609" 
d="M50 -250v1000h140v-318q62 72 163 72q99 0 165 -73.5t66 -182.5t-66 -183t-165 -74q-100 0 -163 72v-313h-140zM318 114q54 0 90 38t36 96t-36 96t-90 38t-91 -38.5t-37 -95.5t37 -95.5t91 -38.5z" />
    <glyph glyph-name="uni0400" unicode="&#x400;" horiz-adv-x="589" 
d="M265 784l-96 143h111l78 -143h-93zM61 0v700h494v-131h-347v-154h340v-127h-340v-157h347v-131h-494z" />
    <glyph glyph-name="uni0401" unicode="&#x401;" horiz-adv-x="589" 
d="M220 796q-25 0 -42.5 17.5t-17.5 42.5q0 23 17.5 40.5t42.5 17.5q24 0 41.5 -17t17.5 -41q0 -25 -17 -42.5t-42 -17.5zM403 796q-25 0 -43 17.5t-18 42.5q0 24 18 41t43 17q24 0 41.5 -17t17.5 -41q0 -25 -17.5 -42.5t-41.5 -17.5zM61 0v700h494v-131h-347v-154h340v-127
h-340v-157h347v-131h-494z" />
    <glyph glyph-name="uni0402" unicode="&#x402;" horiz-adv-x="796" 
d="M583 -2q-37 0 -79 9l14 95q13 -3 29 -3q62 0 62 60v59q0 48 -29.5 72t-78.5 24q-63 0 -125 -40v-274h-147v571h-215v129h600v-129h-238v-177q75 39 154 39q92 0 154 -47t62 -143v-86q0 -74 -42.5 -116.5t-120.5 -42.5z" />
    <glyph glyph-name="uni0403" unicode="&#x403;" horiz-adv-x="549" 
d="M261 784l69 143h110l-85 -143h-94zM61 0v700h474v-131h-327v-569h-147z" />
    <glyph glyph-name="uni0404" unicode="&#x404;" horiz-adv-x="728" 
d="M580 243l122 -63q-45 -87 -128 -138.5t-186 -51.5q-153 0 -255 104.5t-102 255.5t102 255.5t255 104.5q102 0 184 -50.5t128 -136.5l-121 -62q-29 50 -80 81t-113 31q-78 0 -136 -43.5t-76 -116.5h298v-126h-298q19 -73 76.5 -116.5t135.5 -42.5q63 1 114.5 33t79.5 82z
" />
    <glyph glyph-name="uni0405" unicode="&#x405;" horiz-adv-x="575" 
d="M292 -11q-101 0 -173.5 48.5t-98.5 133.5l142 40q13 -41 48.5 -64.5t82.5 -23.5q49 0 79 22t30 57q0 13 -4 23t-14 18.5t-18 13.5t-26 11t-27.5 8.5t-33 8.5t-32.5 8q-36 9 -62 18t-57.5 26t-51.5 37.5t-33.5 53t-13.5 72.5q0 91 73 151.5t180 60.5q96 0 160 -45.5
t90 -129.5l-134 -39q-27 83 -113 83q-48 0 -76.5 -24t-28.5 -57q0 -10 2.5 -18t8 -15t11 -12.5t16 -11t17.5 -8.5t22 -7.5t22.5 -7t25 -7t24.5 -6.5q31 -9 43 -12t42 -14t44 -19.5t36.5 -24.5t33 -33.5t19 -43t8.5 -54.5q0 -97 -75.5 -157t-187.5 -60z" />
    <glyph glyph-name="uni0406" unicode="&#x406;" horiz-adv-x="268" 
d="M61 0v700h147v-700h-147z" />
    <glyph glyph-name="uni0407" unicode="&#x407;" horiz-adv-x="268" 
d="M43 796q-25 0 -42.5 17.5t-17.5 42.5q0 23 17.5 40.5t42.5 17.5t42 -17t17 -41q0 -25 -17 -42.5t-42 -17.5zM226 796q-25 0 -43 17.5t-18 42.5q0 24 18 41t43 17q24 0 41.5 -17t17.5 -41q0 -25 -17.5 -42.5t-41.5 -17.5zM61 0v700h147v-700h-147z" />
    <glyph glyph-name="uni0408" unicode="&#x408;" horiz-adv-x="551" 
d="M187 -10q-91 0 -161 41l71 127q38 -24 90 -24q80 0 118 48.5t38 132.5v385h148v-414q0 -140 -85 -218t-219 -78z" />
    <glyph glyph-name="uni0409" unicode="&#x409;" horiz-adv-x="1077" 
d="M41 -1q-11 0 -35 2l1 130q15 -3 30 -3q53 0 76 36t23 116v420h545v-270h146q108 0 172 -58t64 -157t-64 -157t-172 -58h-293v553h-251v-252q0 -152 -55.5 -227t-186.5 -75zM681 129h128q53 0 82.5 22.5t29.5 64.5q0 87 -112 87h-128v-174z" />
    <glyph glyph-name="uni040A" unicode="&#x40a;" horiz-adv-x="1074" 
d="M61 0v700h147v-270h323v270h147v-270h146q108 0 172 -58t64 -157t-64 -157t-172 -58h-293v302h-323v-302h-147zM678 129h128q53 0 82.5 22.5t29.5 64.5q0 87 -112 87h-128v-174z" />
    <glyph glyph-name="uni040B" unicode="&#x40b;" horiz-adv-x="796" 
d="M530 433q92 0 154 -47t62 -143v-243h-137v218q0 48 -29.5 72t-78.5 24q-62 0 -125 -37v-277h-147v571h-215v129h600v-129h-238v-171q78 33 154 33z" />
    <glyph glyph-name="uni040C" unicode="&#x40c;" horiz-adv-x="706" 
d="M294 784l69 143h110l-85 -143h-94zM61 0v700h147v-280h101l199 280h180l-249 -348l261 -352h-184l-205 280h-103v-280h-147z" />
    <glyph glyph-name="uni040D" unicode="&#x40d;" horiz-adv-x="738" 
d="M323 784l-96 143h111l78 -143h-93zM61 0v700h147v-471l304 471h166v-700h-147v470l-304 -470h-166z" />
    <glyph glyph-name="uni040E" unicode="&#x40e;" horiz-adv-x="668" 
d="M344 789q-69 0 -107.5 39.5t-39.5 94.5h64q1 -25 22 -47t61 -22q39 0 60 22t23 47h63q-1 -55 -39 -94.5t-107 -39.5zM490 700h164l-254 -523q-52 -108 -122 -147t-176 -40l13 135q121 2 158 85l-259 490h166l163 -332z" />
    <glyph glyph-name="uni040F" unicode="&#x40f;" horiz-adv-x="704" 
d="M663 700v-700h-228v-160h-147v160h-227v700h147v-571h308v571h147z" />
    <glyph glyph-name="uni0410" unicode="&#x410;" horiz-adv-x="718" 
d="M8 0l267 700h164l271 -700h-162l-42 115h-295l-41 -115h-162zM258 249h200l-100 282z" />
    <glyph glyph-name="uni0411" unicode="&#x411;" horiz-adv-x="619" 
d="M358 431q109 0 170.5 -58t61.5 -157t-61.5 -157.5t-170.5 -58.5h-297v700h484v-129h-337v-140h150zM336 126q53 0 80 23.5t27 66.5q0 42 -27 66t-80 24h-128v-180h128z" />
    <glyph glyph-name="uni0412" unicode="&#x412;" horiz-adv-x="618" 
d="M504 360q91 -51 91 -159q0 -93 -66 -147t-170 -54h-298v700h281q105 0 169.5 -53.5t64.5 -146.5q0 -90 -72 -140zM206 574v-166h136q39 0 65 19.5t26 63.5t-26 63.5t-65 19.5h-136zM355 126q39 0 67 20.5t28 64.5q0 43 -28 63.5t-67 20.5h-149v-169h149z" />
    <glyph glyph-name="uni0413" unicode="&#x413;" horiz-adv-x="549" 
d="M61 0v700h474v-131h-327v-569h-147z" />
    <glyph glyph-name="uni0414" unicode="&#x414;" horiz-adv-x="828" 
d="M13 -160v289h118q48 88 48 259v312h515v-571h114v-289h-147v160h-501v-160h-147zM284 129h263v427h-221v-167q0 -168 -42 -260z" />
    <glyph glyph-name="uni0415" unicode="&#x415;" horiz-adv-x="589" 
d="M61 0v700h494v-131h-347v-154h340v-127h-340v-157h347v-131h-494z" />
    <glyph glyph-name="uni0416" unicode="&#x416;" horiz-adv-x="1031" 
d="M11 0l237 346l-235 354h177l185 -285h67v285h147v-285h67l185 285h177l-235 -354l237 -346h-177l-185 275h-69v-275h-147v275h-69l-185 -275h-177z" />
    <glyph glyph-name="uni0417" unicode="&#x417;" horiz-adv-x="647" 
d="M519 362q49 -19 77 -60.5t28 -94.5q0 -99 -80 -157.5t-204 -58.5q-196 0 -295 169l131 61q57 -92 164 -92q58 0 97.5 24.5t39.5 65.5q0 38 -32.5 59.5t-92.5 21.5h-69v108h48q130 0 130 77q0 39 -32 61.5t-85 22.5q-89 0 -150 -82l-110 83q47 63 114 101t150 38
q118 0 186 -60t68 -145q0 -105 -83 -142z" />
    <glyph glyph-name="uni0418" unicode="&#x418;" horiz-adv-x="738" 
d="M61 0v700h147v-471l304 471h166v-700h-147v470l-304 -470h-166z" />
    <glyph glyph-name="uni0419" unicode="&#x419;" horiz-adv-x="738" 
d="M369 784q-69 0 -107 39.5t-39 94.5h63q2 -25 23 -47t60 -22q40 0 61 22t22 47h64q-1 -55 -39.5 -94.5t-107.5 -39.5zM61 0v700h147v-471l304 471h166v-700h-147v470l-304 -470h-166z" />
    <glyph glyph-name="uni041A" unicode="&#x41a;" horiz-adv-x="706" 
d="M61 0v700h147v-280h101l199 280h180l-249 -348l261 -352h-184l-205 280h-103v-280h-147z" />
    <glyph glyph-name="uni041B" unicode="&#x41b;" horiz-adv-x="737" 
d="M677 700v-700h-148v553h-246v-252q0 -152 -55.5 -227t-186.5 -75q-11 0 -35 2l1 130q15 -3 30 -3q53 0 76 36t23 116v420h541z" />
    <glyph glyph-name="uni041C" unicode="&#x41c;" horiz-adv-x="906" 
d="M61 0v700h168l224 -412l224 412h168v-700h-147v449l-189 -336h-113l-188 335v-448h-147z" />
    <glyph glyph-name="uni041D" unicode="&#x41d;" horiz-adv-x="727" 
d="M61 0v700h147v-291h311v291h147v-700h-147v269h-311v-269h-147z" />
    <glyph glyph-name="uni041E" unicode="&#x41e;" horiz-adv-x="775" 
d="M388 -10q-150 0 -253.5 105t-103.5 255t103.5 255t253.5 105q149 0 252.5 -105t103.5 -255t-103.5 -255t-252.5 -105zM387 134q88 0 148 62.5t60 153.5t-60 153.5t-148 62.5t-147.5 -62.5t-59.5 -153.5t59.5 -153.5t147.5 -62.5z" />
    <glyph glyph-name="uni041F" unicode="&#x41f;" horiz-adv-x="726" 
d="M666 700v-700h-147v560h-311v-560h-147v700h605z" />
    <glyph glyph-name="uni0420" unicode="&#x420;" horiz-adv-x="613" 
d="M61 0v700h292q99 0 168 -62t69 -168q0 -107 -69 -169t-168 -62h-145v-239h-147zM208 365h133q45 0 73.5 29.5t28.5 75.5t-28.5 75t-73.5 29h-133v-209z" />
    <glyph glyph-name="uni0421" unicode="&#x421;" horiz-adv-x="727" 
d="M388 -10q-150 0 -253.5 105t-103.5 255t103 255t252 105q102 0 185 -51t129 -136l-132 -68q-28 51 -75.5 80.5t-105.5 29.5q-87 0 -147 -62.5t-60 -152.5t60 -152.5t147 -62.5q58 0 106.5 30.5t75.5 82.5l133 -68q-45 -86 -128.5 -138t-185.5 -52z" />
    <glyph glyph-name="uni0422" unicode="&#x422;" horiz-adv-x="629" 
d="M241 0v571h-227v129h601v-129h-227v-571h-147z" />
    <glyph glyph-name="uni0423" unicode="&#x423;" horiz-adv-x="668" 
d="M490 700h164l-254 -523q-52 -108 -122 -147t-176 -40l13 135q121 2 158 85l-259 490h166l163 -332z" />
    <glyph glyph-name="uni0424" unicode="&#x424;" horiz-adv-x="871" 
d="M846 347q0 -119 -85.5 -187t-251.5 -78v-96h-147v97q-165 10 -250.5 77.5t-85.5 186.5q0 118 85.5 186t250.5 78v103h147v-102q166 -10 251.5 -78t85.5 -187zM509 198q98 7 144 44t46 105t-46 105t-144 44v-298zM172 347q0 -68 45.5 -105t144.5 -44v298
q-99 -7 -144.5 -44t-45.5 -105z" />
    <glyph glyph-name="uni0425" unicode="&#x425;" horiz-adv-x="663" 
d="M11 0l225 350l-218 350h174l139 -239l140 239h174l-218 -350l225 -350h-174l-146 239l-147 -239h-174z" />
    <glyph glyph-name="uni0426" unicode="&#x426;" horiz-adv-x="789" 
d="M663 129h107v-289h-147v160h-562v700h147v-571h308v571h147v-571z" />
    <glyph glyph-name="uni0427" unicode="&#x427;" horiz-adv-x="700" 
d="M492 700h147v-700h-147v240q-73 -27 -180 -27q-114 0 -187.5 59t-73.5 173v255h147v-239q0 -61 42.5 -88.5t108.5 -27.5q74 0 143 28v327z" />
    <glyph glyph-name="uni0428" unicode="&#x428;" horiz-adv-x="1064" 
d="M857 700h147v-700h-943v700h147v-571h251v571h147v-571h251v571z" />
    <glyph glyph-name="uni0429" unicode="&#x429;" horiz-adv-x="1130" 
d="M1004 129h107v-289h-147v160h-903v700h147v-571h251v571h147v-571h251v571h147v-571z" />
    <glyph glyph-name="uni042A" unicode="&#x42a;" horiz-adv-x="693" 
d="M444 436q107 0 171.5 -60t64.5 -158q0 -99 -64.5 -158.5t-171.5 -59.5h-294v575h-150v125h297v-264h147zM425 124q53 0 82.5 24.5t29.5 69.5t-29.5 69.5t-82.5 24.5h-128v-188h128z" />
    <glyph glyph-name="uni042B" unicode="&#x42b;" horiz-adv-x="883" 
d="M61 0v700h147v-264h146q108 0 172 -59.5t64 -158.5t-64 -158.5t-172 -59.5h-293zM676 0v700h147v-700h-147zM208 124h128q52 0 81.5 24.5t29.5 69.5t-29.5 69.5t-81.5 24.5h-128v-188z" />
    <glyph glyph-name="uni042C" unicode="&#x42c;" horiz-adv-x="604" 
d="M61 0v700h147v-264h146q108 0 172 -59.5t64 -158.5t-64 -158.5t-172 -59.5h-293zM208 124h128q52 0 81.5 24.5t29.5 69.5t-29.5 69.5t-81.5 24.5h-128v-188z" />
    <glyph glyph-name="uni042D" unicode="&#x42d;" horiz-adv-x="727" 
d="M340 710q152 0 254 -104.5t102 -255.5t-102 -255.5t-254 -104.5q-103 0 -186.5 51.5t-128.5 138.5l123 63q27 -50 79 -82t114 -33q79 -1 136.5 42t76.5 117h-298v126h298q-18 73 -76 116.5t-137 43.5q-62 0 -113 -31t-79 -81l-122 62q46 85 128.5 136t184.5 51z" />
    <glyph glyph-name="uni042E" unicode="&#x42e;" horiz-adv-x="1069" 
d="M682 710q149 0 252.5 -105t103.5 -255t-103.5 -255t-252.5 -105q-131 0 -228.5 82.5t-121.5 207.5h-124v-280h-147v700h147v-280h124q24 125 121.5 207.5t228.5 82.5zM681 137q88 0 148 62t60 151t-60 151t-148 62q-87 0 -147 -62t-60 -151t60 -151t147 -62z" />
    <glyph glyph-name="uni042F" unicode="&#x42f;" horiz-adv-x="634" 
d="M269 700h305v-700h-147v249h-102l-148 -249h-163l164 265q-66 23 -106 78t-40 131q0 102 68.5 164t168.5 62zM427 375v196h-145q-46 0 -76.5 -27.5t-30.5 -71.5t30.5 -70.5t76.5 -26.5h145z" />
    <glyph glyph-name="uni0430" unicode="&#x430;" horiz-adv-x="609" 
d="M256 -9q-99 0 -165 74t-66 183t66 182.5t165 73.5q103 0 163 -71v62h140v-495h-140v62q-61 -71 -163 -71zM291 114q54 0 91 38.5t37 95.5t-37 95.5t-91 38.5t-90.5 -38t-36.5 -96t36.5 -96t90.5 -38z" />
    <glyph glyph-name="uni0431" unicode="&#x431;" horiz-adv-x="567" 
d="M287 -13q-111 0 -187 75.5t-76 203.5q0 80 14 143.5t40.5 107.5t56 73.5t68.5 55.5q67 42 278 104l44 -98q-214 -65 -264 -99q-88 -61 -113 -169q24 37 68 60t102 23q100 0 162.5 -67t62.5 -170t-73 -173t-183 -70zM287 109q52 0 87 35t35 86q0 52 -35 87.5t-87 35.5
q-50 0 -85 -35.5t-35 -87.5q0 -51 35 -86t85 -35z" />
    <glyph glyph-name="uni0432" unicode="&#x432;" horiz-adv-x="532" 
d="M49 0v495h273q86 0 132 -38t46 -101q0 -74 -60 -100q34 -13 53 -42t19 -69q0 -65 -47.5 -105t-137.5 -40h-278zM187 298h104q75 0 75 52q0 45 -75 45h-104v-97zM187 100h108q42 0 61 12.5t19 40.5q0 57 -80 57h-108v-110z" />
    <glyph glyph-name="uni0433" unicode="&#x433;" horiz-adv-x="443" 
d="M433 495v-119h-243v-376h-140v495h383z" />
    <glyph glyph-name="uni0434" unicode="&#x434;" horiz-adv-x="713" 
d="M603 116h93v-275h-130v159h-419v-159h-129v275h89q30 44 38.5 95t8.5 153v131h449v-379zM249 116h221v261h-184v-61q0 -141 -37 -200z" />
    <glyph glyph-name="uni0435" unicode="&#x435;" horiz-adv-x="557" 
d="M286 511q110 0 179.5 -69.5t70.5 -191.5q0 -26 -1 -41h-380q10 -52 46 -80t85 -28q82 0 126 57l85 -71q-34 -47 -91 -73.5t-119 -26.5q-112 0 -187 75.5t-75 184.5q0 113 74.5 188.5t186.5 75.5zM287 403q-47 0 -80.5 -26t-47.5 -73h250q-29 99 -122 99z" />
    <glyph glyph-name="uni0436" unicode="&#x436;" horiz-adv-x="864" 
d="M10 0l177 246l-177 249h162l130 -190h64v190h133v-190h64l129 190h162l-177 -249l177 -246h-159l-133 186h-63v-186h-133v186h-64l-133 -186h-159z" />
    <glyph glyph-name="uni0437" unicode="&#x437;" horiz-adv-x="498" 
d="M388 259q44 -13 67 -42t23 -67q0 -69 -61 -114.5t-160 -45.5q-77 0 -140.5 31.5t-98.5 94.5l107 49q40 -70 123 -70q45 0 70.5 17t25.5 45q0 57 -106 57h-19v78h20q95 0 95 58q0 25 -22.5 39.5t-60.5 14.5q-61 0 -111 -49l-89 69q82 85 204 85q94 0 150.5 -41.5
t56.5 -102.5q0 -80 -74 -106z" />
    <glyph glyph-name="uni0438" unicode="&#x438;" horiz-adv-x="599" 
d="M418 495h131v-495h-131v305l-237 -305h-131v495h131v-305z" />
    <glyph glyph-name="uni0439" unicode="&#x439;" horiz-adv-x="599" 
d="M300 580q-69 0 -107.5 39.5t-39.5 94.5h74q1 -25 19 -45t54 -20q35 0 53 20t20 45h73q-1 -55 -39 -94.5t-107 -39.5zM418 495h131v-495h-131v305l-237 -305h-131v495h131v-305z" />
    <glyph glyph-name="uni043A" unicode="&#x43a;" horiz-adv-x="588" 
d="M50 0v495h140v-181h69l145 181h177l-208 -240l208 -255h-175l-147 195h-69v-195h-140z" />
    <glyph glyph-name="uni043B" unicode="&#x43b;" horiz-adv-x="603" 
d="M51 -2q-12 0 -40 2v116q49 -3 71 20t22 97v262h449v-495h-138v377h-173v-162q0 -113 -48 -165t-143 -52z" />
    <glyph glyph-name="uni043C" unicode="&#x43c;" horiz-adv-x="715" 
d="M665 495v-495h-130v304l-131 -198h-95l-128 195v-301h-131v495h148l159 -255l160 255h148z" />
    <glyph glyph-name="uni043D" unicode="&#x43d;" horiz-adv-x="601" 
d="M413 495h138v-495h-138v189h-225v-189h-138v495h138v-189h225v189z" />
    <glyph glyph-name="uni043E" unicode="&#x43e;" horiz-adv-x="596" 
d="M298 -14q-110 0 -188.5 76.5t-78.5 185.5t78.5 186.5t188.5 77.5t188.5 -77.5t78.5 -186.5t-78.5 -185.5t-188.5 -76.5zM298 111q55 0 92.5 38.5t37.5 97.5q0 60 -37.5 99t-92.5 38q-55 1 -92.5 -38t-37.5 -99q0 -59 37.5 -97.5t92.5 -38.5z" />
    <glyph glyph-name="uni043F" unicode="&#x43f;" horiz-adv-x="605" 
d="M555 495v-495h-140v379h-225v-379h-140v495h505z" />
    <glyph glyph-name="uni0440" unicode="&#x440;" horiz-adv-x="609" 
d="M50 -250v745h140v-63q61 72 164 72q99 0 164.5 -73.5t65.5 -183.5q0 -109 -65.5 -182.5t-164.5 -73.5q-101 0 -164 72v-313h-140zM318 114q54 0 90 38t36 95q0 58 -36 96.5t-90 38.5t-91 -38.5t-37 -96.5q0 -57 37 -95t91 -38z" />
    <glyph glyph-name="uni0441" unicode="&#x441;" horiz-adv-x="534" 
d="M298 -14q-114 0 -190.5 76t-76.5 186t76.5 187t190.5 77q64 0 121 -29t94 -79l-114 -83q-36 55 -101 57q-57 1 -94 -36.5t-37 -94.5q0 -56 36.5 -92.5t94.5 -37.5q32 -1 59 15t43 43l112 -82q-37 -50 -93 -78.5t-121 -28.5z" />
    <glyph glyph-name="uni0442" unicode="&#x442;" horiz-adv-x="503" 
d="M493 495v-119h-173v-376h-137v376h-173v119h483z" />
    <glyph glyph-name="uni0443" unicode="&#x443;" horiz-adv-x="570" 
d="M52 -250l13 131q47 0 84.5 22t51.5 67l14 34l-207 491h148l131 -355l126 355h149l-238 -573q-38 -91 -105 -131.5t-167 -40.5z" />
    <glyph glyph-name="uni0444" unicode="&#x444;" horiz-adv-x="791" 
d="M766 246q0 -95 -73.5 -164t-230.5 -82v-250h-133v250q-158 13 -231 81.5t-73 164.5t73.5 166t230.5 83v205h133v-205q81 -7 142 -30.5t95 -58.5t50.5 -75t16.5 -85zM162 245q0 -52 41 -87.5t126 -45.5v269q-85 -10 -126 -46t-41 -90zM462 112q85 10 126 45.5t41 87.5
q0 54 -41 90t-126 46v-269z" />
    <glyph glyph-name="uni0445" unicode="&#x445;" horiz-adv-x="559" 
d="M10 0l183 252l-183 243h167l103 -151l102 151h167l-182 -243l182 -252h-167l-102 161l-104 -161h-166z" />
    <glyph glyph-name="uni0446" unicode="&#x446;" horiz-adv-x="671" 
d="M523 -159v159h-473v495h138v-379h220v379h138v-379h107v-275h-130z" />
    <glyph glyph-name="uni0447" unicode="&#x447;" horiz-adv-x="586" 
d="M398 495h138v-495h-138v160q-73 -27 -141 -27q-92 0 -154 47t-62 143v172h137v-154q0 -91 108 -91q56 0 112 28v217z" />
    <glyph glyph-name="uni0448" unicode="&#x448;" horiz-adv-x="896" 
d="M50 0v495h138v-379h191v379h138v-379h192v379h137v-495h-796z" />
    <glyph glyph-name="uni0449" unicode="&#x449;" horiz-adv-x="971" 
d="M50 0v495h138v-379h191v379h138v-379h192v379h137v-379h107v-275h-129v159h-774z" />
    <glyph glyph-name="uni044A" unicode="&#x44a;" horiz-adv-x="599" 
d="M132 0v383h-127v112h266v-167h128q83 0 131 -46t48 -118q0 -71 -48 -117.5t-131 -46.5h-267zM271 104h93q79 0 79 60t-79 60h-93v-120z" />
    <glyph glyph-name="uni044B" unicode="&#x44b;" horiz-adv-x="743" 
d="M49 0v495h139v-167h128q83 0 131 -46t48 -118q0 -71 -48 -117.5t-131 -46.5h-267zM556 0v495h139v-495h-139zM188 104h93q79 0 79 60t-79 60h-93v-120z" />
    <glyph glyph-name="uni044C" unicode="&#x44c;" horiz-adv-x="516" 
d="M49 0v495h139v-167h128q83 0 131 -46t48 -118q0 -71 -48 -117.5t-131 -46.5h-267zM188 104h93q79 0 79 60t-79 60h-93v-120z" />
    <glyph glyph-name="uni044D" unicode="&#x44d;" horiz-adv-x="514" 
d="M228 512q113 0 189.5 -77t76.5 -187q0 -109 -76.5 -185.5t-189.5 -76.5q-65 0 -121.5 28.5t-93.5 78.5l108 79q17 -26 46 -41t61 -14q36 1 65 20t44 51h-157v119h157q-14 33 -43.5 52.5t-65.5 18.5q-65 -2 -106 -53l-110 79q38 50 94.5 79t121.5 29z" />
    <glyph glyph-name="uni044E" unicode="&#x44e;" horiz-adv-x="841" 
d="M554 512q110 0 188.5 -77.5t78.5 -186.5t-78.5 -185.5t-188.5 -76.5q-92 0 -164.5 56t-94.5 142h-105v-184h-147v495h147v-182h105q23 86 95 142.5t164 56.5zM554 117q52 -1 87.5 36.5t35.5 93.5q0 57 -35.5 94.5t-87.5 36.5q-51 1 -86.5 -36.5t-35.5 -94.5
q0 -56 35.5 -93.5t86.5 -36.5z" />
    <glyph glyph-name="uni044F" unicode="&#x44f;" horiz-adv-x="533" 
d="M215 495h270v-495h-140v176h-65l-107 -176h-155l120 187q-52 17 -81 56.5t-29 91.5q0 70 50.5 115t136.5 45zM345 278v111h-95q-82 0 -82 -56q0 -55 82 -55h95z" />
    <glyph glyph-name="uni0450" unicode="&#x450;" horiz-adv-x="557" 
d="M327 594h-93l-96 143h111zM286 511q110 0 179.5 -69.5t70.5 -191.5q0 -26 -1 -41h-380q10 -52 46 -80t85 -28q82 0 126 57l85 -71q-34 -47 -91 -73.5t-119 -26.5q-112 0 -187 75.5t-75 184.5q0 113 74.5 188.5t186.5 75.5zM287 403q-47 0 -80.5 -26t-47.5 -73h250
q-29 99 -122 99z" />
    <glyph glyph-name="uni0451" unicode="&#x451;" horiz-adv-x="557" 
d="M187 606q-25 0 -42.5 17.5t-17.5 42.5q0 23 17.5 40.5t41.5 17.5q25 0 42.5 -17.5t17.5 -40.5q0 -25 -17.5 -42.5t-41.5 -17.5zM370 606q-25 0 -43 17.5t-18 42.5q0 24 18 41t43 17q24 0 41.5 -17t17.5 -41q0 -25 -17.5 -42.5t-41.5 -17.5zM286 511q110 0 179.5 -69.5
t70.5 -191.5q0 -26 -1 -41h-380q10 -52 46 -80t85 -28q82 0 126 57l85 -71q-34 -47 -91 -73.5t-119 -26.5q-112 0 -187 75.5t-75 184.5q0 113 74.5 188.5t186.5 75.5zM287 403q-47 0 -80.5 -26t-47.5 -73h250q-29 99 -122 99z" />
    <glyph glyph-name="uni0452" unicode="&#x452;" horiz-adv-x="594" 
d="M344 500q92 0 149.5 -64.5t57.5 -178.5v-247q0 -100 -59 -162.5t-186 -62.5v126q43 0 74 22.5t31 70.5v242q0 65 -29.5 100t-78.5 35q-54 0 -83.5 -36t-29.5 -99v-246h-140v562h-72v98h72v90h140v-90h159v-98h-159v-142q47 80 154 80z" />
    <glyph glyph-name="uni0453" unicode="&#x453;" horiz-adv-x="443" 
d="M370 722l-85 -143h-94l69 143h110zM433 495v-119h-243v-376h-140v495h383z" />
    <glyph glyph-name="uni0454" unicode="&#x454;" horiz-adv-x="514" 
d="M286 117q32 -1 61 14t46 41l108 -79q-37 -50 -93.5 -78.5t-121.5 -28.5q-113 0 -189.5 76.5t-76.5 185.5q0 110 76.5 187t189.5 77q65 0 121.5 -29t94.5 -79l-110 -79q-41 51 -106 53q-36 1 -65.5 -18.5t-43.5 -52.5h157v-119h-157q15 -32 44 -51t65 -20z" />
    <glyph glyph-name="uni0455" unicode="&#x455;" horiz-adv-x="491" 
d="M247 -18q-79 0 -141.5 37.5t-85.5 101.5l121 38q29 -65 108 -65q40 0 63 15.5t23 43.5q0 21 -21 31.5t-49.5 11.5t-70 6.5t-70.5 17.5q-85 38 -85 126q0 69 59 116t144 47q80 0 133.5 -37t70.5 -99l-119 -33q-7 29 -29 46.5t-55 17.5t-54.5 -16t-21.5 -39q0 -29 34 -39.5
t92 -16t89 -18.5q89 -37 89 -124q0 -76 -63 -122.5t-161 -46.5z" />
    <glyph glyph-name="uni0456" unicode="&#x456;" horiz-adv-x="235" 
d="M118 571q-32 0 -55.5 23t-23.5 56q0 31 23.5 53.5t55.5 22.5t55 -22.5t23 -53.5q0 -33 -23 -56t-55 -23zM49 0v495h137v-495h-137z" />
    <glyph glyph-name="uni0457" unicode="&#x457;" horiz-adv-x="235" 
d="M29 591q-25 0 -42.5 17.5t-17.5 42.5q0 23 17.5 40.5t42.5 17.5t42 -17.5t17 -40.5q0 -25 -17 -42.5t-42 -17.5zM212 591q-25 0 -43 17.5t-18 42.5q0 24 18 41t43 17q24 0 41.5 -17t17.5 -41q0 -25 -17.5 -42.5t-41.5 -17.5zM49 0v495h137v-495h-137z" />
    <glyph glyph-name="uni0458" unicode="&#x458;" horiz-adv-x="234" 
d="M116 572q-33 0 -56 22.5t-23 55.5q0 31 23.5 53.5t55.5 22.5t55 -22.5t23 -53.5q0 -33 -23 -55.5t-55 -22.5zM2 -249q-39 0 -80 10l16 127q12 -4 29 -4q33 0 56 19t23 59v533h140v-564q0 -86 -50 -133t-134 -47z" />
    <glyph glyph-name="uni0459" unicode="&#x459;" horiz-adv-x="891" 
d="M51 -2q-12 0 -40 2v116q49 -3 71 20t22 97v262h459v-161h128q81 0 129.5 -45t48.5 -119q0 -73 -49 -121.5t-129 -48.5h-266v377h-183v-162q0 -113 -48 -165t-143 -52zM563 109h95q79 0 79 61q0 62 -79 62h-95v-123z" />
    <glyph glyph-name="uni045A" unicode="&#x45a;" horiz-adv-x="876" 
d="M50 0v495h138v-174h222v174h138v-174h128q81 0 130 -44.5t49 -116.5q0 -71 -49 -115.5t-130 -44.5h-266v211h-222v-211h-138zM548 102h96q79 0 79 54q0 55 -79 55h-96v-109z" />
    <glyph glyph-name="uni045B" unicode="&#x45b;" horiz-adv-x="594" 
d="M344 500q92 0 149.5 -64.5t57.5 -178.5v-257h-140v246q0 65 -29.5 100t-78.5 35q-54 0 -83.5 -36t-29.5 -99v-246h-140v562h-72v98h72v90h140v-90h159v-98h-159v-142q47 80 154 80z" />
    <glyph glyph-name="uni045C" unicode="&#x45c;" horiz-adv-x="588" 
d="M241 579l69 143h110l-85 -143h-94zM50 0v495h140v-181h69l145 181h177l-208 -240l208 -255h-175l-147 195h-69v-195h-140z" />
    <glyph glyph-name="uni045D" unicode="&#x45d;" horiz-adv-x="599" 
d="M347 579h-93l-96 143h111zM418 495h131v-495h-131v305l-237 -305h-131v495h131v-305z" />
    <glyph glyph-name="uni045E" unicode="&#x45e;" horiz-adv-x="570" 
d="M287 588q-69 0 -107.5 39.5t-39.5 94.5h64q1 -25 22 -47t61 -22q39 0 60 22t23 47h63q-1 -55 -39 -94.5t-107 -39.5zM52 -250l13 131q47 0 84.5 22t51.5 67l14 34l-207 491h148l131 -355l126 355h149l-238 -573q-38 -91 -105 -131.5t-167 -40.5z" />
    <glyph glyph-name="uni045F" unicode="&#x45f;" horiz-adv-x="596" 
d="M546 495v-495h-183v-159h-129v159h-184v495h138v-379h220v379h138z" />
    <glyph glyph-name="uni0461" unicode="&#x461;" horiz-adv-x="848" 
d="M274 -5q-231 0 -231 278q0 90 35 222h136q-34 -135 -34 -233q0 -148 94 -148q84 0 84 140v241h132v-241q0 -140 84 -140q93 0 93 148q0 102 -33 233h136q34 -133 34 -222q0 -147 -59.5 -212.5t-170.5 -65.5q-50 0 -91.5 24.5t-58.5 68.5q-17 -44 -59 -68.5t-91 -24.5z
" />
    <glyph glyph-name="uni0462" unicode="&#x462;" horiz-adv-x="693" 
d="M444 436q107 0 171.5 -60t64.5 -158q0 -99 -64.5 -158.5t-171.5 -59.5h-294v517h-150v99h150v84h147v-84h160v-99h-160v-81h147zM425 124q53 0 82.5 24.5t29.5 69.5t-29.5 69.5t-82.5 24.5h-128v-188h128z" />
    <glyph glyph-name="uni0463" unicode="&#x463;" horiz-adv-x="614" 
d="M414 328q83 0 131 -46t48 -118q0 -71 -48 -117.5t-131 -46.5h-267v408h-142v87h142v144h139v-144h158v-87h-158v-80h128zM379 104q79 0 79 60t-79 60h-93v-120h93z" />
    <glyph glyph-name="uni0466" unicode="&#x466;" horiz-adv-x="772" 
d="M617 0l-80 187h-97v-187h-107v187h-98l-80 -187h-147l299 700h155l302 -700h-147zM283 300h205l-102 238h-2z" />
    <glyph glyph-name="uni0467" unicode="&#x467;" horiz-adv-x="596" 
d="M448 0l-66 166h-42v-166h-91l1 166h-40l-69 -166h-133l211 495h157l212 -495h-140zM248 256h98l-48 120z" />
    <glyph glyph-name="uni0468" unicode="&#x468;" horiz-adv-x="1082" 
d="M61 0v700h140v-397h247l170 397h154l303 -700h-148l-77 180h-99v-180h-108v180h-100l-77 -180h-148l78 181h-195v-181h-140zM593 300h207l-104 238h-2z" />
    <glyph glyph-name="uni0469" unicode="&#x469;" horiz-adv-x="840" 
d="M692 0l-66 166h-42v-166h-90v166h-39l-69 -166h-133l71 167h-143v-167h-131v495h131v-235l183 1l100 234h156l212 -495h-140zM492 256h98l-48 120z" />
    <glyph glyph-name="uni046A" unicode="&#x46a;" horiz-adv-x="809" 
d="M530 389q121 -37 193 -140.5t72 -248.5h-118q0 108 -55.5 185.5t-150.5 99.5v-285h-133v285q-95 -22 -150.5 -99.5t-55.5 -185.5h-118q0 145 72 248.5t194 140.5l-160 210v101h569v-101zM542 599h-276l139 -183z" />
    <glyph glyph-name="uni046B" unicode="&#x46b;" horiz-adv-x="652" 
d="M450 271q87 -33 135 -105.5t48 -165.5h-124q0 68 -33.5 117t-88.5 68v-185h-121v186q-57 -19 -93 -68t-36 -118h-118q0 93 48.5 166t134.5 105l-121 136v88h491v-88zM227 407l99 -115l100 115h-199z" />
    <glyph glyph-name="uni046C" unicode="&#x46c;" horiz-adv-x="1088" 
d="M808 389q122 -37 194 -140.5t72 -248.5h-119q0 109 -55 186t-150 99v-285h-133v285q-96 -22 -151 -99t-55 -186h-119q0 183 113 298h-204v-298h-140v700h140v-280h334l-137 179v101h569v-101zM821 599h-276l138 -183z" />
    <glyph glyph-name="uni046D" unicode="&#x46d;" horiz-adv-x="912" 
d="M710 271q87 -33 135 -105.5t48 -165.5h-125q0 68 -33 117t-88 68v-185h-122v186q-57 -19 -92.5 -68.5t-35.5 -117.5h-118q0 116 72 196h-168v-196h-133v495h133v-192h250l-93 104v88h492v-88zM685 407h-198l99 -115z" />
    <glyph glyph-name="uni0472" unicode="&#x472;" horiz-adv-x="775" 
d="M388 710q149 0 252.5 -105t103.5 -255t-103.5 -255t-252.5 -105q-150 0 -253.5 105t-103.5 255t103.5 255t253.5 105zM387 566q-73 0 -128 -44t-73 -113h403q-18 69 -73.5 113t-128.5 44zM387 134q73 0 129 44t74 114h-405q18 -70 73.5 -114t128.5 -44z" />
    <glyph glyph-name="uni0473" unicode="&#x473;" horiz-adv-x="596" 
d="M298 -14q-110 0 -188.5 76.5t-78.5 185.5t78.5 186.5t188.5 77.5t188.5 -77.5t78.5 -186.5t-78.5 -185.5t-188.5 -76.5zM179 302h237q-14 38 -45.5 60.5t-72.5 21.5q-41 1 -73 -21.5t-46 -60.5zM298 111q41 0 73 22t45 60h-237q14 -38 46 -60t73 -22z" />
    <glyph glyph-name="uni0474" unicode="&#x474;" horiz-adv-x="801" 
d="M268 0l-260 700h159l189 -530l156 427q45 122 152 122q64 0 131 -57l-53 -109q-25 23 -48 23q-37 0 -59 -58l-191 -518h-176z" />
    <glyph glyph-name="uni0475" unicode="&#x475;" horiz-adv-x="644" 
d="M210 0l-202 495h148l132 -355l94 244q44 126 143 126q58 0 114 -53l-49 -89q-18 18 -37 18q-30 0 -48 -45l-135 -341h-160z" />
    <glyph glyph-name="uni0490" unicode="&#x490;" horiz-adv-x="549" 
d="M388 840h147v-271h-327v-569h-147v700h327v140z" />
    <glyph glyph-name="uni0491" unicode="&#x491;" horiz-adv-x="443" 
d="M303 634h130v-258h-243v-376h-140v495h253v139z" />
    <glyph glyph-name="uni0492" unicode="&#x492;" horiz-adv-x="601" 
d="M587 569h-328v-166h143v-99h-143v-304h-147v304h-112v99h112v297h475v-131z" />
    <glyph glyph-name="uni0493" unicode="&#x493;" horiz-adv-x="470" 
d="M460 376h-243v-106h115v-88h-115v-182h-140v182h-72v88h72v225h383v-119z" />
    <glyph glyph-name="uni0496" unicode="&#x496;" horiz-adv-x="1081" 
d="M969 75h95v-234h-148v159h-73l-185 275h-69v-275h-147v275h-69l-185 -275h-177l237 346l-235 354h177l185 -285h67v285h147v-285h67l185 285h177l-235 -354z" />
    <glyph glyph-name="uni0497" unicode="&#x497;" horiz-adv-x="857" 
d="M797 75h84v-234h-129v159h-60l-133 186h-64v-186h-133v186h-64l-133 -186h-158l177 246l-177 249h161l130 -190h64v190h133v-190h64l130 190h162l-178 -249z" />
    <glyph glyph-name="uni049A" unicode="&#x49a;" horiz-adv-x="757" 
d="M644 75h98v-234h-147v159h-79l-205 280h-103v-280h-147v700h147v-280h101l199 280h180l-249 -348z" />
    <glyph glyph-name="uni049B" unicode="&#x49b;" horiz-adv-x="637" 
d="M520 75h100v-234h-129v159h-85l-147 195h-69v-195h-140v495h140v-181h69l145 181h177l-208 -240z" />
    <glyph glyph-name="uni04A2" unicode="&#x4a2;" horiz-adv-x="787" 
d="M678 75h76v-234h-147v159h-76v279h-323v-279h-147v700h147v-281h323v281h147v-625z" />
    <glyph glyph-name="uni04A3" unicode="&#x4a3;" horiz-adv-x="645" 
d="M551 75h65v-234h-129v159h-74v189h-225v-189h-138v495h138v-189h225v189h138v-420z" />
    <glyph glyph-name="uni04AE" unicode="&#x4ae;" horiz-adv-x="663" 
d="M258 0v278l-250 422h171l153 -282l152 282h171l-250 -422v-278h-147z" />
    <glyph glyph-name="uni04AF" unicode="&#x4af;" horiz-adv-x="562" 
d="M554 495l-204 -520v-225h-137v225l-205 520h148l125 -350l125 350h148z" />
    <glyph glyph-name="uni04B0" unicode="&#x4b0;" horiz-adv-x="663" 
d="M655 700l-223 -376h118v-115h-145v-209h-147v209h-145v115h118l-223 376h171l153 -282l152 282h171z" />
    <glyph glyph-name="uni04B1" unicode="&#x4b1;" horiz-adv-x="562" 
d="M554 495l-194 -495h120v-105h-130v-145h-137v145h-130v105h120l-195 495h148l125 -350l125 350h148z" />
    <glyph glyph-name="uni04B2" unicode="&#x4b2;" horiz-adv-x="715" 
d="M603 75h94v-234h-147v159h-73l-146 232l-147 -232h-174l225 350l-217 350h173l140 -232l139 232h174l-217 -350z" />
    <glyph glyph-name="uni04B3" unicode="&#x4b3;" horiz-adv-x="559" 
d="M495 75h84v-234h-129v159h-68l-102 161l-104 -161h-166l183 252l-183 243h167l103 -151l102 151h167l-182 -243z" />
    <glyph glyph-name="uni04B6" unicode="&#x4b6;" horiz-adv-x="747" 
d="M639 75h75v-234h-147v159h-75v244q-78 -31 -180 -31q-114 0 -187.5 59t-73.5 173v255h147v-239q0 -62 43 -91t108 -29q73 0 143 30v329h147v-625z" />
    <glyph glyph-name="uni04B7" unicode="&#x4b7;" horiz-adv-x="629" 
d="M536 75h63v-234h-129v159h-72v160q-73 -27 -141 -27q-92 0 -154 47t-62 143v172h137v-154q0 -47 30 -71.5t78 -24.5q56 0 112 28v222h138v-420z" />
    <glyph glyph-name="uni04BA" unicode="&#x4ba;" horiz-adv-x="687" 
d="M382 477q114 0 188 -60.5t74 -173.5v-243h-147v227q0 62 -43.5 92.5t-108.5 30.5t-137 -39v-311h-147v700h147v-259q77 36 174 36z" />
    <glyph glyph-name="uni04BB" unicode="&#x4bb;" horiz-adv-x="594" 
d="M50 0v750h140v-331q47 81 154 81q92 0 149.5 -64.5t57.5 -178.5v-257h-140v246q0 65 -29.5 100t-78.5 35q-84 0 -113 -86v-295h-140z" />
    <glyph glyph-name="uni04C0" unicode="&#x4c0;" horiz-adv-x="268" 
d="M61 0v700h147v-700h-147z" />
    <glyph glyph-name="uni04CF" unicode="&#x4cf;" horiz-adv-x="237" 
d="M50 0v750h137v-750h-137z" />
    <glyph glyph-name="uni04D0" unicode="&#x4d0;" horiz-adv-x="718" 
d="M357 789q-69 0 -107.5 39.5t-39.5 94.5h64q1 -25 22 -47t61 -22q39 0 60 22t23 47h63q-1 -55 -39 -94.5t-107 -39.5zM8 0l267 700h164l271 -700h-162l-42 115h-295l-41 -115h-162zM258 249h200l-100 282z" />
    <glyph glyph-name="uni04D1" unicode="&#x4d1;" horiz-adv-x="609" 
d="M300 584q-69 0 -107.5 39.5t-39.5 94.5h64q1 -25 22 -47t61 -22q39 0 60 22t23 47h63q-1 -55 -39 -94.5t-107 -39.5zM256 -9q-99 0 -165 74t-66 183t66 182.5t165 73.5q103 0 163 -71v62h140v-495h-140v62q-61 -71 -163 -71zM291 114q54 0 91 38.5t37 95.5t-37 95.5
t-91 38.5t-90.5 -38t-36.5 -96t36.5 -96t90.5 -38z" />
    <glyph glyph-name="uni04D2" unicode="&#x4d2;" horiz-adv-x="718" 
d="M266 796q-25 0 -42.5 17.5t-17.5 42.5q0 23 17.5 40.5t42.5 17.5q24 0 41.5 -17t17.5 -41q0 -25 -17 -42.5t-42 -17.5zM449 796q-25 0 -43 17.5t-18 42.5q0 24 18 41t43 17q24 0 41.5 -17t17.5 -41q0 -25 -17.5 -42.5t-41.5 -17.5zM8 0l267 700h164l271 -700h-162
l-42 115h-295l-41 -115h-162zM258 249h200l-100 282z" />
    <glyph glyph-name="uni04D3" unicode="&#x4d3;" horiz-adv-x="609" 
d="M209 591q-25 0 -42.5 17.5t-17.5 42.5q0 23 17.5 40.5t42.5 17.5t42 -17.5t17 -40.5q0 -25 -17 -42.5t-42 -17.5zM392 591q-25 0 -43 17.5t-18 42.5q0 24 18 41t43 17q24 0 41.5 -17t17.5 -41q0 -25 -17.5 -42.5t-41.5 -17.5zM256 -9q-99 0 -165 74t-66 183t66 182.5
t165 73.5q103 0 163 -71v62h140v-495h-140v62q-61 -71 -163 -71zM291 114q54 0 91 38.5t37 95.5t-37 95.5t-91 38.5t-90.5 -38t-36.5 -96t36.5 -96t90.5 -38z" />
    <glyph glyph-name="uni04D4" unicode="&#x4d4;" horiz-adv-x="1000" 
d="M8 0l372 700h587v-131h-348v-154h334v-127h-334v-157h348v-131h-495v123h-229l-66 -123h-169zM310 257h162v304z" />
    <glyph glyph-name="uni04D5" unicode="&#x4d5;" horiz-adv-x="1016" 
d="M265 -6q-102 0 -171 70.5t-69 183.5q0 111 69 181.5t171 70.5q103 0 159 -74v69h140v-69q65 75 181 75q65 0 121 -27.5t92.5 -86t37.5 -137.5q0 -26 -2 -41h-378q8 -49 44.5 -78.5t84.5 -29.5q81 0 127 57l84 -71q-73 -93 -210 -93q-119 0 -182 78v-72h-140v69
q-57 -75 -159 -75zM621 304h243q-8 45 -41.5 72t-79.5 27t-78.5 -27t-43.5 -72zM297 119q52 0 89.5 38t37.5 91t-37 90.5t-90 37.5q-54 0 -91 -37t-37 -91q0 -55 36.5 -92t91.5 -37z" />
    <glyph glyph-name="uni04D6" unicode="&#x4d6;" horiz-adv-x="589" 
d="M311 789q-69 0 -107.5 39.5t-39.5 94.5h64q1 -25 22 -47t61 -22q39 0 60 22t23 47h63q-1 -55 -39 -94.5t-107 -39.5zM61 0v700h494v-131h-347v-154h340v-127h-340v-157h347v-131h-494z" />
    <glyph glyph-name="uni04D7" unicode="&#x4d7;" horiz-adv-x="557" 
d="M281 599q-69 0 -107.5 39.5t-39.5 94.5h64q1 -25 22 -47t61 -22q39 0 60 22t23 47h63q-1 -55 -39 -94.5t-107 -39.5zM286 511q110 0 179.5 -69.5t70.5 -191.5q0 -26 -1 -41h-380q10 -52 46 -80t85 -28q82 0 126 57l85 -71q-34 -47 -91 -73.5t-119 -26.5q-112 0 -187 75.5
t-75 184.5q0 113 74.5 188.5t186.5 75.5zM287 403q-47 0 -80.5 -26t-47.5 -73h250q-29 99 -122 99z" />
    <glyph glyph-name="uni04D8" unicode="&#x4d8;" horiz-adv-x="775" 
d="M387 710q150 0 253.5 -105t103.5 -255t-103.5 -255t-253.5 -105q-149 0 -252.5 105t-103.5 255v51h561q-14 80 -70 127.5t-134 47.5q-116 0 -185 -98l-103 86q49 68 124 107t163 39zM388 119q72 0 126.5 44t74.5 118h-403q20 -74 74.5 -118t127.5 -44z" />
    <glyph glyph-name="uni04D9" unicode="&#x4d9;" horiz-adv-x="557" 
d="M272 511q112 0 187 -75.5t75 -184.5q0 -113 -74.5 -188.5t-186.5 -75.5q-111 0 -180.5 69.5t-70.5 191.5q0 26 2 40h381q-10 53 -46.5 80.5t-85.5 27.5q-83 0 -127 -57l-85 72q34 47 92 73.5t119 26.5zM272 95q47 0 81 26t47 72h-250q29 -98 122 -98z" />
    <glyph glyph-name="uni04E2" unicode="&#x4e2;" horiz-adv-x="738" 
d="M240 813v84h259v-84h-259zM61 0v700h147v-471l304 471h166v-700h-147v470l-304 -470h-166z" />
    <glyph glyph-name="uni04E3" unicode="&#x4e3;" horiz-adv-x="599" 
d="M430 692v-84h-259v84h259zM418 495h131v-495h-131v305l-237 -305h-131v495h131v-305z" />
    <glyph glyph-name="uni04E4" unicode="&#x4e4;" horiz-adv-x="738" 
d="M278 796q-25 0 -42.5 17.5t-17.5 42.5q0 23 17.5 40.5t42.5 17.5q24 0 41.5 -17t17.5 -41q0 -25 -17 -42.5t-42 -17.5zM461 796q-25 0 -43 17.5t-18 42.5q0 24 18 41t43 17q24 0 41.5 -17t17.5 -41q0 -25 -17.5 -42.5t-41.5 -17.5zM61 0v700h147v-471l304 471h166v-700
h-147v470l-304 -470h-166z" />
    <glyph glyph-name="uni04E5" unicode="&#x4e5;" horiz-adv-x="599" 
d="M209 591q-25 0 -42.5 17.5t-17.5 42.5q0 23 17.5 40.5t42.5 17.5t42 -17.5t17 -40.5q0 -25 -17 -42.5t-42 -17.5zM392 591q-25 0 -43 17.5t-18 42.5q0 24 18 41t43 17q24 0 41.5 -17t17.5 -41q0 -25 -17.5 -42.5t-41.5 -17.5zM418 495h131v-495h-131v305l-237 -305h-131
v495h131v-305z" />
    <glyph glyph-name="uni04E6" unicode="&#x4e6;" horiz-adv-x="775" 
d="M297 796q-25 0 -42.5 17.5t-17.5 42.5q0 23 17.5 40.5t42.5 17.5t42 -17t17 -41q0 -25 -17 -42.5t-42 -17.5zM480 796q-25 0 -43 17.5t-18 42.5q0 24 18 41t43 17q24 0 41.5 -17t17.5 -41q0 -25 -17.5 -42.5t-41.5 -17.5zM388 -10q-150 0 -253.5 105t-103.5 255
t103.5 255t253.5 105q149 0 252.5 -105t103.5 -255t-103.5 -255t-252.5 -105zM387 134q88 0 148 62.5t60 153.5t-60 153.5t-148 62.5t-147.5 -62.5t-59.5 -153.5t59.5 -153.5t147.5 -62.5z" />
    <glyph glyph-name="uni04E7" unicode="&#x4e7;" horiz-adv-x="596" 
d="M207 591q-25 0 -42.5 17.5t-17.5 42.5q0 23 17.5 40.5t42.5 17.5t42 -17.5t17 -40.5q0 -25 -17 -42.5t-42 -17.5zM390 591q-25 0 -43 17.5t-18 42.5q0 24 18 41t43 17q24 0 41.5 -17t17.5 -41q0 -25 -17.5 -42.5t-41.5 -17.5zM298 -14q-110 0 -188.5 76.5t-78.5 185.5
t78.5 186.5t188.5 77.5t188.5 -77.5t78.5 -186.5t-78.5 -185.5t-188.5 -76.5zM298 111q55 0 92.5 38.5t37.5 97.5q0 60 -37.5 99t-92.5 38q-55 1 -92.5 -38t-37.5 -99q0 -59 37.5 -97.5t92.5 -38.5z" />
    <glyph glyph-name="uni04E8" unicode="&#x4e8;" horiz-adv-x="775" 
d="M388 710q149 0 252.5 -105t103.5 -255t-103.5 -255t-252.5 -105q-150 0 -253.5 105t-103.5 255t103.5 255t253.5 105zM387 566q-73 0 -128 -44t-73 -113h403q-18 69 -73.5 113t-128.5 44zM387 134q73 0 129 44t74 114h-405q18 -70 73.5 -114t128.5 -44z" />
    <glyph glyph-name="uni04E9" unicode="&#x4e9;" horiz-adv-x="596" 
d="M298 -14q-110 0 -188.5 76.5t-78.5 185.5t78.5 186.5t188.5 77.5t188.5 -77.5t78.5 -186.5t-78.5 -185.5t-188.5 -76.5zM179 302h237q-14 38 -45.5 60.5t-72.5 21.5q-41 1 -73 -21.5t-46 -60.5zM298 111q41 0 73 22t45 60h-237q14 -38 46 -60t73 -22z" />
    <glyph glyph-name="uni04EC" unicode="&#x4ec;" horiz-adv-x="727" 
d="M273 796q-25 0 -42.5 17.5t-17.5 42.5q0 23 17.5 40.5t42.5 17.5t42 -17t17 -41q0 -25 -17 -42.5t-42 -17.5zM456 796q-25 0 -43 17.5t-18 42.5q0 24 18 41t43 17q24 0 41.5 -17t17.5 -41q0 -25 -17.5 -42.5t-41.5 -17.5zM340 710q152 0 254 -104.5t102 -255.5
t-102 -255.5t-254 -104.5q-103 0 -186.5 51.5t-128.5 138.5l123 63q27 -50 79 -82t114 -33q79 -1 136.5 42t76.5 117h-298v126h298q-18 73 -76 116.5t-137 43.5q-62 0 -113 -31t-79 -81l-122 62q46 85 128.5 136t184.5 51z" />
    <glyph glyph-name="uni04ED" unicode="&#x4ed;" horiz-adv-x="514" 
d="M137 591q-25 0 -42.5 17.5t-17.5 42.5q0 23 17.5 40.5t42.5 17.5t42 -17.5t17 -40.5q0 -25 -17 -42.5t-42 -17.5zM320 591q-25 0 -43 17.5t-18 42.5q0 24 18 41t43 17q24 0 41.5 -17t17.5 -41q0 -25 -17.5 -42.5t-41.5 -17.5zM228 512q113 0 189.5 -77t76.5 -187
q0 -109 -76.5 -185.5t-189.5 -76.5q-65 0 -121.5 28.5t-93.5 78.5l108 79q17 -26 46 -41t61 -14q36 1 65 20t44 51h-157v119h157q-14 33 -43.5 52.5t-65.5 18.5q-65 -2 -106 -53l-110 79q38 50 94.5 79t121.5 29z" />
    <glyph glyph-name="uni04EE" unicode="&#x4ee;" horiz-adv-x="668" 
d="M473 897v-84h-259v84h259zM490 700h164l-254 -523q-52 -108 -122 -147t-176 -40l13 135q121 2 158 85l-259 490h166l163 -332z" />
    <glyph glyph-name="uni04EF" unicode="&#x4ef;" horiz-adv-x="570" 
d="M157 612v84h259v-84h-259zM52 -250l13 131q47 0 84.5 22t51.5 67l14 34l-207 491h148l131 -355l126 355h149l-238 -573q-38 -91 -105 -131.5t-167 -40.5z" />
    <glyph glyph-name="uni04F0" unicode="&#x4f0;" horiz-adv-x="668" 
d="M253 796q-25 0 -42.5 17.5t-17.5 42.5q0 23 17.5 40.5t42.5 17.5t42 -17t17 -41q0 -25 -17 -42.5t-42 -17.5zM436 796q-25 0 -43 17.5t-18 42.5q0 24 18 41t43 17q24 0 41.5 -17t17.5 -41q0 -25 -17.5 -42.5t-41.5 -17.5zM490 700h164l-254 -523q-52 -108 -122 -147
t-176 -40l13 135q121 2 158 85l-259 490h166l163 -332z" />
    <glyph glyph-name="uni04F1" unicode="&#x4f1;" horiz-adv-x="570" 
d="M195 595q-25 0 -42.5 17.5t-17.5 42.5q0 23 17.5 40.5t42.5 17.5t42 -17.5t17 -40.5q0 -25 -17 -42.5t-42 -17.5zM378 595q-25 0 -43 17.5t-18 42.5q0 24 18 41t43 17q24 0 41.5 -17t17.5 -41q0 -25 -17.5 -42.5t-41.5 -17.5zM52 -250l13 131q47 0 84.5 22t51.5 67l14 34
l-207 491h148l131 -355l126 355h149l-238 -573q-38 -91 -105 -131.5t-167 -40.5z" />
    <glyph glyph-name="uni05B0" unicode="&#x5b0;" 
d="M55 -162q-23 0 -39 15.5t-16 38.5t16 38.5t39 15.5t38.5 -16t15.5 -38t-15.5 -38t-38.5 -16zM55 -321q-23 0 -39 15.5t-16 38.5t16 39t39 16t38.5 -16t15.5 -39t-15.5 -38.5t-38.5 -15.5z" />
    <glyph glyph-name="uni05B1" unicode="&#x5b1;" 
d="M55 -162q-23 0 -39 15.5t-16 38.5t16 38.5t39 15.5t38.5 -16t15.5 -38t-15.5 -38t-38.5 -16zM237 -162q-23 0 -38.5 16t-15.5 38t15.5 38t38.5 16t39 -15.5t16 -38.5t-16 -38.5t-39 -15.5zM420 -162q-23 0 -39 16t-16 38t16 38t39 16q22 0 38 -16t16 -38t-16 -38t-38 -16
zM206 -321q-23 0 -39 15.5t-16 38.5t16 39t39 16t38.5 -16t15.5 -39t-16 -38.5t-38 -15.5zM360 -321q-23 0 -39 16t-16 38q0 23 16 39t39 16t38.5 -16t15.5 -39t-16 -38.5t-38 -15.5z" />
    <glyph glyph-name="uni05B2" unicode="&#x5b2;" 
d="M288 -162q-23 0 -39 15.5t-16 38.5t16 38.5t39 15.5q22 0 38 -16t16 -38t-16 -38t-38 -16zM0 -153v97h201v-97h-201zM288 -321q-23 0 -39 15.5t-16 38.5t16 39t39 16t38.5 -16t15.5 -39t-16 -38.5t-38 -15.5z" />
    <glyph glyph-name="uni05B3" unicode="&#x5b3;" 
d="M55 -165q-23 0 -39 16t-16 39t16 38.5t39 15.5t38.5 -16t15.5 -38q0 -23 -16 -39t-38 -16zM246 -327v188h-101v83h285v-83h-101v-188h-83zM55 -327q-23 0 -39 16t-16 39t16 39t39 16t38.5 -16t15.5 -39t-16 -39t-38 -16z" />
    <glyph glyph-name="uni05B4" unicode="&#x5b4;" 
d="M55 -162q-23 0 -39 15.5t-16 38.5t16 38.5t39 15.5t38.5 -16t15.5 -38t-15.5 -38t-38.5 -16z" />
    <glyph glyph-name="uni05B5" unicode="&#x5b5;" 
d="M85 -162q-23 0 -39 15.5t-16 38.5t16 38.5t39 15.5t38.5 -16t15.5 -38t-15.5 -38t-38.5 -16zM267 -162q-23 0 -38.5 16t-15.5 38t15.5 38t38.5 16t39 -15.5t16 -38.5t-16 -38.5t-39 -15.5z" />
    <glyph glyph-name="uni05B6" unicode="&#x5b6;" 
d="M55 -162q-23 0 -39 15.5t-16 38.5t16 38.5t39 15.5t38.5 -16t15.5 -38t-15.5 -38t-38.5 -16zM237 -162q-23 0 -38.5 16t-15.5 38t15.5 38t38.5 16t39 -15.5t16 -38.5t-16 -38.5t-39 -15.5zM146 -321q-23 0 -39 15.5t-16 38.5t16 39t39 16t38.5 -16t15.5 -39t-16 -38.5
t-38 -15.5z" />
    <glyph glyph-name="uni05B7" unicode="&#x5b7;" 
d="M0 -153v97h273v-97h-273z" />
    <glyph glyph-name="uni05B8" unicode="&#x5b8;" 
d="M107 -264v125h-107v83h298v-83h-107v-125h-84z" />
    <glyph glyph-name="uni05B9" unicode="&#x5b9;" 
d="M55 676q-23 0 -39 15.5t-16 38.5t16 38.5t39 15.5t38.5 -16t15.5 -38t-15.5 -38t-38.5 -16z" />
    <glyph glyph-name="uni05BA" unicode="&#x5ba;" 
d="M55 676q-23 0 -39 15.5t-16 38.5t16 38.5t39 15.5t38.5 -16t15.5 -38t-15.5 -38t-38.5 -16z" />
    <glyph glyph-name="uni05BB" unicode="&#x5bb;" 
d="M55 -162q-23 0 -39 15.5t-16 38.5t16 38.5t39 15.5t38.5 -16t15.5 -38t-15.5 -38t-38.5 -16zM165 -254q-23 0 -39 15.5t-16 38.5t16 39t39 16t38.5 -16t15.5 -39q0 -22 -15.5 -38t-38.5 -16zM272 -350q-23 0 -39 15.5t-16 38.5t16 39t39 16t38.5 -16t15.5 -39
q0 -22 -16 -38t-38 -16z" />
    <glyph glyph-name="uni05BC" unicode="&#x5bc;" 
d="M48 253q-20 0 -34 14t-14 34t14 34t34 14t34 -14t14 -34t-14 -34t-34 -14z" />
    <glyph glyph-name="uni05BE" unicode="&#x5be;" horiz-adv-x="469" 
d="M30 498v122h409v-122h-409z" />
    <glyph glyph-name="uni05C1" unicode="&#x5c1;" 
d="M55 676q-23 0 -39 15.5t-16 38.5t16 38.5t39 15.5t38.5 -16t15.5 -38t-15.5 -38t-38.5 -16z" />
    <glyph glyph-name="uni05C2" unicode="&#x5c2;" 
d="M55 676q-23 0 -39 15.5t-16 38.5t16 38.5t39 15.5t38.5 -16t15.5 -38t-15.5 -38t-38.5 -16z" />
    <glyph glyph-name="uni05C7" unicode="&#x5c7;" 
d="M107 -290v151h-107v83h298v-83h-107v-151h-84z" />
    <glyph glyph-name="uni05D0" unicode="&#x5d0;" horiz-adv-x="710" 
d="M672 0h-170l-237 316q-53 -68 -69.5 -138t-16.5 -178h-142q2 132 33 227t119 191l-152 202h171l186 -248q57 54 83 112.5t26 135.5h146q0 -209 -177 -352z" />
    <glyph glyph-name="uni05D1" unicode="&#x5d1;" horiz-adv-x="630" 
d="M545 133h72v-133h-583v133h373v228q0 66 -31.5 96t-101.5 30h-240v133h265q130 0 188 -58.5t58 -183.5v-245z" />
    <glyph glyph-name="uni05D2" unicode="&#x5d2;" horiz-adv-x="547" 
d="M492 0h-148l-52 172q-61 -28 -90 -66t-29 -106h-139q0 109 66.5 183t178.5 106v72q0 66 -29 96t-93 30h-37v133h54q120 0 182.5 -61t62.5 -181v-155z" />
    <glyph glyph-name="uni05D3" unicode="&#x5d3;" horiz-adv-x="627" 
d="M369 0v487h-356v133h580v-133h-84v-487h-140z" />
    <glyph glyph-name="uni05D4" unicode="&#x5d4;" horiz-adv-x="641" 
d="M451 0v361q0 66 -30.5 96t-99.5 30h-278v133h295q253 0 253 -242v-378h-140zM47 0v366h140v-366h-140z" />
    <glyph glyph-name="uni05D5" unicode="&#x5d5;" horiz-adv-x="354" 
d="M304 620v-620h-140v487h-121v133h261z" />
    <glyph glyph-name="uni05D6" unicode="&#x5d6;" horiz-adv-x="454" 
d="M43 620h368v-133q-59 -32 -83 -76.5t-24 -124.5v-286h-140v285q0 79 22 125t74 77h-217v133z" />
    <glyph glyph-name="uni05D7" unicode="&#x5d7;" horiz-adv-x="660" 
d="M358 620q252 0 252 -242v-378h-139v361q0 66 -30 96t-99 30h-160v-487h-139v620h315z" />
    <glyph glyph-name="uni05D8" unicode="&#x5d8;" horiz-adv-x="666" 
d="M330 -5q-140 0 -213.5 80t-73.5 222v323h140v-322q0 -84 38 -127t109 -43q146 0 146 173v100q0 63 -25.5 82.5t-76.5 16.5v118q23 5 71 5q171 0 171 -215v-111q0 -141 -73.5 -221.5t-212.5 -80.5z" />
    <glyph glyph-name="uni05D9" unicode="&#x5d9;" horiz-adv-x="352" 
d="M302 620v-368h-138v235h-121v133h259z" />
    <glyph glyph-name="uni05DA" unicode="&#x5da;" horiz-adv-x="543" 
d="M353 -250v611q0 66 -30.5 96t-99.5 30h-209v133h227q252 0 252 -242v-628h-140z" />
    <glyph glyph-name="uni05DB" unicode="&#x5db;" horiz-adv-x="630" 
d="M54 0v133h208q94 0 144 48.5t50 128.5q0 81 -55 129t-166 48q-83 0 -169 -26l-32 127q109 32 208 32q170 0 262 -87t92 -223q0 -137 -84.5 -223.5t-249.5 -86.5h-208z" />
    <glyph glyph-name="uni05DC" unicode="&#x5dc;" horiz-adv-x="638" 
d="M595 620l3 -115q-1 -66 -20 -126.5t-45.5 -105.5t-53 -87t-45 -90t-18.5 -96h-140q0 59 18.5 115t45.5 100t54 86.5t45.5 90.5t18.5 95h-424v263h133v-130h428z" />
    <glyph glyph-name="uni05DD" unicode="&#x5dd;" horiz-adv-x="662" 
d="M43 0v620h317q252 0 252 -242v-378h-569zM182 133h291v228q0 66 -30 96t-99 30h-162v-354z" />
    <glyph glyph-name="uni05DE" unicode="&#x5de;" horiz-adv-x="738" 
d="M435 620q253 0 253 -242v-378h-344v133h204v228q0 66 -30.5 96t-99.5 30h-128l-91 -487h-142l91 487h-95v133h382z" />
    <glyph glyph-name="uni05DF" unicode="&#x5df;" horiz-adv-x="354" 
d="M304 620v-870h-140v737h-121v133h261z" />
    <glyph glyph-name="uni05E0" unicode="&#x5e0;" horiz-adv-x="432" 
d="M130 620q252 0 252 -242v-378h-347l-1 133h208v228q0 66 -30 96t-99 30h-54v133h71z" />
    <glyph glyph-name="uni05E1" unicode="&#x5e1;" horiz-adv-x="666" 
d="M330 -5q-140 0 -213.5 77t-73.5 216v332h321q252 0 252 -242v-90q0 -139 -73 -216t-213 -77zM330 128q73 0 109.5 39t36.5 126v68q0 66 -30 96t-99 30h-164v-197q0 -162 147 -162z" />
    <glyph glyph-name="uni05E2" unicode="&#x5e2;" horiz-adv-x="682" 
d="M492 617h140v-333q0 -85 -25 -145.5t-70.5 -98.5t-121 -60.5t-162.5 -31t-210 -9.5v133q53 0 137 2l-112 545l142 2l110 -533q88 17 130 63.5t42 139.5v326z" />
    <glyph glyph-name="uni05E3" unicode="&#x5e3;" horiz-adv-x="616" 
d="M276 627q132 0 211 -73t79 -217v-587h-140v576q0 165 -179 165q-38 0 -95 -10v-183h-133v290q140 39 257 39z" />
    <glyph glyph-name="uni05E4" unicode="&#x5e4;" horiz-adv-x="646" 
d="M262 620q168 0 259.5 -87.5t91.5 -222.5t-86.5 -222.5t-243.5 -87.5h-244v133h244q86 0 138 49.5t52 127.5q0 81 -54.5 129t-163.5 48q-40 0 -83 -5v-184h-133v290q106 32 223 32z" />
    <glyph glyph-name="uni05E5" unicode="&#x5e5;" horiz-adv-x="638" 
d="M468 620h134l-15 -126q-24 -208 -201 -281v-463h-140v501l-236 369h161l184 -297q85 54 100 185z" />
    <glyph glyph-name="uni05E6" unicode="&#x5e6;" horiz-adv-x="685" 
d="M642 620q0 -224 -165 -354l136 -173v-93h-557v133h348l-384 487h179l200 -254q101 100 101 254h142z" />
    <glyph glyph-name="uni05E7" unicode="&#x5e7;" horiz-adv-x="664" 
d="M302 0q0 71 28.5 141.5t62 117.5t62 109t28.5 119h-440v133h578l2 -115q-1 -66 -20 -126.5t-45.5 -105.5t-52.5 -87t-44.5 -90t-18.5 -96h-140zM47 -250v616h140v-616h-140z" />
    <glyph glyph-name="uni05E8" unicode="&#x5e8;" horiz-adv-x="553" 
d="M363 0v361q0 66 -30 96t-99 30h-213v133h230q252 0 252 -242v-378h-140z" />
    <glyph glyph-name="uni05E9" unicode="&#x5e9;" horiz-adv-x="797" 
d="M615 620h132v-303q0 -138 -93 -230t-258 -92q-167 0 -260 92t-93 230v303h133v-283q0 -51 17 -91q136 50 136 210v164h132v-178q0 -206 -213 -270q59 -47 148 -47q94 0 156.5 53.5t62.5 161.5v280z" />
    <glyph glyph-name="uni05EA" unicode="&#x5ea;" horiz-adv-x="733" 
d="M431 620q252 0 252 -242v-378h-139v361q0 66 -30 96t-99 30h-159v-269q0 -117 -50.5 -168.5t-147.5 -51.5q-9 0 -37 2v120q49 -3 72 17t23 82v401h315z" />
    <glyph glyph-name="uni1E0C" unicode="&#x1e0c;" horiz-adv-x="716" 
d="M61 0v700l271 1q95 0 174 -39.5t129 -120.5t50 -190q0 -82 -29 -149.5t-77.5 -111t-112 -67t-134.5 -23.5h-271zM208 144h118q93 0 152.5 52.5t59.5 154.5t-59.5 154t-152.5 52l-118 -1v-412zM360 -192q-25 0 -43 18t-18 43q0 24 18 41.5t43 17.5t43 -17.5t18 -41.5
q0 -25 -17.5 -43t-43.5 -18z" />
    <glyph glyph-name="uni1E0D" unicode="&#x1e0d;" horiz-adv-x="609" 
d="M256 -9q-99 0 -165 74t-66 183t66 182.5t165 73.5q104 0 163 -72v318h140v-750h-140v63q-59 -72 -163 -72zM291 114q54 0 91 38.5t37 95.5t-37 95.5t-91 38.5t-90 -38t-36 -96t36 -96t90 -38zM282 -202q-25 0 -43 18t-18 43q0 24 18 41.5t43 17.5t43 -17.5t18 -41.5
q0 -25 -17.5 -43t-43.5 -18z" />
    <glyph glyph-name="uni1E24" unicode="&#x1e24;" horiz-adv-x="731" 
d="M61 0v700h147v-281h316v281h147v-700h-147v279h-316v-279h-147zM365 -192q-25 0 -43 18t-18 43q0 24 18 41.5t43 17.5t43 -17.5t18 -41.5q0 -25 -18 -43t-43 -18z" />
    <glyph glyph-name="uni1E25" unicode="&#x1e25;" horiz-adv-x="594" 
d="M50 0v750h140v-313q54 64 147 64q97 0 155.5 -64t58.5 -180v-257h-140v246q0 66 -29.5 101t-78.5 35q-52 0 -82.5 -37t-30.5 -102v-243h-140zM293 -192q-25 0 -43 18t-18 43q0 24 18 41.5t43 17.5t43 -17.5t18 -41.5q0 -25 -18 -43t-43 -18z" />
    <glyph glyph-name="uni1E2E" unicode="&#x1e2e;" horiz-adv-x="268" 
d="M90 998l69 143h110l-85 -143h-94zM43 796q-25 0 -42.5 17.5t-17.5 42.5q0 23 17.5 40.5t42.5 17.5t42 -17t17 -41q0 -25 -17 -42.5t-42 -17.5zM226 796q-25 0 -43 17.5t-18 42.5q0 24 18 41t43 17q24 0 41.5 -17t17.5 -41q0 -25 -17.5 -42.5t-41.5 -17.5zM61 0v700h147
v-700h-147z" />
    <glyph glyph-name="uni1E2F" unicode="&#x1e2f;" horiz-adv-x="235" 
d="M75 793l69 143h110l-85 -143h-94zM29 591q-25 0 -42.5 17.5t-17.5 42.5q0 23 17.5 40.5t42.5 17.5t42 -17.5t17 -40.5q0 -25 -17 -42.5t-42 -17.5zM212 591q-25 0 -43 17.5t-18 42.5q0 24 18 41t43 17q24 0 41.5 -17t17.5 -41q0 -25 -17.5 -42.5t-41.5 -17.5zM49 0v495
h137v-495h-137z" />
    <glyph glyph-name="uni1E36" unicode="&#x1e36;" horiz-adv-x="566" 
d="M61 0v700h147v-564h344v-136h-491zM304 -192q-25 0 -43 18t-18 43q0 24 18 41.5t43 17.5t43 -17.5t18 -41.5q0 -25 -17.5 -43t-43.5 -18z" />
    <glyph glyph-name="uni1E37" unicode="&#x1e37;" horiz-adv-x="313" 
d="M223 -2q-80 0 -126.5 46t-46.5 128v578h140v-552q0 -36 20 -53.5t50 -17.5q16 0 28 4l14 -122q-44 -11 -79 -11zM164 -192q-25 0 -43 18t-18 43q0 24 18 41.5t43 17.5t43 -17.5t18 -41.5q0 -25 -17.5 -43t-43.5 -18z" />
    <glyph glyph-name="uni1E3E" unicode="&#x1e3e;" horiz-adv-x="906" 
d="M408 784l69 143h110l-85 -143h-94zM61 0v700h168l224 -412l224 412h168v-700h-147v449l-189 -336h-113l-188 335v-448h-147z" />
    <glyph glyph-name="uni1E3F" unicode="&#x1e3f;" horiz-adv-x="942" 
d="M450 594l69 143h110l-85 -143h-94zM50 0v495h140v-59q60 68 151 68q102 0 164 -86q71 86 181 86q98 0 155.5 -65t57.5 -182v-257h-140v245q0 68 -28.5 104t-76.5 36q-51 0 -80 -37.5t-29 -102.5v-245h-140v245q0 67 -29 103.5t-76 36.5q-50 0 -80 -38.5t-30 -105.5v-241
h-140z" />
    <glyph glyph-name="uni1E44" unicode="&#x1e44;" horiz-adv-x="738" 
d="M363 789q-29 0 -49 19.5t-20 47.5q0 27 20 46.5t48 19.5t47.5 -19.5t19.5 -46.5q0 -28 -19.5 -47.5t-46.5 -19.5zM61 0v700h165l305 -464v464h147v-700h-166l-304 463v-463h-147z" />
    <glyph glyph-name="uni1E45" unicode="&#x1e45;" horiz-adv-x="594" 
d="M306 584q-29 0 -49 19.5t-20 47.5q0 27 20 46.5t48 19.5t47.5 -19.5t19.5 -46.5q0 -28 -19.5 -47.5t-46.5 -19.5zM50 0v495h140v-59q58 68 147 68q97 0 155.5 -65t58.5 -182v-257h-140v245q0 67 -29.5 103t-78.5 36q-52 0 -82.5 -38t-30.5 -104v-242h-140z" />
    <glyph glyph-name="uni1E46" unicode="&#x1e46;" horiz-adv-x="738" 
d="M61 0v700h165l305 -464v464h147v-700h-166l-304 463v-463h-147zM362 -192q-26 0 -43.5 18t-17.5 43q0 24 18 41.5t43 17.5t43 -17.5t18 -41.5q0 -25 -18 -43t-43 -18z" />
    <glyph glyph-name="uni1E47" unicode="&#x1e47;" horiz-adv-x="594" 
d="M50 0v495h140v-59q58 68 147 68q97 0 155.5 -65t58.5 -182v-257h-140v245q0 67 -29.5 103t-78.5 36q-52 0 -82.5 -38t-30.5 -104v-242h-140zM303 -192q-25 0 -43 18t-18 43q0 24 18 41.5t43 17.5t43 -17.5t18 -41.5q0 -25 -18 -43t-43 -18z" />
    <glyph glyph-name="uni1E62" unicode="&#x1e62;" horiz-adv-x="575" 
d="M292 -11q-101 0 -173.5 48.5t-98.5 133.5l142 40q13 -41 48.5 -64.5t82.5 -23.5q49 0 79 22t30 57q0 13 -4 23t-14 18.5t-18 13.5t-26 11t-27.5 8.5t-33 8.5t-32.5 8q-36 9 -62 18t-57.5 26t-51.5 37.5t-33.5 53t-13.5 72.5q0 91 73 151.5t180 60.5q96 0 160 -45.5
t90 -129.5l-134 -39q-27 83 -113 83q-48 0 -76.5 -24t-28.5 -57q0 -10 2.5 -18t8 -15t11 -12.5t16 -11t17.5 -8.5t22 -7.5t22.5 -7t25 -7t24.5 -6.5q31 -9 43 -12t42 -14t44 -19.5t36.5 -24.5t33 -33.5t19 -43t8.5 -54.5q0 -97 -75.5 -157t-187.5 -60zM282 -193
q-25 0 -43 18t-18 43q0 24 18 41.5t43 17.5t43 -17.5t18 -41.5q0 -26 -17.5 -43.5t-43.5 -17.5z" />
    <glyph glyph-name="uni1E63" unicode="&#x1e63;" horiz-adv-x="491" 
d="M247 -18q-79 0 -141.5 37.5t-85.5 101.5l121 38q29 -65 108 -65q40 0 63 15.5t23 43.5q0 21 -21 31.5t-49.5 11.5t-70 6.5t-70.5 17.5q-85 38 -85 126q0 69 59 116t144 47q80 0 133.5 -37t70.5 -99l-119 -33q-7 29 -29 46.5t-55 17.5t-54.5 -16t-21.5 -39q0 -29 34 -39.5
t92 -16t89 -18.5q89 -37 89 -124q0 -76 -63 -122.5t-161 -46.5zM248 -193q-25 0 -43 18t-18 43q0 24 18 41.5t43 17.5t43 -17.5t18 -41.5q0 -26 -17.5 -43.5t-43.5 -17.5z" />
    <glyph glyph-name="uni1E6C" unicode="&#x1e6c;" horiz-adv-x="629" 
d="M241 0v571h-227v129h601v-129h-227v-571h-147zM322 -192q-25 0 -43 18t-18 43q0 24 18 41.5t43 17.5t43 -17.5t18 -41.5q0 -25 -17.5 -43t-43.5 -18z" />
    <glyph glyph-name="uni1E6D" unicode="&#x1e6d;" horiz-adv-x="443" 
d="M310 -2q-85 0 -138 48.5t-53 128.5v198h-105v122h105v144h138v-144h138v-122h-138v-167q0 -80 85 -80q25 0 51 8l15 -120q-51 -16 -98 -16zM311 -192q-25 0 -43 18t-18 43q0 24 18 41.5t43 17.5t43 -17.5t18 -41.5q0 -25 -18 -43t-43 -18z" />
    <glyph glyph-name="Wgrave" unicode="&#x1e80;" horiz-adv-x="1037" 
d="M473 784l-96 143h111l78 -143h-93zM208 0l-198 700h158l130 -505l151 505h139l151 -505l130 505h158l-198 -700h-169l-141 452l-142 -452h-169z" />
    <glyph glyph-name="wgrave" unicode="&#x1e81;" horiz-adv-x="887" 
d="M397 579l-96 143h111l78 -143h-93zM181 0l-170 495h149l100 -338l111 338h146l110 -338l100 338h149l-170 -495h-160l-102 330l-103 -330h-160z" />
    <glyph glyph-name="Wacute" unicode="&#x1e82;" horiz-adv-x="1037" 
d="M476 784l69 143h110l-85 -143h-94zM208 0l-198 700h158l130 -505l151 505h139l151 -505l130 505h158l-198 -700h-169l-141 452l-142 -452h-169z" />
    <glyph glyph-name="wacute" unicode="&#x1e83;" horiz-adv-x="887" 
d="M399 579l69 143h110l-85 -143h-94zM181 0l-170 495h149l100 -338l111 338h146l110 -338l100 338h149l-170 -495h-160l-102 330l-103 -330h-160z" />
    <glyph glyph-name="Wdieresis" unicode="&#x1e84;" horiz-adv-x="1037" 
d="M429 796q-25 0 -42.5 17.5t-17.5 42.5q0 23 17.5 40.5t42.5 17.5t42 -17t17 -41q0 -25 -17 -42.5t-42 -17.5zM612 796q-25 0 -43 17.5t-18 42.5q0 24 18 41t43 17q24 0 41.5 -17t17.5 -41q0 -25 -17.5 -42.5t-41.5 -17.5zM208 0l-198 700h158l130 -505l151 505h139
l151 -505l130 505h158l-198 -700h-169l-141 452l-142 -452h-169z" />
    <glyph glyph-name="wdieresis" unicode="&#x1e85;" horiz-adv-x="887" 
d="M352 591q-25 0 -42.5 17.5t-17.5 42.5q0 23 17.5 40.5t42.5 17.5q24 0 41.5 -17.5t17.5 -40.5q0 -25 -17 -42.5t-42 -17.5zM535 591q-25 0 -43 17.5t-18 42.5q0 24 18 41t43 17q24 0 41.5 -17t17.5 -41q0 -25 -17.5 -42.5t-41.5 -17.5zM181 0l-170 495h149l100 -338
l111 338h146l110 -338l100 338h149l-170 -495h-160l-102 330l-103 -330h-160z" />
    <glyph glyph-name="uni1E92" unicode="&#x1e92;" horiz-adv-x="585" 
d="M34 0v127l335 440h-335v133h513v-127l-335 -440h350v-133h-528zM236 -192q-25 0 -43 18t-18 43q0 24 18 41.5t43 17.5t43 -17.5t18 -41.5q0 -25 -17.5 -43t-43.5 -18z" />
    <glyph glyph-name="uni1E93" unicode="&#x1e93;" horiz-adv-x="556" 
d="M44 0v117l275 257h-262v121h452v-117l-275 -257h285v-121h-475zM279 -192q-25 0 -43 18t-18 43q0 24 18 41.5t43 17.5t43 -17.5t18 -41.5q0 -25 -18 -43t-43 -18z" />
    <glyph glyph-name="uni1E9E" unicode="&#x1e9e;" horiz-adv-x="819" 
d="M597 401q107 -31 154.5 -75.5t47.5 -113.5q0 -94 -71 -153t-180 -59q-95 0 -163.5 46t-97.5 133l131 39q33 -84 131 -84q49 0 78.5 22t29.5 62q0 34 -32 53.5t-100 33.5q-105 23 -154.5 70t-49.5 124q0 53 32 95h-17q-60 0 -94 -54t-34 -165v-375h-147v378
q0 157 81.5 239.5t206.5 82.5h192v-106h-5q-40 0 -65.5 -24t-25.5 -59q0 -43 36 -65t116 -45z" />
    <glyph glyph-name="uni1EA0" unicode="&#x1ea0;" horiz-adv-x="738" 
d="M8 0l282 700h155l285 -700h-162l-45 115h-309l-44 -115h-162zM261 249h215l-107 282h-2zM382 -192q-25 0 -43 18t-18 43q0 24 18 41.5t43 17.5t43 -17.5t18 -41.5q0 -25 -17.5 -43t-43.5 -18z" />
    <glyph glyph-name="uni1EA1" unicode="&#x1ea1;" horiz-adv-x="609" 
d="M256 -9q-99 0 -165 74t-66 183t66 182.5t165 73.5q103 0 163 -71v62h140v-495h-140v62q-61 -71 -163 -71zM291 114q54 0 91 38.5t37 95.5t-37 95.5t-91 38.5t-90.5 -38t-36.5 -96t36.5 -96t90.5 -38zM286 -192q-25 0 -43 18t-18 43q0 24 18 41.5t43 17.5t43 -17.5
t18 -41.5q0 -25 -17.5 -43t-43.5 -18z" />
    <glyph glyph-name="uni1EA2" unicode="&#x1ea2;" horiz-adv-x="738" 
d="M384 767l-44 38q4 4 11.5 11t11 10t9.5 9t8 9t6.5 8t6 8.5t3.5 8.5t2.5 9.5t0.5 9.5q0 14 -9 23t-25 9q-28 0 -35 -30l-56 27q10 28 34.5 44.5t56.5 16.5q41 0 68 -24.5t27 -63.5q0 -41 -19.5 -67.5t-56.5 -55.5zM8 0l282 700h155l285 -700h-162l-45 115h-309l-44 -115
h-162zM261 249h215l-107 282h-2z" />
    <glyph glyph-name="uni1EA3" unicode="&#x1ea3;" horiz-adv-x="609" 
d="M319 562l-44 38q4 4 11.5 11t11 10t9.5 9t8 9t6.5 8t6 8.5t3.5 8.5t2.5 9.5t0.5 9.5q0 14 -9 23t-25 9q-28 0 -35 -30l-56 27q10 28 34.5 44.5t56.5 16.5q41 0 68 -24.5t27 -63.5q0 -41 -19.5 -67.5t-56.5 -55.5zM256 -9q-99 0 -165 74t-66 183t66 182.5t165 73.5
q103 0 163 -71v62h140v-495h-140v62q-61 -71 -163 -71zM291 114q54 0 91 38.5t37 95.5t-37 95.5t-91 38.5t-90.5 -38t-36.5 -96t36.5 -96t90.5 -38z" />
    <glyph glyph-name="uni1EA4" unicode="&#x1ea4;" horiz-adv-x="738" 
d="M477 879l60 143h94l-73 -143h-81zM215 770l105 140h102l105 -140h-99l-57 78l-57 -78h-99zM8 0l282 700h155l285 -700h-162l-45 115h-309l-44 -115h-162zM261 249h215l-107 282h-2z" />
    <glyph glyph-name="uni1EA5" unicode="&#x1ea5;" horiz-adv-x="609" 
d="M412 674l60 143h94l-73 -143h-81zM150 565l105 140h102l105 -140h-99l-57 78l-57 -78h-99zM256 -9q-99 0 -165 74t-66 183t66 182.5t165 73.5q103 0 163 -71v62h140v-495h-140v62q-61 -71 -163 -71zM291 114q54 0 91 38.5t37 95.5t-37 95.5t-91 38.5t-90.5 -38t-36.5 -96
t36.5 -96t90.5 -38z" />
    <glyph glyph-name="uni1EA6" unicode="&#x1ea6;" horiz-adv-x="738" 
d="M182 879l-83 143h96l67 -143h-80zM211 770l105 140h102l106 -140h-100l-56 78l-57 -78h-100zM8 0l282 700h155l285 -700h-162l-45 115h-309l-44 -115h-162zM261 249h215l-107 282h-2z" />
    <glyph glyph-name="uni1EA7" unicode="&#x1ea7;" horiz-adv-x="609" 
d="M118 674l-83 143h96l67 -143h-80zM147 565l105 140h102l106 -140h-100l-56 78l-57 -78h-100zM256 -9q-99 0 -165 74t-66 183t66 182.5t165 73.5q103 0 163 -71v62h140v-495h-140v62q-61 -71 -163 -71zM291 114q54 0 91 38.5t37 95.5t-37 95.5t-91 38.5t-90.5 -38
t-36.5 -96t36.5 -96t90.5 -38z" />
    <glyph glyph-name="uni1EA8" unicode="&#x1ea8;" horiz-adv-x="738" 
d="M511 855l-40 35q4 3 12 10.5t10.5 10.5t8.5 8.5t8 8.5t5.5 8t5 9t2.5 9t1 10q0 12 -8 20.5t-22 8.5q-27 0 -32 -27l-51 25q9 25 32 40t51 15q36 0 60.5 -22.5t24.5 -57.5q0 -37 -17.5 -61t-50.5 -50zM216 770l105 140h102l106 -140h-100l-56 78l-57 -78h-100zM8 0
l282 700h155l285 -700h-162l-45 115h-309l-44 -115h-162zM261 249h215l-107 282h-2z" />
    <glyph glyph-name="uni1EA9" unicode="&#x1ea9;" horiz-adv-x="609" 
d="M447 650l-40 35q4 3 12 10.5t10.5 10.5t8.5 8.5t8 8.5t5.5 8t5 9t2.5 9t1 10q0 12 -8 20.5t-22 8.5q-27 0 -32 -27l-51 25q9 25 32 40t51 15q36 0 60.5 -22.5t24.5 -57.5q0 -37 -17.5 -61t-50.5 -50zM152 565l105 140h102l106 -140h-100l-56 78l-57 -78h-100zM256 -9
q-99 0 -165 74t-66 183t66 182.5t165 73.5q103 0 163 -71v62h140v-495h-140v62q-61 -71 -163 -71zM291 114q54 0 91 38.5t37 95.5t-37 95.5t-91 38.5t-90.5 -38t-36.5 -96t36.5 -96t90.5 -38z" />
    <glyph glyph-name="uni1EAA" unicode="&#x1eaa;" horiz-adv-x="738" 
d="M313 948q-59 0 -86 43l43 56q17 -24 46 -24q20 0 52 15.5t56 15.5q50 0 86 -45l-40 -53q-20 23 -51 23q-18 0 -50.5 -15.5t-55.5 -15.5zM211 785l105 140h102l106 -140h-100l-56 78l-57 -78h-100zM8 0l282 700h155l285 -700h-162l-45 115h-309l-44 -115h-162zM261 249
h215l-107 282h-2z" />
    <glyph glyph-name="uni1EAB" unicode="&#x1eab;" horiz-adv-x="609" 
d="M248 743q-59 0 -86 43l43 56q17 -24 46 -24q20 0 52 15.5t56 15.5q50 0 86 -45l-40 -53q-20 23 -51 23q-18 0 -50.5 -15.5t-55.5 -15.5zM146 580l105 140h102l106 -140h-100l-56 78l-57 -78h-100zM256 -9q-99 0 -165 74t-66 183t66 182.5t165 73.5q103 0 163 -71v62h140
v-495h-140v62q-61 -71 -163 -71zM291 114q54 0 91 38.5t37 95.5t-37 95.5t-91 38.5t-90.5 -38t-36.5 -96t36.5 -96t90.5 -38z" />
    <glyph glyph-name="uni1EAC" unicode="&#x1eac;" horiz-adv-x="738" 
d="M210 785l105 140h102l106 -140h-100l-56 78l-57 -78h-100zM8 0l282 700h155l285 -700h-162l-45 115h-309l-44 -115h-162zM261 249h215l-107 282h-2zM382 -192q-25 0 -43 18t-18 43q0 24 18 41.5t43 17.5t43 -17.5t18 -41.5q0 -25 -17.5 -43t-43.5 -18z" />
    <glyph glyph-name="uni1EAD" unicode="&#x1ead;" horiz-adv-x="609" 
d="M146 580l105 140h102l106 -140h-100l-56 78l-57 -78h-100zM256 -9q-99 0 -165 74t-66 183t66 182.5t165 73.5q103 0 163 -71v62h140v-495h-140v62q-61 -71 -163 -71zM291 114q54 0 91 38.5t37 95.5t-37 95.5t-91 38.5t-90.5 -38t-36.5 -96t36.5 -96t90.5 -38zM286 -192
q-25 0 -43 18t-18 43q0 24 18 41.5t43 17.5t43 -17.5t18 -41.5q0 -25 -17.5 -43t-43.5 -18z" />
    <glyph glyph-name="uni1EAE" unicode="&#x1eae;" horiz-adv-x="738" 
d="M326 918l59 133h95l-74 -133h-80zM367 785q-69 0 -107.5 39.5t-39.5 94.5h74q1 -25 19 -45t54 -20q35 0 53 20t20 45h73q-1 -55 -39 -94.5t-107 -39.5zM8 0l282 700h155l285 -700h-162l-45 115h-309l-44 -115h-162zM261 249h215l-107 282h-2z" />
    <glyph glyph-name="uni1EAF" unicode="&#x1eaf;" horiz-adv-x="609" 
d="M262 713l59 133h95l-74 -133h-80zM303 580q-69 0 -107.5 39.5t-39.5 94.5h74q1 -25 19 -45t54 -20q35 0 53 20t20 45h73q-1 -55 -39 -94.5t-107 -39.5zM256 -9q-99 0 -165 74t-66 183t66 182.5t165 73.5q103 0 163 -71v62h140v-495h-140v62q-61 -71 -163 -71zM291 114
q54 0 91 38.5t37 95.5t-37 95.5t-91 38.5t-90.5 -38t-36.5 -96t36.5 -96t90.5 -38z" />
    <glyph glyph-name="uni1EB0" unicode="&#x1eb0;" horiz-adv-x="738" 
d="M330 918l-83 133h96l67 -133h-80zM367 785q-69 0 -107.5 39.5t-39.5 94.5h74q1 -25 19 -45t54 -20q35 0 53 20t20 45h73q-1 -55 -39 -94.5t-107 -39.5zM8 0l282 700h155l285 -700h-162l-45 115h-309l-44 -115h-162zM261 249h215l-107 282h-2z" />
    <glyph glyph-name="uni1EB1" unicode="&#x1eb1;" horiz-adv-x="609" 
d="M266 713l-83 133h96l67 -133h-80zM303 580q-69 0 -107.5 39.5t-39.5 94.5h74q1 -25 19 -45t54 -20q35 0 53 20t20 45h73q-1 -55 -39 -94.5t-107 -39.5zM256 -9q-99 0 -165 74t-66 183t66 182.5t165 73.5q103 0 163 -71v62h140v-495h-140v62q-61 -71 -163 -71zM291 114
q54 0 91 38.5t37 95.5t-37 95.5t-91 38.5t-90.5 -38t-36.5 -96t36.5 -96t90.5 -38z" />
    <glyph glyph-name="uni1EB2" unicode="&#x1eb2;" horiz-adv-x="738" 
d="M374 883l-41 35q4 4 13.5 13t12.5 12t9.5 10t9 10.5t5.5 9.5t4 11t1 11q0 30 -32 30q-12 0 -21 -8t-11 -20l-52 25q9 26 32 41.5t52 15.5q38 0 63.5 -23t25.5 -59q0 -37 -18.5 -62.5t-52.5 -51.5zM367 785q-69 0 -107.5 39.5t-39.5 94.5h74q1 -25 19 -45t54 -20
q35 0 53 20t20 45h73q-1 -55 -39 -94.5t-107 -39.5zM8 0l282 700h155l285 -700h-162l-45 115h-309l-44 -115h-162zM261 249h215l-107 282h-2z" />
    <glyph glyph-name="uni1EB3" unicode="&#x1eb3;" horiz-adv-x="609" 
d="M310 678l-41 35q4 4 13.5 13t12.5 12t9.5 10t9 10.5t5.5 9.5t4 11t1 11q0 30 -32 30q-12 0 -21 -8t-11 -20l-52 25q9 26 32 41.5t52 15.5q38 0 63.5 -23t25.5 -59q0 -37 -18.5 -62.5t-52.5 -51.5zM303 580q-69 0 -107.5 39.5t-39.5 94.5h74q1 -25 19 -45t54 -20
q35 0 53 20t20 45h73q-1 -55 -39 -94.5t-107 -39.5zM256 -9q-99 0 -165 74t-66 183t66 182.5t165 73.5q103 0 163 -71v62h140v-495h-140v62q-61 -71 -163 -71zM291 114q54 0 91 38.5t37 95.5t-37 95.5t-91 38.5t-90.5 -38t-36.5 -96t36.5 -96t90.5 -38z" />
    <glyph glyph-name="uni1EB4" unicode="&#x1eb4;" horiz-adv-x="738" 
d="M319 936q-54 0 -80 40l40 51q16 -22 43 -22q18 0 48 14.5t52 14.5q48 0 80 -42l-37 -49q-18 21 -47 21q-17 0 -47.5 -14t-51.5 -14zM367 785q-69 0 -107.5 39.5t-39.5 94.5h74q1 -25 19 -45t54 -20q35 0 53 20t20 45h73q-1 -55 -39 -94.5t-107 -39.5zM8 0l282 700h155
l285 -700h-162l-45 115h-309l-44 -115h-162zM261 249h215l-107 282h-2z" />
    <glyph glyph-name="uni1EB5" unicode="&#x1eb5;" horiz-adv-x="609" 
d="M255 731q-54 0 -80 40l40 51q16 -22 43 -22q18 0 48 14.5t52 14.5q48 0 80 -42l-37 -49q-18 21 -47 21q-17 0 -47.5 -14t-51.5 -14zM303 580q-69 0 -107.5 39.5t-39.5 94.5h74q1 -25 19 -45t54 -20q35 0 53 20t20 45h73q-1 -55 -39 -94.5t-107 -39.5zM256 -9
q-99 0 -165 74t-66 183t66 182.5t165 73.5q103 0 163 -71v62h140v-495h-140v62q-61 -71 -163 -71zM291 114q54 0 91 38.5t37 95.5t-37 95.5t-91 38.5t-90.5 -38t-36.5 -96t36.5 -96t90.5 -38z" />
    <glyph glyph-name="uni1EB6" unicode="&#x1eb6;" horiz-adv-x="738" 
d="M367 785q-69 0 -107.5 39.5t-39.5 94.5h74q1 -25 19 -45t54 -20q35 0 53 20t20 45h73q-1 -55 -39 -94.5t-107 -39.5zM8 0l282 700h155l285 -700h-162l-45 115h-309l-44 -115h-162zM261 249h215l-107 282h-2zM382 -192q-25 0 -43 18t-18 43q0 24 18 41.5t43 17.5t43 -17.5
t18 -41.5q0 -25 -17.5 -43t-43.5 -18z" />
    <glyph glyph-name="uni1EB7" unicode="&#x1eb7;" horiz-adv-x="609" 
d="M303 580q-69 0 -107.5 39.5t-39.5 94.5h74q1 -25 19 -45t54 -20q35 0 53 20t20 45h73q-1 -55 -39 -94.5t-107 -39.5zM256 -9q-99 0 -165 74t-66 183t66 182.5t165 73.5q103 0 163 -71v62h140v-495h-140v62q-61 -71 -163 -71zM291 114q54 0 91 38.5t37 95.5t-37 95.5
t-91 38.5t-90.5 -38t-36.5 -96t36.5 -96t90.5 -38zM286 -192q-25 0 -43 18t-18 43q0 24 18 41.5t43 17.5t43 -17.5t18 -41.5q0 -25 -17.5 -43t-43.5 -18z" />
    <glyph glyph-name="uni1EB8" unicode="&#x1eb8;" horiz-adv-x="589" 
d="M61 0v700h494v-131h-347v-154h340v-127h-340v-157h347v-131h-494zM312 -192q-25 0 -43 18t-18 43q0 24 18 41.5t43 17.5t43 -17.5t18 -41.5q0 -25 -17.5 -43t-43.5 -18z" />
    <glyph glyph-name="uni1EB9" unicode="&#x1eb9;" horiz-adv-x="557" 
d="M286 511q110 0 179.5 -69.5t70.5 -191.5q0 -26 -1 -41h-380q10 -52 46 -80t85 -28q82 0 126 57l85 -71q-34 -47 -91 -73.5t-119 -26.5q-112 0 -187 75.5t-75 184.5q0 113 74.5 188.5t186.5 75.5zM287 402q-48 0 -82.5 -27.5t-47.5 -75.5h253q-27 103 -123 103zM280 -72
q25 0 43 -17.5t18 -41.5q0 -25 -17.5 -43t-43.5 -18q-25 0 -43 18t-18 43q0 24 18 41.5t43 17.5z" />
    <glyph glyph-name="uni1EBA" unicode="&#x1eba;" horiz-adv-x="589" 
d="M327 767l-44 38q4 4 11.5 11t11 10t9.5 9t8 9t6.5 8t6 8.5t3.5 8.5t2.5 9.5t0.5 9.5q0 14 -9 23t-25 9q-28 0 -35 -30l-56 27q10 28 34.5 44.5t56.5 16.5q41 0 68 -24.5t27 -63.5q0 -41 -19.5 -67.5t-56.5 -55.5zM61 0v700h494v-131h-347v-154h340v-127h-340v-157h347
v-131h-494z" />
    <glyph glyph-name="uni1EBB" unicode="&#x1ebb;" horiz-adv-x="557" 
d="M278 730q-28 0 -35 -30l-56 27q10 28 34.5 44.5t56.5 16.5q41 0 68 -24.5t27 -63.5q0 -41 -19.5 -67.5t-56.5 -55.5l-44 38q4 4 11.5 11t11 10t9.5 9t8 9t6.5 8t6 8.5t3.5 8.5t2.5 9.5t0.5 9.5q0 14 -9 23t-25 9zM286 511q110 0 179.5 -69.5t70.5 -191.5q0 -26 -1 -41
h-380q10 -52 46 -80t85 -28q82 0 126 57l85 -71q-34 -47 -91 -73.5t-119 -26.5q-112 0 -187 75.5t-75 184.5q0 113 74.5 188.5t186.5 75.5zM287 402q-48 0 -82.5 -27.5t-47.5 -75.5h253q-27 103 -123 103z" />
    <glyph glyph-name="uni1EBC" unicode="&#x1ebc;" horiz-adv-x="589" 
d="M255 803q-59 0 -86 43l43 55q17 -23 46 -23q20 0 52 15t56 15q50 0 86 -45l-40 -53q-20 23 -51 23q-18 0 -50.5 -15t-55.5 -15zM61 0v700h494v-131h-347v-154h340v-127h-340v-157h347v-131h-494z" />
    <glyph glyph-name="uni1EBD" unicode="&#x1ebd;" horiz-adv-x="557" 
d="M224 613q-59 0 -86 43l43 55q17 -23 46 -23q20 0 52 15t56 15q50 0 86 -45l-40 -53q-20 23 -51 23q-18 0 -50.5 -15t-55.5 -15zM286 511q110 0 179.5 -69.5t70.5 -191.5q0 -26 -1 -41h-380q10 -52 46 -80t85 -28q82 0 126 57l85 -71q-34 -47 -91 -73.5t-119 -26.5
q-112 0 -187 75.5t-75 184.5q0 113 74.5 188.5t186.5 75.5zM287 402q-48 0 -82.5 -27.5t-47.5 -75.5h253q-27 103 -123 103z" />
    <glyph glyph-name="uni1EBE" unicode="&#x1ebe;" horiz-adv-x="589" 
d="M421 879l60 143h94l-73 -143h-81zM159 770l105 140h102l105 -140h-99l-57 78l-57 -78h-99zM61 0v700h494v-131h-347v-154h340v-127h-340v-157h347v-131h-494z" />
    <glyph glyph-name="uni1EBF" unicode="&#x1ebf;" horiz-adv-x="557" 
d="M544 832l-73 -143h-81l60 143h94zM284 658l-57 -78h-99l105 140h102l105 -140h-99zM286 511q110 0 179.5 -69.5t70.5 -191.5q0 -26 -1 -41h-380q10 -52 46 -80t85 -28q82 0 126 57l85 -71q-34 -47 -91 -73.5t-119 -26.5q-112 0 -187 75.5t-75 184.5q0 113 74.5 188.5
t186.5 75.5zM287 402q-48 0 -82.5 -27.5t-47.5 -75.5h253q-27 103 -123 103z" />
    <glyph glyph-name="uni1EC0" unicode="&#x1ec0;" horiz-adv-x="589" 
d="M126 879l-83 143h96l67 -143h-80zM155 770l105 140h102l106 -140h-100l-56 78l-57 -78h-100zM61 0v700h494v-131h-347v-154h340v-127h-340v-157h347v-131h-494z" />
    <glyph glyph-name="uni1EC1" unicode="&#x1ec1;" horiz-adv-x="557" 
d="M176 689h-80l-83 143h96zM225 580h-100l105 140h102l106 -140h-100l-56 78zM286 511q110 0 179.5 -69.5t70.5 -191.5q0 -26 -1 -41h-380q10 -52 46 -80t85 -28q82 0 126 57l85 -71q-34 -47 -91 -73.5t-119 -26.5q-112 0 -187 75.5t-75 184.5q0 113 74.5 188.5t186.5 75.5
zM287 402q-48 0 -82.5 -27.5t-47.5 -75.5h253q-27 103 -123 103z" />
    <glyph glyph-name="uni1EC2" unicode="&#x1ec2;" horiz-adv-x="589" 
d="M455 855l-40 35q4 3 12 10.5t10.5 10.5t8.5 8.5t8 8.5t5.5 8t5 9t2.5 9t1 10q0 12 -8 20.5t-22 8.5q-27 0 -32 -27l-51 25q9 25 32 40t51 15q36 0 60.5 -22.5t24.5 -57.5q0 -37 -17.5 -61t-50.5 -50zM160 770l105 140h102l106 -140h-100l-56 78l-57 -78h-100zM61 0v700
h494v-131h-347v-154h340v-127h-340v-157h347v-131h-494z" />
    <glyph glyph-name="uni1EC3" unicode="&#x1ec3;" horiz-adv-x="557" 
d="M407 803q-27 0 -32 -27l-51 25q9 25 32 40t51 15q36 0 60.5 -22.5t24.5 -57.5q0 -37 -17.5 -61t-50.5 -50l-40 35q4 3 12 10.5t10.5 10.5t8.5 8.5t8 8.5t5.5 8t5 9t2.5 9t1 10q0 12 -8 20.5t-22 8.5zM286 658l-57 -78h-100l105 140h102l106 -140h-100zM286 511
q110 0 179.5 -69.5t70.5 -191.5q0 -26 -1 -41h-380q10 -52 46 -80t85 -28q82 0 126 57l85 -71q-34 -47 -91 -73.5t-119 -26.5q-112 0 -187 75.5t-75 184.5q0 113 74.5 188.5t186.5 75.5zM287 402q-48 0 -82.5 -27.5t-47.5 -75.5h253q-27 103 -123 103z" />
    <glyph glyph-name="uni1EC4" unicode="&#x1ec4;" horiz-adv-x="589" 
d="M256 948q-59 0 -86 43l43 56q17 -24 46 -24q20 0 52 15.5t56 15.5q50 0 86 -45l-40 -53q-20 23 -51 23q-18 0 -50.5 -15.5t-55.5 -15.5zM154 785l105 140h102l106 -140h-100l-56 78l-57 -78h-100zM61 0v700h494v-131h-347v-154h340v-127h-340v-157h347v-131h-494z" />
    <glyph glyph-name="uni1EC5" unicode="&#x1ec5;" horiz-adv-x="557" 
d="M226 758q-59 0 -86 43l43 56q17 -24 46 -24q20 0 52 15.5t56 15.5q50 0 86 -45l-40 -53q-20 23 -51 23q-18 0 -50.5 -15.5t-55.5 -15.5zM281 673l-57 -78h-100l105 140h102l106 -140h-100zM286 511q110 0 179.5 -69.5t70.5 -191.5q0 -26 -1 -41h-380q10 -52 46 -80
t85 -28q82 0 126 57l85 -71q-34 -47 -91 -73.5t-119 -26.5q-112 0 -187 75.5t-75 184.5q0 113 74.5 188.5t186.5 75.5zM287 402q-48 0 -82.5 -27.5t-47.5 -75.5h253q-27 103 -123 103z" />
    <glyph glyph-name="uni1EC6" unicode="&#x1ec6;" horiz-adv-x="589" 
d="M154 785l105 140h102l106 -140h-100l-56 78l-57 -78h-100zM61 0v700h494v-131h-347v-154h340v-127h-340v-157h347v-131h-494zM312 -192q-25 0 -43 18t-18 43q0 24 18 41.5t43 17.5t43 -17.5t18 -41.5q0 -25 -17.5 -43t-43.5 -18z" />
    <glyph glyph-name="uni1EC7" unicode="&#x1ec7;" horiz-adv-x="557" 
d="M281 673l-57 -78h-100l105 140h102l106 -140h-100zM286 511q110 0 179.5 -69.5t70.5 -191.5q0 -26 -1 -41h-380q10 -52 46 -80t85 -28q82 0 126 57l85 -71q-34 -47 -91 -73.5t-119 -26.5q-112 0 -187 75.5t-75 184.5q0 113 74.5 188.5t186.5 75.5zM287 402
q-48 0 -82.5 -27.5t-47.5 -75.5h253q-27 103 -123 103zM280 -72q25 0 43 -17.5t18 -41.5q0 -25 -17.5 -43t-43.5 -18q-25 0 -43 18t-18 43q0 24 18 41.5t43 17.5z" />
    <glyph glyph-name="uni1EC8" unicode="&#x1ec8;" horiz-adv-x="268" 
d="M151 767l-44 38q4 4 11.5 11t11 10t9.5 9t8 9t6.5 8t6 8.5t3.5 8.5t2.5 9.5t0.5 9.5q0 14 -9 23t-25 9q-28 0 -35 -30l-56 27q10 28 34.5 44.5t56.5 16.5q41 0 68 -24.5t27 -63.5q0 -41 -19.5 -67.5t-56.5 -55.5zM61 0v700h147v-700h-147z" />
    <glyph glyph-name="uni1EC9" unicode="&#x1ec9;" horiz-adv-x="235" 
d="M136 562l-44 38q4 4 11.5 11t11 10t9.5 9t8 9t6.5 8t6 8.5t3.5 8.5t2.5 9.5t0.5 9.5q0 14 -9 23t-25 9q-28 0 -35 -30l-56 27q10 28 34.5 44.5t56.5 16.5q41 0 68 -24.5t27 -63.5q0 -41 -19.5 -67.5t-56.5 -55.5zM49 0v495h137v-495h-137z" />
    <glyph glyph-name="uni1ECA" unicode="&#x1eca;" horiz-adv-x="268" 
d="M61 0v700h147v-700h-147zM132 -191q-25 0 -43 18t-18 43q0 24 18 41.5t43 17.5t43 -17.5t18 -41.5q0 -26 -17.5 -43.5t-43.5 -17.5z" />
    <glyph glyph-name="uni1ECB" unicode="&#x1ecb;" horiz-adv-x="235" 
d="M118 571q-32 0 -55.5 23t-23.5 56q0 31 23.5 53.5t55.5 22.5t55 -22.5t23 -53.5q0 -33 -23 -56t-55 -23zM49 0v495h137v-495h-137zM117 -192q-25 0 -43 18t-18 43q0 24 18 41.5t43 17.5t43 -17.5t18 -41.5q0 -25 -18 -43t-43 -18z" />
    <glyph glyph-name="uni1ECC" unicode="&#x1ecc;" horiz-adv-x="775" 
d="M388 -10q-150 0 -253.5 105t-103.5 255t103.5 255t253.5 105q149 0 252.5 -105t103.5 -255t-103.5 -255t-252.5 -105zM387 134q89 0 149.5 62.5t60.5 153.5t-60.5 153.5t-149.5 62.5q-88 0 -148.5 -62.5t-60.5 -153.5t60.5 -153.5t148.5 -62.5zM387 -192q-25 0 -43 18
t-18 43q0 24 18 41.5t43 17.5t43 -17.5t18 -41.5q0 -25 -18 -43t-43 -18z" />
    <glyph glyph-name="uni1ECD" unicode="&#x1ecd;" horiz-adv-x="596" 
d="M298 -14q-110 0 -188.5 76.5t-78.5 185.5t78.5 186.5t188.5 77.5t188.5 -77.5t78.5 -186.5t-78.5 -185.5t-188.5 -76.5zM298 117q51 -1 86.5 36.5t35.5 93.5q0 57 -35.5 94.5t-86.5 36.5q-51 1 -86.5 -36.5t-35.5 -94.5q0 -56 35.5 -93.5t86.5 -36.5zM298 -192
q-25 0 -43 18t-18 43q0 24 18 41.5t43 17.5t43 -17.5t18 -41.5q0 -25 -17.5 -43t-43.5 -18z" />
    <glyph glyph-name="uni1ECE" unicode="&#x1ece;" horiz-adv-x="775" 
d="M405 767l-44 38q4 4 11.5 11t11 10t9.5 9t8 9t6.5 8t6 8.5t3.5 8.5t2.5 9.5t0.5 9.5q0 14 -9 23t-25 9q-28 0 -35 -30l-56 27q10 28 34.5 44.5t56.5 16.5q41 0 68 -24.5t27 -63.5q0 -41 -19.5 -67.5t-56.5 -55.5zM388 -10q-150 0 -253.5 105t-103.5 255t103.5 255
t253.5 105q149 0 252.5 -105t103.5 -255t-103.5 -255t-252.5 -105zM387 134q89 0 149.5 62.5t60.5 153.5t-60.5 153.5t-149.5 62.5q-88 0 -148.5 -62.5t-60.5 -153.5t60.5 -153.5t148.5 -62.5z" />
    <glyph glyph-name="uni1ECF" unicode="&#x1ecf;" horiz-adv-x="596" 
d="M311 562l-44 38q4 4 11.5 11t11 10t9.5 9t8 9t6.5 8t6 8.5t3.5 8.5t2.5 9.5t0.5 9.5q0 14 -9 23t-25 9q-28 0 -35 -30l-56 27q10 28 34.5 44.5t56.5 16.5q41 0 68 -24.5t27 -63.5q0 -41 -19.5 -67.5t-56.5 -55.5zM298 -14q-110 0 -188.5 76.5t-78.5 185.5t78.5 186.5
t188.5 77.5t188.5 -77.5t78.5 -186.5t-78.5 -185.5t-188.5 -76.5zM298 117q51 -1 86.5 36.5t35.5 93.5q0 57 -35.5 94.5t-86.5 36.5q-51 1 -86.5 -36.5t-35.5 -94.5q0 -56 35.5 -93.5t86.5 -36.5z" />
    <glyph glyph-name="uni1ED0" unicode="&#x1ed0;" horiz-adv-x="775" 
d="M498 879l60 143h94l-73 -143h-81zM236 770l105 140h102l105 -140h-99l-57 78l-57 -78h-99zM388 -10q-150 0 -253.5 105t-103.5 255t103.5 255t253.5 105q149 0 252.5 -105t103.5 -255t-103.5 -255t-252.5 -105zM387 134q89 0 149.5 62.5t60.5 153.5t-60.5 153.5
t-149.5 62.5q-88 0 -148.5 -62.5t-60.5 -153.5t60.5 -153.5t148.5 -62.5z" />
    <glyph glyph-name="uni1ED1" unicode="&#x1ed1;" horiz-adv-x="596" 
d="M404 674l60 143h94l-73 -143h-81zM142 565l105 140h102l105 -140h-99l-57 78l-57 -78h-99zM298 -14q-110 0 -188.5 76.5t-78.5 185.5t78.5 186.5t188.5 77.5t188.5 -77.5t78.5 -186.5t-78.5 -185.5t-188.5 -76.5zM298 117q51 -1 86.5 36.5t35.5 93.5q0 57 -35.5 94.5
t-86.5 36.5q-51 1 -86.5 -36.5t-35.5 -94.5q0 -56 35.5 -93.5t86.5 -36.5z" />
    <glyph glyph-name="uni1ED2" unicode="&#x1ed2;" horiz-adv-x="775" 
d="M203 879l-83 143h96l67 -143h-80zM232 770l105 140h102l106 -140h-100l-56 78l-57 -78h-100zM388 -10q-150 0 -253.5 105t-103.5 255t103.5 255t253.5 105q149 0 252.5 -105t103.5 -255t-103.5 -255t-252.5 -105zM387 134q89 0 149.5 62.5t60.5 153.5t-60.5 153.5
t-149.5 62.5q-88 0 -148.5 -62.5t-60.5 -153.5t60.5 -153.5t148.5 -62.5z" />
    <glyph glyph-name="uni1ED3" unicode="&#x1ed3;" horiz-adv-x="596" 
d="M110 674l-83 143h96l67 -143h-80zM139 565l105 140h102l106 -140h-100l-56 78l-57 -78h-100zM298 -14q-110 0 -188.5 76.5t-78.5 185.5t78.5 186.5t188.5 77.5t188.5 -77.5t78.5 -186.5t-78.5 -185.5t-188.5 -76.5zM298 117q51 -1 86.5 36.5t35.5 93.5q0 57 -35.5 94.5
t-86.5 36.5q-51 1 -86.5 -36.5t-35.5 -94.5q0 -56 35.5 -93.5t86.5 -36.5z" />
    <glyph glyph-name="uni1ED4" unicode="&#x1ed4;" horiz-adv-x="775" 
d="M532 855l-40 35q4 3 12 10.5t10.5 10.5t8.5 8.5t8 8.5t5.5 8t5 9t2.5 9t1 10q0 12 -8 20.5t-22 8.5q-27 0 -32 -27l-51 25q9 25 32 40t51 15q36 0 60.5 -22.5t24.5 -57.5q0 -37 -17.5 -61t-50.5 -50zM237 770l105 140h102l106 -140h-100l-56 78l-57 -78h-100zM388 -10
q-150 0 -253.5 105t-103.5 255t103.5 255t253.5 105q149 0 252.5 -105t103.5 -255t-103.5 -255t-252.5 -105zM387 134q89 0 149.5 62.5t60.5 153.5t-60.5 153.5t-149.5 62.5q-88 0 -148.5 -62.5t-60.5 -153.5t60.5 -153.5t148.5 -62.5z" />
    <glyph glyph-name="uni1ED5" unicode="&#x1ed5;" horiz-adv-x="596" 
d="M438 650l-40 35q4 3 12 10.5t10.5 10.5t8.5 8.5t8 8.5t5.5 8t5 9t2.5 9t1 10q0 12 -8 20.5t-22 8.5q-27 0 -32 -27l-51 25q9 25 32 40t51 15q36 0 60.5 -22.5t24.5 -57.5q0 -37 -17.5 -61t-50.5 -50zM143 565l105 140h102l106 -140h-100l-56 78l-57 -78h-100zM298 -14
q-110 0 -188.5 76.5t-78.5 185.5t78.5 186.5t188.5 77.5t188.5 -77.5t78.5 -186.5t-78.5 -185.5t-188.5 -76.5zM298 117q51 -1 86.5 36.5t35.5 93.5q0 57 -35.5 94.5t-86.5 36.5q-51 1 -86.5 -36.5t-35.5 -94.5q0 -56 35.5 -93.5t86.5 -36.5z" />
    <glyph glyph-name="uni1ED6" unicode="&#x1ed6;" horiz-adv-x="775" 
d="M334 948q-59 0 -86 43l43 56q17 -24 46 -24q20 0 52 15.5t56 15.5q50 0 86 -45l-40 -53q-20 23 -51 23q-18 0 -50.5 -15.5t-55.5 -15.5zM232 785l105 140h102l106 -140h-100l-56 78l-57 -78h-100zM388 -10q-150 0 -253.5 105t-103.5 255t103.5 255t253.5 105
q149 0 252.5 -105t103.5 -255t-103.5 -255t-252.5 -105zM387 134q89 0 149.5 62.5t60.5 153.5t-60.5 153.5t-149.5 62.5q-88 0 -148.5 -62.5t-60.5 -153.5t60.5 -153.5t148.5 -62.5z" />
    <glyph glyph-name="uni1ED7" unicode="&#x1ed7;" horiz-adv-x="596" 
d="M240 743q-59 0 -86 43l43 56q17 -24 46 -24q20 0 52 15.5t56 15.5q50 0 86 -45l-40 -53q-20 23 -51 23q-18 0 -50.5 -15.5t-55.5 -15.5zM138 580l105 140h102l106 -140h-100l-56 78l-57 -78h-100zM298 -14q-110 0 -188.5 76.5t-78.5 185.5t78.5 186.5t188.5 77.5
t188.5 -77.5t78.5 -186.5t-78.5 -185.5t-188.5 -76.5zM298 117q51 -1 86.5 36.5t35.5 93.5q0 57 -35.5 94.5t-86.5 36.5q-51 1 -86.5 -36.5t-35.5 -94.5q0 -56 35.5 -93.5t86.5 -36.5z" />
    <glyph glyph-name="uni1ED8" unicode="&#x1ed8;" horiz-adv-x="775" 
d="M231 785l105 140h102l106 -140h-100l-56 78l-57 -78h-100zM388 -10q-150 0 -253.5 105t-103.5 255t103.5 255t253.5 105q149 0 252.5 -105t103.5 -255t-103.5 -255t-252.5 -105zM387 134q89 0 149.5 62.5t60.5 153.5t-60.5 153.5t-149.5 62.5q-88 0 -148.5 -62.5
t-60.5 -153.5t60.5 -153.5t148.5 -62.5zM387 -192q-25 0 -43 18t-18 43q0 24 18 41.5t43 17.5t43 -17.5t18 -41.5q0 -25 -18 -43t-43 -18z" />
    <glyph glyph-name="uni1ED9" unicode="&#x1ed9;" horiz-adv-x="596" 
d="M137 580l105 140h102l106 -140h-100l-56 78l-57 -78h-100zM298 -14q-110 0 -188.5 76.5t-78.5 185.5t78.5 186.5t188.5 77.5t188.5 -77.5t78.5 -186.5t-78.5 -185.5t-188.5 -76.5zM298 117q51 -1 86.5 36.5t35.5 93.5q0 57 -35.5 94.5t-86.5 36.5q-51 1 -86.5 -36.5
t-35.5 -94.5q0 -56 35.5 -93.5t86.5 -36.5zM298 -192q-25 0 -43 18t-18 43q0 24 18 41.5t43 17.5t43 -17.5t18 -41.5q0 -25 -17.5 -43t-43.5 -18z" />
    <glyph glyph-name="uni1EDA" unicode="&#x1eda;" horiz-adv-x="775" 
d="M523 927l-85 -143h-94l69 143h110zM653 592q91 -102 91 -242q0 -150 -103.5 -255t-252.5 -105q-150 0 -253.5 105t-103.5 255t103.5 255t253.5 105q119 0 215 -72q34 17 31 54q-1 38 -55 78l80 33q50 -48 55 -100q6 -77 -61 -111zM387 134q89 0 149.5 62.5t60.5 153.5
t-60.5 153.5t-149.5 62.5q-88 0 -148.5 -62.5t-60.5 -153.5t60.5 -153.5t148.5 -62.5z" />
    <glyph glyph-name="uni1EDB" unicode="&#x1edb;" horiz-adv-x="596" 
d="M429 722l-85 -143h-94l69 143h110zM511 406q54 -70 54 -158q0 -109 -78.5 -185.5t-188.5 -76.5t-188.5 76.5t-78.5 185.5t78.5 186.5t188.5 77.5q91 0 165 -56q17 16 15 42q-1 38 -55 78l80 33q50 -48 55 -100q6 -66 -47 -103zM298 117q51 -1 86.5 36.5t35.5 93.5
q0 57 -35.5 94.5t-86.5 36.5q-51 1 -86.5 -36.5t-35.5 -94.5q0 -56 35.5 -93.5t86.5 -36.5z" />
    <glyph glyph-name="uni1EDC" unicode="&#x1edc;" horiz-adv-x="775" 
d="M435 784h-93l-96 143h111zM653 592q91 -102 91 -242q0 -150 -103.5 -255t-252.5 -105q-150 0 -253.5 105t-103.5 255t103.5 255t253.5 105q119 0 215 -72q34 17 31 54q-1 38 -55 78l80 33q50 -48 55 -100q6 -77 -61 -111zM387 134q89 0 149.5 62.5t60.5 153.5
t-60.5 153.5t-149.5 62.5q-88 0 -148.5 -62.5t-60.5 -153.5t60.5 -153.5t148.5 -62.5z" />
    <glyph glyph-name="uni1EDD" unicode="&#x1edd;" horiz-adv-x="596" 
d="M341 579h-93l-96 143h111zM511 406q54 -70 54 -158q0 -109 -78.5 -185.5t-188.5 -76.5t-188.5 76.5t-78.5 185.5t78.5 186.5t188.5 77.5q91 0 165 -56q17 16 15 42q-1 38 -55 78l80 33q50 -48 55 -100q6 -66 -47 -103zM298 117q51 -1 86.5 36.5t35.5 93.5
q0 57 -35.5 94.5t-86.5 36.5q-51 1 -86.5 -36.5t-35.5 -94.5q0 -56 35.5 -93.5t86.5 -36.5z" />
    <glyph glyph-name="uni1EDE" unicode="&#x1ede;" horiz-adv-x="775" 
d="M386 920q-28 0 -35 -30l-56 27q10 28 34.5 44.5t56.5 16.5q41 0 68 -24.5t27 -63.5q0 -41 -19.5 -67.5t-56.5 -55.5l-44 38q4 4 11.5 11t11 10t9.5 9t8 9t6.5 8t6 8.5t3.5 8.5t2.5 9.5t0.5 9.5q0 14 -9 23t-25 9zM653 592q91 -102 91 -242q0 -150 -103.5 -255
t-252.5 -105q-150 0 -253.5 105t-103.5 255t103.5 255t253.5 105q119 0 215 -72q34 17 31 54q-1 38 -55 78l80 33q50 -48 55 -100q6 -77 -61 -111zM387 134q89 0 149.5 62.5t60.5 153.5t-60.5 153.5t-149.5 62.5q-88 0 -148.5 -62.5t-60.5 -153.5t60.5 -153.5t148.5 -62.5z
" />
    <glyph glyph-name="uni1EDF" unicode="&#x1edf;" horiz-adv-x="596" 
d="M292 715q-28 0 -35 -30l-56 27q10 28 34.5 44.5t56.5 16.5q41 0 68 -24.5t27 -63.5q0 -41 -19.5 -67.5t-56.5 -55.5l-44 38q4 4 11.5 11t11 10t9.5 9t8 9t6.5 8t6 8.5t3.5 8.5t2.5 9.5t0.5 9.5q0 14 -9 23t-25 9zM511 406q54 -70 54 -158q0 -109 -78.5 -185.5
t-188.5 -76.5t-188.5 76.5t-78.5 185.5t78.5 186.5t188.5 77.5q91 0 165 -56q17 16 15 42q-1 38 -55 78l80 33q50 -48 55 -100q6 -66 -47 -103zM298 117q51 -1 86.5 36.5t35.5 93.5q0 57 -35.5 94.5t-86.5 36.5q-51 1 -86.5 -36.5t-35.5 -94.5q0 -56 35.5 -93.5t86.5 -36.5z
" />
    <glyph glyph-name="uni1EE0" unicode="&#x1ee0;" horiz-adv-x="775" 
d="M332 803q-59 0 -86 43l43 55q17 -23 46 -23q20 0 52 15t56 15q50 0 86 -45l-40 -53q-20 23 -51 23q-18 0 -50.5 -15t-55.5 -15zM653 592q91 -102 91 -242q0 -150 -103.5 -255t-252.5 -105q-150 0 -253.5 105t-103.5 255t103.5 255t253.5 105q119 0 215 -72q34 17 31 54
q-1 38 -55 78l80 33q50 -48 55 -100q6 -77 -61 -111zM387 134q89 0 149.5 62.5t60.5 153.5t-60.5 153.5t-149.5 62.5q-88 0 -148.5 -62.5t-60.5 -153.5t60.5 -153.5t148.5 -62.5z" />
    <glyph glyph-name="uni1EE1" unicode="&#x1ee1;" horiz-adv-x="596" 
d="M238 598q-59 0 -86 43l43 55q17 -23 46 -23q20 0 52 15t56 15q50 0 86 -45l-40 -53q-20 23 -51 23q-18 0 -50.5 -15t-55.5 -15zM511 406q54 -70 54 -158q0 -109 -78.5 -185.5t-188.5 -76.5t-188.5 76.5t-78.5 185.5t78.5 186.5t188.5 77.5q91 0 165 -56q17 16 15 42
q-1 38 -55 78l80 33q50 -48 55 -100q6 -66 -47 -103zM298 117q51 -1 86.5 36.5t35.5 93.5q0 57 -35.5 94.5t-86.5 36.5q-51 1 -86.5 -36.5t-35.5 -94.5q0 -56 35.5 -93.5t86.5 -36.5z" />
    </font>
</defs>
</svg>
